<?xml version="1.0" encoding="utf-8"?>
<!-- Generator: Adobe Illustrator 19.0.0, SVG Export Plug-In . SVG Version: 6.00 Build 0)  -->
<svg version="1.1" id="图层_1" xmlns="http://www.w3.org/2000/svg" xmlns:xlink="http://www.w3.org/1999/xlink" x="0px" y="0px"
	 viewBox="0 0 181.4 181.4" style="enable-background:new 0 0 181.4 181.4;" xml:space="preserve">
<style type="text/css">
	.st0{fill:#040000;}
</style>
<g id="XMLID_26_">
	<path id="XMLID_14_" class="st0" d="M89.1,91.5L82,87.4c-1.1-0.6-1.5-2.1-0.9-3.2l2.9-5.1l0.1-0.1c-2.5-5.5-1.7-13.7,2.7-21.1
		s11-12.2,17-12.9l2.1-3.7c0.6-1.1,2.1-1.5,3.2-0.9l7.1,4.1c1.1,0.6,1.5,2.1,0.9,3.2l-2.1,3.7c2.5,5.5,1.7,13.7-2.7,21.1
		c-4.3,7.5-11,12.2-17,12.9l-0.1,0.1l-2.9,5.1C91.7,91.8,90.3,92.2,89.1,91.5L89.1,91.5z M38.9,38.7l-1.4-1.4c-1-1,0.9-2.9,1.9-1.9
		l1.4,1.4c1.9,1.9,2.7,2.4,5.2,2.4c2.6,0,4.7,2.1,4.7,4.7c0,2.6-2.1,4.7-4.7,4.7c-2.6,0-4.7-2.1-4.7-4.7
		C41.3,41.3,41,40.8,38.9,38.7z"/>
	<path id="XMLID_9_" class="st0" d="M48.3,119.2c-2.9,3.5-4.4,7.9-3.9,13.5c0.8,8.2,7,16.4,15.9,22.6c9.1,6.3,20.8,10.4,32.3,10.2
		c1.1,0,2.2-0.1,3.5-0.2c13.4-0.9,26.5-6,36.2-14.3c9.4-8,15.5-19.1,15.4-32.2h-2c-0.8,10.9-6.6,19.8-15.4,26.1
		c-9.9,7.1-23.7,11.1-38.2,11.1c-13.9,0-27.2-6.3-36.5-21C52.7,130.6,50.2,125.3,48.3,119.2L48.3,119.2z M86,95.2L86,95.2
		c-1.6,2.6-3.6,4.6-5.9,6.2c-2.2,1.5-4.6,2.7-7,3.7c-0.2,0.1-1.2,0.5-2.5,1c-5.5,2.2-11.6,4.6-16.5,8c1.9,6.8,4.4,12.6,7.4,17.3
		c7.8,12.4,19,17.7,30.6,17.7c13.1,0,25.4-3.4,34.1-9.7c7-5,11.6-12,12.4-20.4h-0.5c-1.6,0-3.1-0.7-4.2-1.7s-1.7-2.5-1.7-4.2V110
		h-14.8c-2.8,0-5.3-1.1-7.1-2.9c-1.8-1.8-2.9-4.3-2.9-7.1V87.3c4.4-2.9,8.1-7.1,10.6-11.5c1.4-2.5,2.7-5.3,3.5-8.3h26
		c1.6,0,3.1,0.7,4.2,1.7s1.7,2.5,1.7,4.2V77h8.3c2,0,3.7-0.8,5-2.1c1.3-1.3,2.1-3,2.1-5v-1.2c0-2-0.8-3.7-2.1-5
		c-1.3-1.3-3-2.1-5-2.1h-39.1c0.2-2.4,0.1-4.8-0.4-7.1h39.5c3.9,0,7.4,1.6,10,4.2c2.6,2.6,4.2,6.1,4.2,10v36c0,3.9-1.6,7.4-4.2,10
		c-2.6,2.6-6.1,4.2-10,4.2h-7c0.1,15.4-7,28.3-17.9,37.6c-10.8,9.3-25.4,14.9-40.3,16c-1.2,0.1-2.5,0.1-3.8,0.2
		c-13.1,0.2-26.2-4.4-36.4-11.4c-10.4-7.2-17.8-17.2-18.8-27.7c-1-10.3,2.8-17.3,8.7-22.4c-2-8.7-3-18.9-3-30.5v-8.8h-1.8
		c-1.3,0-2.4-1.1-2.4-2.4v-5.3c-3-1.1-5.7-2.8-7.9-5c-3.8-3.8-6.2-9.2-6.2-15s2.4-11.2,6.2-15s9.2-6.2,15-6.2s11.2,2.4,15,6.2
		c3.8,3.8,6.2,9.2,6.2,15S64.8,55.2,61,59c-2.2,2.2-4.9,3.9-7.9,5v5.3c0,1.3-1.1,2.4-2.4,2.4h-0.6v8.8c0,9.9,0.8,18.6,2.2,26.1
		c4.9-2.9,10.5-5.1,15.6-7.1c0.4-0.1,0.7-0.3,2.5-1c2.1-0.8,4-1.7,5.6-2.9c1.5-1.1,2.8-2.3,3.8-3.9C79.9,91.7,86,95.2,86,95.2z
		 M168.7,82.1c-2.1,1.2-4.5,1.9-7.1,1.9h-15.4c-3.8,0-6.9,3.1-7,6.9v20.8h0.6c2.6,0,4.7-2.1,4.7-4.7V91.1c0-1.3,1.1-2.4,2.4-2.4
		h13.6C167.4,88.8,168.6,84.6,168.7,82.1L168.7,82.1z M46,58.1c3.9,0,7.5-1.6,10-4.1c2.6-2.6,4.1-6.1,4.1-10s-1.6-7.5-4.1-10
		c-2.6-2.6-6.1-4.1-10-4.1s-7.5,1.6-10,4.1s-4.1,6.1-4.1,10s1.6,7.4,4.1,10C38.5,56.6,42.1,58.1,46,58.1z"/>
</g>
</svg>
