<?xml version="1.0" encoding="utf-8"?>
<!-- Generator: Adobe Illustrator 19.0.0, SVG Export Plug-In . SVG Version: 6.00 Build 0)  -->
<svg version="1.1" id="图层_1" xmlns="http://www.w3.org/2000/svg" xmlns:xlink="http://www.w3.org/1999/xlink" x="0px" y="0px"
	 viewBox="0 0 181.4 181.4" style="enable-background:new 0 0 181.4 181.4;" xml:space="preserve">
<style type="text/css">
	.st0{fill:#040000;}
</style>
<path id="XMLID_27_" class="st0" d="M148.8,81.5c-8.2-11.8-20.4-23.9-25-25c-4.9-1.2-8.9,0.7-13.8,6.4c-3,3.4-5.3,10.3-7.2,15.9
	c-0.9,2.5-1.9,5.6-2.5,6.6c-1.9-1.6-4.3-8.7-4.3-13.2c0-2.5,0.2-38.4,0.2-44.7c0-3.9,2.4-8.7,4-11.8c1.4-2.8,2-3.9,0.9-4.5
	c-0.3-0.2-1.1-0.9-1.8-1.7c-2.2-2.2-4.6-4.5-6.2-3.5c-1.2,0.7-2.4,2.4-3.1,3.6c-2.3-4.2-3-4.2-3.5-4.2c-1.3,0-4.7,2.2-4.7,7.1
	c0,2.6,0.9,5.1,1.8,7.5c0.8,2.1,1.6,4.3,1.8,6.6c0.4,4.6,0.7,39,0.1,47.9c-0.5,7.7-1.8,9.6-2.2,9.7c-0.1,0-0.5-0.2-1.3-1.4
	c-0.5-0.9-1.2-2.6-2-4.6c-2.9-7.4-7.7-19.9-16.7-22.9c-8-2.7-16.7,7.9-22.6,16.1C26,91.9,14.8,126.4,12.4,136.7
	c-3.7,16-3,26.9,2.2,33.3c6.3,7.6,15.9,3.8,28.8-2.3c6.4-3,13-3.7,19.4-4.3c6.1-0.6,11.9-1.2,16.5-3.8c6.2-3.6,6.1-13.2,6-21.6
	c-0.1-4.5-0.1-8.8,1-10.8c5.4-10.3,3.9-17.7,2.8-23c-0.4-1.7-0.6-3.1-0.7-4.4c0-2.6,0.5-4.8,1.4-5.5c0.3-0.2,0.6-0.3,1-0.2
	c1.3,0.3,2.7,1.3,3.4,2.6c0.4,0.7,0.7,1.7,0.3,2.8c-4.5,12.4-1.7,20.2,0.5,26.5l0.6,1.6c0.8,2.4,1,6.5,1.1,10.8
	c0.2,7.3,0.5,15.6,4.1,20.5c4.3,5.9,14.3,7,23,8c3.2,0.4,6.2,0.7,8.8,1.2c4.2,0.8,8.2,2.4,12.1,3.9c5.5,2.1,10.7,4.2,16.3,4.2
	c10.3,0,10.3-9.5,10.3-23.9C171.4,133.6,164.3,103.5,148.8,81.5z M149.7,163c-3.7-1.5-7.8-3.3-12.3-4.4c-3.9-1-8.1-1.3-12.2-1.7
	c-6.5-0.6-12.6-1.1-15.3-4.1c-1.9-2-2.4-6-2.7-9.2l0-0.2c-0.2-2-0.3-4-0.4-6.1c-0.1-2.1-0.2-4.3-0.4-6.3l0.2,0.1l-0.2-1.3
	c-0.5-3.5-1.3-6.5-2.4-9l-0.2-0.7l-0.2,0.1c0-0.2-0.1-0.3-0.1-0.5l-0.1-0.3c-0.1-0.2-0.2-0.4-0.2-0.6l0-0.1l0-0.1
	c-1.1-4.4-1.2-7.9-0.2-10.8l0.7-2.1c11.8-35.5,15.9-39.4,17.1-39.4c4.3,0,16.2,15,24.2,28.5l0.4,0.7h0c0.5,0.8,1.4,2.4,2.5,4.7
	l0.2,0.3c2.1,4.3,5.1,11.4,7.4,20.7l0,0.3c3.9,12.5,6,22.4,6,27.8c0,6.2,0,14.7-2.6,16.4C157.7,166.4,153.8,164.7,149.7,163
	L149.7,163z M75.9,130.1l0.2,0.8c-0.2,1.6-0.4,2.9-0.4,4.1c0,1.1,0.1,2.3,0.2,3.7c0.3,4.1,0.7,9.2-1.9,11.7
	c-1.9,1.8-5.7,2.1-10.1,2.4c-3.7,0.3-8,0.6-12.2,1.9c-3.2,1-6.8,2.5-10.3,4c-6.6,2.8-13.4,5.7-16.9,4.6c-4.7-1.5-4.2-8-3.7-14.3
	l0.1-1.5c0.6-7.9,3.9-19.8,9.4-33.4l0.1-0.2l0.3-0.8c0.4-1,0.8-2,1.2-3l0.1,0l0.3-0.7c1.3-2.9,2.9-6.5,4.1-9.1l0.4-1
	c0.4-0.7,0.7-1.5,1.1-2.3C47,78.3,56.3,65.3,60.4,65.3c4.7,0,16.9,28.2,17.5,34.5c0.1,1.4,0.6,3,1.1,4.7c0.9,3.1,1.9,6.6,0.9,9.6
	c-0.4,1.3-0.9,3-1.4,5.2l-0.3,0.8l-0.3,0.1l-0.2,0.4C76.8,122.5,76.2,125.7,75.9,130.1L75.9,130.1z"/>
</svg>
