<?xml version="1.0" encoding="utf-8"?>
<!-- Generator: Adobe Illustrator 19.0.0, SVG Export Plug-In . SVG Version: 6.00 Build 0)  -->
<svg version="1.1" id="图层_1" xmlns="http://www.w3.org/2000/svg" xmlns:xlink="http://www.w3.org/1999/xlink" x="0px" y="0px"
	 viewBox="0 0 181.4 181.4" style="enable-background:new 0 0 181.4 181.4;" xml:space="preserve">
<style type="text/css">
	.st0{fill:#040000;}
</style>
<path id="XMLID_5_" class="st0" d="M127.4,19.9c-14.6,0-28.2,7.1-36.7,18.6C82.2,27,68.6,19.9,54,19.9c-25.1,0-45.5,20.4-45.5,45.5
	c0,12,4.6,23.3,13.1,31.9c0.1,0.2,0.3,0.3,0.4,0.5L82.1,158c2.4,2.4,5.5,3.6,8.6,3.6c3.1,0,6.3-1.2,8.6-3.6l60.2-60.2
	c0.1-0.1,0.3-0.3,0.4-0.5c8.4-8.6,13.1-19.9,13.1-31.9C173,40.3,152.6,19.9,127.4,19.9L127.4,19.9z M92.3,150.9
	c-0.9,0.9-2.2,0.9-3.1,0L32.9,94.6h21.4l6.6,11.3c0.4,0.7,1,1.2,1.8,1.6c1.8,0.9,3.9,0.3,5-1.4l12-19.2l11.4,33.4
	c0.6,1.6,2.1,2.7,3.8,2.6c1.6,0,3.1-0.9,3.7-2.5l18.6-50l6.4,21.5c0.1,0.8,0.5,1.5,1.1,2.1c0.8,0.8,2,1.3,3.3,1.1H148L92.3,150.9
	L92.3,150.9z M155.4,87.3h-25.1l-8.8-29.6c-0.1-1.5-1-2.8-2.5-3.4l-0.1-0.1c-1.6-0.6-3.4,0-4.4,1.2c-0.4,0.5-0.7,1.1-0.8,1.7
	L95,107.4L84.5,76.5c-0.6-1.6-2.1-2.7-3.8-2.6c-1.3,0-2.6,0.6-3.4,1.8L64.5,96.4l-4.5-7.8c-0.7-1.2-1.9-1.8-3.1-1.9c0,0,0,0,0,0
	c0,0-0.1,0-0.1,0c0,0,0,0,0,0h-31c-4.6-6.1-7.1-13.5-7.1-21.3c0-19.6,15.9-35.5,35.5-35.5c13.7,0,26.4,8,32.2,20.5
	c0.8,1.8,2.6,2.9,4.5,2.9c1.9,0,3.7-1.1,4.5-2.9c5.8-12.5,18.5-20.5,32.2-20.5c19.6,0,35.5,15.9,35.5,35.5
	C162.9,73.5,160.3,81.1,155.4,87.3z"/>
</svg>
