<?xml version="1.0" encoding="utf-8"?>
<!-- Generator: Adobe Illustrator 19.0.0, SVG Export Plug-In . SVG Version: 6.00 Build 0)  -->
<svg version="1.1" id="图层_1" xmlns="http://www.w3.org/2000/svg" xmlns:xlink="http://www.w3.org/1999/xlink" x="0px" y="0px"
	 viewBox="0 0 181.4 181.4" style="enable-background:new 0 0 181.4 181.4;" xml:space="preserve">
<style type="text/css">
	.st0{fill:#040000;}
</style>
<path id="XMLID_2_" class="st0" d="M172.4,37.2c-0.8-8.4-5.2-16-12.2-20.8c-11.2-7.8-26.8-5.9-37.1,4.3L35.8,108
	c-6.3,6.3-9.2,15-7.9,23.9c0.6,4.5-0.5,8.6-3.2,11.3l-12.9,12.9c-4.4,4.4-4.4,11.6,0,16c2.2,2.2,5.1,3.3,8,3.3s5.8-1.1,8-3.3
	l12.9-12.9c2.7-2.7,6.8-3.8,11.3-3.2c8.9,1.3,17.6-1.6,23.9-7.9L104,120L128.1,96l36.1-36.1C170.1,53.9,173.1,45.7,172.4,37.2z
	 M156.2,51.8l-8,8l-12-12c-2.2-2.2-5.8-2.2-8,0c-2.2,2.2-2.2,5.8,0,8l12,12l-4,4l-3.5-3.5c-2.2-2.2-5.8-2.2-8,0
	c-2.2,2.2-2.2,5.8,0,8l3.5,3.5l-4,4l-3.5-3.5c-2.2-2.2-5.8-2.2-8,0c-2.2,2.2-2.2,5.8,0,8l3.5,3.5l-4,4l-12-12c-2.2-2.2-5.8-2.2-8,0
	c-2.2,2.2-2.2,5.8,0,8l12,12l-4,4l-3.6-3.5c-2.2-2.2-5.8-2.2-8,0c-2.2,2.2-2.2,5.8,0,8L92,116l-4,4l-3.5-3.5c-2.2-2.2-5.8-2.2-8,0
	c-2.2,2.2-2.2,5.8,0,8L80,128l-12,12c-3.8,3.8-9,5.5-14.3,4.7c-8-1.2-15.6,1.2-20.8,6.3c5.1-5.2,7.4-12.8,6.3-20.8
	c-0.7-5.4,1-10.6,4.7-14.3l87.3-87.3c3.8-3.8,8.8-5.7,13.6-5.7c3.2,0,6.4,0.9,9,2.7c4.3,3,6.9,7.4,7.4,12.5
	C161.5,43.3,159.7,48.3,156.2,51.8L156.2,51.8z"/>
</svg>
