<svg id="图层_1" data-name="图层 1" xmlns="http://www.w3.org/2000/svg" viewBox="0 0 64 64"><defs><style>.cls-1{fill:#3f78bf;fill-rule:evenodd;}</style></defs><title>icons</title><path id="_Compound_Path_" data-name="&lt;Compound Path&gt;" class="cls-1" d="M58.68,33.41l-5.73,5.76a2,2,0,0,1-2.87,0,2,2,0,0,1,0-2.88L54.38,32l-4.3-4.32a2,2,0,0,1,0-2.88,2,2,0,0,1,2.87,0l5.73,5.76A2,2,0,0,1,58.68,33.41ZM32,55.4S16.4,49.27,16.4,39.8V16.4A18.83,18.83,0,0,0,32,8.6a18.67,18.67,0,0,0,15.6,7.8V39.8C47.6,49.27,32,55.4,32,55.4Zm0-33.15A5.84,5.84,0,0,0,30,33.59V39.8a1.95,1.95,0,1,0,3.9,0V33.59A5.84,5.84,0,0,0,32,22.25Zm0,7.8a1.95,1.95,0,1,1,1.95-1.95A2,2,0,0,1,32,30.05ZM32,8.6h0ZM13.57,38.89a2,2,0,0,1-2.76,0L5.3,33.38a2,2,0,0,1,0-2.76l5.52-5.52a1.95,1.95,0,0,1,2.76,2.76L9.44,32l4.14,4.14A2,2,0,0,1,13.57,38.89Z"/></svg>