<svg id="图层_1" data-name="图层 1" xmlns="http://www.w3.org/2000/svg" viewBox="0 0 64 64"><defs><style>.cls-1{fill:#3f78bf;fill-rule:evenodd;}.cls-2{fill:#4c4c4c;}</style></defs><title>icons</title><g id="_Group_" data-name="&lt;Group&gt;"><g id="_Group_2" data-name="&lt;Group&gt;"><path id="_Path_" data-name="&lt;Path&gt;" class="cls-1" d="M13.57,25.47a2,2,0,0,0-2.76,0L5.3,31a2,2,0,0,0,0,2.76l5.52,5.52a1.95,1.95,0,1,0,2.76-2.76L9.44,32.37l4.14-4.14A2,2,0,0,0,13.57,25.47Z"/><path id="_Path_2" data-name="&lt;Path&gt;" class="cls-1" d="M58.68,30.89l-5.73-5.76a2,2,0,0,0-2.87,0,2,2,0,0,0,0,2.88l4.3,4.32-4.3,4.32a2,2,0,0,0,0,2.88,2,2,0,0,0,2.87,0l5.73-5.76A2,2,0,0,0,58.68,30.89Z"/></g><g id="_Group_3" data-name="&lt;Group&gt;"><g id="_Group_4" data-name="&lt;Group&gt;"><path id="_Compound_Path_" data-name="&lt;Compound Path&gt;" class="cls-2" d="M26.15,28.1A5.85,5.85,0,0,0,30,33.61V39.8a1.95,1.95,0,0,0,3.9,0V33.61a5.85,5.85,0,1,0-7.8-5.51Zm5.85-2a2,2,0,1,1-1.95,2A2,2,0,0,1,32,26.15ZM32,8.6h0Zm0,0a18.82,18.82,0,0,1-15.6,7.8V39.8C16.4,49.27,32,55.4,32,55.4s15.6-6.13,15.6-15.6V16.4A18.67,18.67,0,0,1,32,8.6ZM44,39.8c0,3.64-6.73,8.43-12,10.76-5.23-2.32-12-7.09-12-10.76V20.72A22.07,22.07,0,0,0,32,14.8a22.17,22.17,0,0,0,12,5.92Z"/></g></g></g></svg>