<svg id="图层_1" data-name="图层 1" xmlns="http://www.w3.org/2000/svg" viewBox="0 0 64 64"><defs><style>.cls-1{fill:#3f78bf;fill-rule:evenodd;}</style></defs><title>图标切图</title><path id="_Compound_Path_" data-name="&lt;Compound Path&gt;" class="cls-1" d="M49.55,45.65H34V51.5H39.8a1.95,1.95,0,0,1,0,3.9H24.2a1.95,1.95,0,0,1,0-3.9h5.85V45.65H14.45a3.9,3.9,0,0,1-3.9-3.9V12.5a3.9,3.9,0,0,1,3.9-3.9h35.1a3.9,3.9,0,0,1,3.9,3.9V41.75A3.9,3.9,0,0,1,49.55,45.65ZM20.3,33.95l9.75,3.9V28.1L20.3,24.2ZM32,16.4,20.3,20.3,32,24.2l11.7-3.9Zm11.7,7.8L34,28.1v9.75l9.75-3.9Z"/></svg>