<svg id="图层_1" data-name="图层 1" xmlns="http://www.w3.org/2000/svg" viewBox="0 0 64 64"><defs><style>.cls-1{fill:#4c4c4c;}.cls-1,.cls-2{fill-rule:evenodd;}.cls-2{fill:#3f78bf;}</style></defs><title>图标切图</title><g id="_Group_" data-name="&lt;Group&gt;"><path id="_Compound_Path_" data-name="&lt;Compound Path&gt;" class="cls-1" d="M49.55,45.65H33.95V51.5H39.8a1.95,1.95,0,1,1,0,3.9H24.2a1.95,1.95,0,1,1,0-3.9H30V45.65H14.45a3.9,3.9,0,0,1-3.9-3.9V12.5a3.9,3.9,0,0,1,3.9-3.9h35.1a3.9,3.9,0,0,1,3.9,3.9V41.75A3.9,3.9,0,0,1,49.55,45.65Zm0-33.15H14.45V41.75h35.1Z"/><g id="_Group_2" data-name="&lt;Group&gt;"><g id="_Group_3" data-name="&lt;Group&gt;"><path id="_Compound_Path_2" data-name="&lt;Compound Path&gt;" class="cls-2" d="M32,16.4,20.3,20.3,32,24.2l11.7-3.9ZM20.3,34,30,37.85V28.1L20.3,24.2ZM34,37.85,43.7,34V24.2L34,28.1Z"/></g></g></g></svg>