<svg id="图层_1" data-name="图层 1" xmlns="http://www.w3.org/2000/svg" viewBox="0 0 64 64"><defs><style>.cls-1{fill:#4c4c4c;}.cls-1,.cls-2{fill-rule:evenodd;}.cls-2{fill:#3f78bf;}</style></defs><title>图标切图</title><g id="_Group_" data-name="&lt;Group&gt;"><path id="_Compound_Path_" data-name="&lt;Compound Path&gt;" class="cls-1" d="M51.5,47.6H33.95v3.9H39.8a1.95,1.95,0,0,1,0,3.9H24.2a1.95,1.95,0,0,1,0-3.9h5.85V47.6H12.5a3.9,3.9,0,0,1-3.9-3.9V12.5a3.9,3.9,0,0,1,3.9-3.9h39a3.9,3.9,0,0,1,3.9,3.9V43.7A3.9,3.9,0,0,1,51.5,47.6Zm0-35.1h-39V43.7h39Z"/><g id="_Group_2" data-name="&lt;Group&gt;"><g id="_Group_3" data-name="&lt;Group&gt;"><path id="_Compound_Path_2" data-name="&lt;Compound Path&gt;" class="cls-2" d="M43.7,28.1a11.7,11.7,0,0,0-20-8.27l2.76,2.76A7.8,7.8,0,0,1,39.8,28.1H35.9L41.75,34,47.6,28.1ZM32,35.9a7.8,7.8,0,0,1-7.8-7.8h3.9l-5.85-5.85L16.4,28.1h3.9a11.7,11.7,0,0,0,20,8.27l-2.76-2.76A7.78,7.78,0,0,1,32,35.9Z"/></g></g></g></svg>