<svg id="图层_1" data-name="图层 1" xmlns="http://www.w3.org/2000/svg" viewBox="0 0 64 64"><defs><style>.cls-1{fill:#3f78bf;fill-rule:evenodd;}</style></defs><title>图标切图</title><path id="_Compound_Path_" data-name="&lt;Compound Path&gt;" class="cls-1" d="M51.5,47.6H33.95v3.9H39.8a1.95,1.95,0,0,1,0,3.9H24.2a1.95,1.95,0,0,1,0-3.9h5.85V47.6H12.5a3.9,3.9,0,0,1-3.9-3.9V12.5a3.9,3.9,0,0,1,3.9-3.9h39a3.9,3.9,0,0,1,3.9,3.9V43.7A3.9,3.9,0,0,1,51.5,47.6ZM16.4,39.8H32V35.9H16.4ZM47.6,16.4H16.4v3.9H47.6Zm0,9.75H16.4v3.9H47.6Z"/></svg>