<svg id="图层_1" data-name="图层 1" xmlns="http://www.w3.org/2000/svg" viewBox="0 0 64 64"><defs><style>.cls-1{fill:#4c4c4c;}.cls-1,.cls-2{fill-rule:evenodd;}.cls-2{fill:#3f78bf;}</style></defs><title>图标切图</title><g id="_Group_" data-name="&lt;Group&gt;"><path id="_Compound_Path_" data-name="&lt;Compound Path&gt;" class="cls-1" d="M51.27,47.6H33.72v3.9h5.85a1.95,1.95,0,0,1,0,3.9H24a1.95,1.95,0,0,1,0-3.9h5.85V47.6H12.27a3.9,3.9,0,0,1-3.9-3.9V12.5a3.9,3.9,0,0,1,3.9-3.9h39a3.9,3.9,0,0,1,3.9,3.9V43.7A3.9,3.9,0,0,1,51.27,47.6Zm0-35.1h-39V43.7h39Z"/><g id="_Group_2" data-name="&lt;Group&gt;"><g id="_Group_3" data-name="&lt;Group&gt;"><path id="_Compound_Path_2" data-name="&lt;Compound Path&gt;" class="cls-2" d="M16.17,16.4v3.9h31.2V16.4Zm0,13.65h31.2v-3.9H16.17Zm0,9.75h15.6V35.9H16.17Z"/></g></g></g></svg>