<svg id="图层_1" data-name="图层 1" xmlns="http://www.w3.org/2000/svg" viewBox="0 0 64 64"><defs><style>.cls-1{fill:#3f78bf;fill-rule:evenodd;}</style></defs><title>图标切图</title><path id="_Compound_Path_" data-name="&lt;Compound Path&gt;" class="cls-1" d="M51.5,47.6H33.95v3.9H39.8a1.95,1.95,0,1,1,0,3.9H24.2a1.95,1.95,0,1,1,0-3.9H30V47.6H12.5a3.9,3.9,0,0,1-3.9-3.9V12.5a3.9,3.9,0,0,1,3.9-3.9h39a3.9,3.9,0,0,1,3.9,3.9V43.7A3.9,3.9,0,0,1,51.5,47.6ZM16.4,28.1h3.9a11.7,11.7,0,0,0,20,8.27l-2.76-2.76A7.8,7.8,0,0,1,24.2,28.1h3.9l-5.85-5.85Zm27.3,0a11.7,11.7,0,0,0-20-8.27l2.76,2.76A7.8,7.8,0,0,1,39.8,28.1H35.9l5.85,5.85L47.6,28.1Z"/></svg>