<?xml version="1.0" encoding="utf-8"?>
<!-- Generator: Adobe Illustrator 21.1.0, SVG Export Plug-In . SVG Version: 6.00 Build 0)  -->
<svg version="1.1" id="图层_1" xmlns="http://www.w3.org/2000/svg" xmlns:xlink="http://www.w3.org/1999/xlink" x="0px" y="0px"
	 viewBox="0 0 64 64" style="enable-background:new 0 0 64 64;" xml:space="preserve">
<style type="text/css">
	.st0{fill-rule:evenodd;clip-rule:evenodd;fill:#3F78BF;}
	.st1{fill-rule:evenodd;clip-rule:evenodd;fill:#4C4C4C;}
	.st2{fill-rule:evenodd;clip-rule:evenodd;fill:none;}
</style>
<path class="st0" d="M51.5,47.6H34v3.9h5.9c1.1,0,1.9,0.9,1.9,2s-0.9,1.9-1.9,1.9H24.2c-1.1,0-2-0.9-2-1.9s0.9-2,2-2H30v-3.9H12.5
	c-2.2,0-3.9-1.7-3.9-3.9V12.5c0-2.2,1.7-3.9,3.9-3.9h39c2.2,0,3.9,1.7,3.9,3.9v31.2C55.4,45.9,53.7,47.6,51.5,47.6z M30,18.4H18.4
	v19.5H30V18.4z M45.7,18.4H34v19.5h11.7V18.4z M41.8,34h-3.9V22.2h3.9V34z M26.1,34h-3.9V22.2h3.9V34z"/>
</svg>
