<svg id="图层_1" data-name="图层 1" xmlns="http://www.w3.org/2000/svg" viewBox="0 0 64 64"><defs><style>.cls-1{fill:#3f78bf;fill-rule:evenodd;}</style></defs><title>icons</title><path id="_Compound_Path_" data-name="&lt;Compound Path&gt;" class="cls-1" d="M53.89,46a2.37,2.37,0,0,0-1.4,3.29,2.41,2.41,0,0,1-2.22,3.44,2.56,2.56,0,0,1-1.07-.24,2.53,2.53,0,0,0-1.06-.23,2.47,2.47,0,0,0-2.33,1.6,2.5,2.5,0,0,1-4.66,0,2.47,2.47,0,0,0-2.33-1.6,2.53,2.53,0,0,0-1.06.23,2.55,2.55,0,0,1-1.07.24,2.41,2.41,0,0,1-2.22-3.44A2.37,2.37,0,0,0,33,46h0a2.37,2.37,0,0,1,0-4.52h0a2.37,2.37,0,0,0,1.4-3.29,2.41,2.41,0,0,1,2.22-3.44,2.55,2.55,0,0,1,1.07.24,2.53,2.53,0,0,0,1.06.23,2.47,2.47,0,0,0,2.33-1.6,2.5,2.5,0,0,1,4.66,0,2.47,2.47,0,0,0,2.33,1.6A2.53,2.53,0,0,0,49.19,35a2.56,2.56,0,0,1,1.07-.24,2.41,2.41,0,0,1,2.22,3.44,2.37,2.37,0,0,0,1.4,3.29A2.37,2.37,0,0,1,53.89,46ZM43.57,37.85a5.85,5.85,0,1,0,5.85,5.85A5.85,5.85,0,0,0,43.57,37.85Zm-1.95-9.62V28.1H18.22V32H33.28a15.54,15.54,0,0,0-3.2,19.5H12.37a3.9,3.9,0,0,1-3.9-3.9V12.5a3.9,3.9,0,0,1,3.9-3.9h35.1a3.9,3.9,0,0,1,3.9,3.9V30.2a15.24,15.24,0,0,0-9.75-2ZM18.22,41.75H28v-3.9H18.22Zm23.4-23.4H18.22v3.9h23.4Z"/></svg>