<svg id="图层_1" data-name="图层 1" xmlns="http://www.w3.org/2000/svg" viewBox="0 0 64 64"><defs><style>.cls-1{fill:#4c4c4c;}.cls-1,.cls-2{fill-rule:evenodd;}.cls-2{fill:#3f78bf;}</style></defs><title>icons</title><g id="_Group_" data-name="&lt;Group&gt;"><g id="_Group_2" data-name="&lt;Group&gt;"><g id="_Group_3" data-name="&lt;Group&gt;"><path id="_Compound_Path_" data-name="&lt;Compound Path&gt;" class="cls-1" d="M18.22,41.75H28v-3.9H18.22Zm0-9.75H33.28a15.52,15.52,0,0,1,8.34-3.77V28.1H18.22Zm0-9.75h23.4v-3.9H18.22ZM47.47,8.6H12.37a3.9,3.9,0,0,0-3.9,3.9V47.6a3.9,3.9,0,0,0,3.9,3.9h17.7a15.49,15.49,0,0,1-1.59-3.9H12.37V12.5h35.1V28.61a15.49,15.49,0,0,1,3.9,1.59V12.5A3.9,3.9,0,0,0,47.47,8.6Z"/></g></g><path id="_Compound_Path_2" data-name="&lt;Compound Path&gt;" class="cls-2" d="M53.89,46a2.37,2.37,0,0,0-1.4,3.29,2.41,2.41,0,0,1-2.22,3.44,2.56,2.56,0,0,1-1.07-.24,2.53,2.53,0,0,0-1.06-.23,2.47,2.47,0,0,0-2.33,1.6,2.5,2.5,0,0,1-4.66,0,2.47,2.47,0,0,0-2.33-1.6,2.53,2.53,0,0,0-1.06.23,2.55,2.55,0,0,1-1.07.24,2.41,2.41,0,0,1-2.22-3.44A2.37,2.37,0,0,0,33,46h0a2.37,2.37,0,0,1,0-4.52h0a2.37,2.37,0,0,0,1.4-3.29,2.41,2.41,0,0,1,2.22-3.44,2.55,2.55,0,0,1,1.07.24,2.53,2.53,0,0,0,1.06.23,2.47,2.47,0,0,0,2.33-1.6,2.5,2.5,0,0,1,4.66,0,2.47,2.47,0,0,0,2.33,1.6A2.53,2.53,0,0,0,49.19,35a2.56,2.56,0,0,1,1.07-.24,2.41,2.41,0,0,1,2.22,3.44,2.37,2.37,0,0,0,1.4,3.29A2.37,2.37,0,0,1,53.89,46ZM43.57,37.85a5.85,5.85,0,1,0,5.85,5.85A5.85,5.85,0,0,0,43.57,37.85Z"/></g></svg>