<svg id="图层_1" data-name="图层 1" xmlns="http://www.w3.org/2000/svg" viewBox="0 0 64 64"><defs><style>.cls-1{fill:#4c4c4c;}.cls-1,.cls-2{fill-rule:evenodd;}.cls-2{fill:#3f78bf;}</style></defs><title>icons</title><g id="_Group_" data-name="&lt;Group&gt;"><g id="_Group_2" data-name="&lt;Group&gt;"><g id="_Group_3" data-name="&lt;Group&gt;"><path id="_Compound_Path_" data-name="&lt;Compound Path&gt;" class="cls-1" d="M35.9,28.1H16.4V32H35.9Zm0,7.8H16.4v3.9H35.9Zm0,7.8H16.4v3.9H35.9Zm5.85-25.35H10.55a3.9,3.9,0,0,0-3.9,3.9v31.2a3.9,3.9,0,0,0,3.9,3.9h31.2a3.9,3.9,0,0,0,3.9-3.9V22.25A3.9,3.9,0,0,0,41.75,18.35Zm0,35.1H10.55V22.25h31.2Z"/></g></g><path id="_Compound_Path_2" data-name="&lt;Compound Path&gt;" class="cls-2" d="M53.45,45.65h-3.9v-3.9h3.9V10.55H22.25v3.9h-3.9v-3.9a3.9,3.9,0,0,1,3.9-3.9h31.2a3.9,3.9,0,0,1,3.9,3.9v31.2A3.9,3.9,0,0,1,53.45,45.65Z"/></g></svg>