<svg id="图层_1" data-name="图层 1" xmlns="http://www.w3.org/2000/svg" viewBox="0 0 64 64"><defs><style>.cls-1{fill:#3f78bf;fill-rule:evenodd;}</style></defs><title>icons</title><g id="_Group_" data-name="&lt;Group&gt;"><g id="_Group_2" data-name="&lt;Group&gt;"><path id="_Compound_Path_" data-name="&lt;Compound Path&gt;" class="cls-1" d="M41.76,18.35H10.56a3.9,3.9,0,0,0-3.9,3.9v31.2a3.9,3.9,0,0,0,3.9,3.9h31.2a3.9,3.9,0,0,0,3.9-3.9V22.25A3.9,3.9,0,0,0,41.76,18.35ZM35.91,47.6H16.41V43.7h19.5Zm0-7.8H16.41V35.9h19.5Zm0-7.8H16.41V28.1h19.5ZM53.46,6.65H22.26a3.9,3.9,0,0,0-3.9,3.9v3.9h31.2v31.2h3.9a3.9,3.9,0,0,0,3.9-3.9V10.55A3.9,3.9,0,0,0,53.46,6.65Z"/></g></g></svg>