<?xml version="1.0" encoding="utf-8"?>
<!-- Generator: Adobe Illustrator 21.1.0, SVG Export Plug-In . SVG Version: 6.00 Build 0)  -->
<svg version="1.1" id="图层_1" xmlns="http://www.w3.org/2000/svg" xmlns:xlink="http://www.w3.org/1999/xlink" x="0px" y="0px"
	 viewBox="0 0 64 64" style="enable-background:new 0 0 64 64;" xml:space="preserve">
<style type="text/css">
	.st0{fill-rule:evenodd;clip-rule:evenodd;fill:#3F78BF;}
	.st1{fill-rule:evenodd;clip-rule:evenodd;fill:#4C4C4C;}
</style>
<g>
	<path class="st0" d="M54.9,47.3c-1.3,0.5-2,1.9-1.4,3.2c0.8,1.6-0.5,3.3-2.1,3.3c-0.3,0-0.7-0.1-1-0.2c-0.3-0.2-0.7-0.2-1-0.2
		c-1,0-1.9,0.6-2.2,1.5c-0.4,1-1.3,1.5-2.2,1.5s-1.9-0.5-2.2-1.5c-0.3-1-1.3-1.5-2.2-1.5c-0.3,0-0.7,0.1-1,0.2
		c-0.3,0.2-0.7,0.2-1,0.2c-1.6,0-2.9-1.7-2.1-3.3c0.6-1.2,0-2.7-1.4-3.2h0c-2.1-0.7-2.1-3.6,0-4.3h0c1.3-0.5,2-1.9,1.4-3.2
		c-0.8-1.6,0.5-3.3,2.1-3.3c0.3,0,0.7,0.1,1,0.2c0.3,0.2,0.7,0.2,1,0.2c1,0,1.9-0.6,2.2-1.5c0.4-1,1.3-1.5,2.2-1.5s1.9,0.5,2.2,1.5
		c0.3,1,1.3,1.5,2.2,1.5c0.3,0,0.7-0.1,1-0.2c0.3-0.2,0.7-0.2,1-0.2c1.6,0,2.9,1.7,2.1,3.3c-0.6,1.2,0,2.7,1.4,3.2
		C57,43.7,57,46.6,54.9,47.3z M45,39.5c-3.1,0-5.6,2.5-5.6,5.6c0,3.1,2.5,5.6,5.6,5.6s5.6-2.5,5.6-5.6C50.6,42,48.1,39.5,45,39.5z"
		/>
	<path class="st0" d="M54.9,47.3c-1.3,0.5-2,1.9-1.4,3.2c0.8,1.6-0.5,3.3-2.1,3.3c-0.3,0-0.7-0.1-1-0.2c-0.3-0.2-0.7-0.2-1-0.2
		c-1,0-1.9,0.6-2.2,1.5c-0.4,1-1.3,1.5-2.2,1.5s-1.9-0.5-2.2-1.5c-0.3-1-1.3-1.5-2.2-1.5c-0.3,0-0.7,0.1-1,0.2
		c-0.3,0.2-0.7,0.2-1,0.2c-1.6,0-2.9-1.7-2.1-3.3c0.6-1.2,0-2.7-1.4-3.2h0c-2.1-0.7-2.1-3.6,0-4.3h0c1.3-0.5,2-1.9,1.4-3.2
		c-0.8-1.6,0.5-3.3,2.1-3.3c0.3,0,0.7,0.1,1,0.2c0.3,0.2,0.7,0.2,1,0.2c1,0,1.9-0.6,2.2-1.5c0.4-1,1.3-1.5,2.2-1.5s1.9,0.5,2.2,1.5
		c0.3,1,1.3,1.5,2.2,1.5c0.3,0,0.7-0.1,1-0.2c0.3-0.2,0.7-0.2,1-0.2c1.6,0,2.9,1.7,2.1,3.3c-0.6,1.2,0,2.7,1.4,3.2
		C57,43.7,57,46.6,54.9,47.3z M45,39.5c-3.1,0-5.6,2.5-5.6,5.6c0,3.1,2.5,5.6,5.6,5.6s5.6-2.5,5.6-5.6C50.6,42,48.1,39.5,45,39.5z"
		/>
	<g>
		<g>
			<path class="st1" d="M13.1,45.1H30c0-1.2,0.7-2.4,2-2.9h0c0.5-0.2,0.9-0.5,1.2-0.9H16.9V18.9h26.2v11.9c0.6-0.4,1.2-0.7,1.9-0.7
				c0.7,0,1.3,0.2,1.9,0.6V15.1H13.1V45.1z M48.7,7.6H11.2c-2.1,0-3.8,1.7-3.8,3.8v37.5c0,2.1,1.7,3.8,3.8,3.8h22.4
				c0-0.1,0.1-0.3,0.1-0.4c0.6-1.2,0.3-2.5-0.5-3.4h-22V11.4h37.5v22c0.6,0.5,1.3,0.8,2.1,0.8c0.4,0,0.9-0.1,1.3-0.3
				c0.1-0.1,0.2-0.1,0.4-0.1V11.4C52.5,9.3,50.8,7.6,48.7,7.6z"/>
		</g>
	</g>
</g>
</svg>
