<?xml version="1.0" encoding="utf-8"?>
<!-- Generator: Adobe Illustrator 21.1.0, SVG Export Plug-In . SVG Version: 6.00 Build 0)  -->
<svg version="1.1" id="图层_1" xmlns="http://www.w3.org/2000/svg" xmlns:xlink="http://www.w3.org/1999/xlink" x="0px" y="0px"
	 viewBox="0 0 64 64" style="enable-background:new 0 0 64 64;" xml:space="preserve">
<style type="text/css">
	.st0{fill-rule:evenodd;clip-rule:evenodd;fill:#3F78BF;}
	.st1{fill-rule:evenodd;clip-rule:evenodd;fill:#4C4C4C;}
</style>
<g>
	<g>
		<path class="st0" d="M41.4,18.9h-30c-2.1,0-3.8,1.7-3.8,3.8v30c0,2.1,1.7,3.8,3.8,3.8h30c2.1,0,3.8-1.7,3.8-3.8v-30
			C45.1,20.6,43.4,18.9,41.4,18.9z M35.8,47H17v-3.8h18.8V47z M35.8,39.5H17v-3.8h18.8V39.5z M35.8,32H17v-3.8h18.8V32z M52.6,7.6
			h-30c-2.1,0-3.8,1.7-3.8,3.8v3.8h30v30h3.8c2.1,0,3.8-1.7,3.8-3.8v-30C56.4,9.3,54.7,7.6,52.6,7.6z"/>
	</g>
</g>
</svg>
