<?xml version="1.0" encoding="utf-8"?>
<!-- Generator: Adobe Illustrator 21.1.0, SVG Export Plug-In . SVG Version: 6.00 Build 0)  -->
<svg version="1.1" id="图层_1" xmlns="http://www.w3.org/2000/svg" xmlns:xlink="http://www.w3.org/1999/xlink" x="0px" y="0px"
	 viewBox="0 0 64 64" style="enable-background:new 0 0 64 64;" xml:space="preserve">
<style type="text/css">
	.st0{fill-rule:evenodd;clip-rule:evenodd;fill:#3F78BF;}
	.st1{fill-rule:evenodd;clip-rule:evenodd;fill:#4C4C4C;}
</style>
<path class="st0" d="M53,45.4c-1.3,0.5-2,1.9-1.4,3.2c0.8,1.6-0.5,3.3-2.1,3.3c-0.3,0-0.7-0.1-1-0.2c-0.3-0.2-0.7-0.2-1-0.2
	c-1,0-1.9,0.6-2.2,1.5c-0.4,1-1.3,1.5-2.2,1.5S41.2,54,40.8,53c-0.3-1-1.3-1.5-2.2-1.5c-0.3,0-0.7,0.1-1,0.2c-0.3,0.2-0.7,0.2-1,0.2
	c-1.6,0-2.9-1.7-2.1-3.3c0.6-1.2,0-2.7-1.4-3.2h0c-2.1-0.7-2.1-3.6,0-4.3h0c1.3-0.5,2-1.9,1.4-3.2c-0.8-1.6,0.5-3.3,2.1-3.3
	c0.3,0,0.7,0.1,1,0.2c0.3,0.2,0.7,0.2,1,0.2c1,0,1.9-0.6,2.2-1.5c0.4-1,1.3-1.5,2.2-1.5s1.9,0.5,2.2,1.5c0.3,1,1.3,1.5,2.2,1.5
	c0.3,0,0.7-0.1,1-0.2c0.3-0.2,0.7-0.2,1-0.2c1.6,0,2.9,1.7,2.1,3.3c-0.6,1.2,0,2.7,1.4,3.2C55.2,41.8,55.2,44.7,53,45.4z M43.1,37.6
	c-3.1,0-5.6,2.5-5.6,5.6c0,3.1,2.5,5.6,5.6,5.6c3.1,0,5.6-2.5,5.6-5.6C48.8,40.1,46.2,37.6,43.1,37.6z M41.2,28.4v-0.1H18.7V32h14.5
	c-3.1,2.7-5.1,6.8-5.1,11.3c0,2.7,0.7,5.3,2,7.5h-17c-2.1,0-3.8-1.7-3.8-3.7V13.2c0-2.1,1.7-3.7,3.8-3.7h33.8c2.1,0,3.8,1.7,3.8,3.7
	v17c-2.2-1.3-4.8-2-7.5-2C42.5,28.2,41.9,28.3,41.2,28.4z M18.7,41.4h9.4v-3.7h-9.4V41.4z M41.2,18.9H18.7v3.7h22.5V18.9z"/>
</svg>
