<?xml version="1.0" encoding="utf-8"?>
<!-- Generator: Adobe Illustrator 21.1.0, SVG Export Plug-In . SVG Version: 6.00 Build 0)  -->
<svg version="1.1" id="图层_1" xmlns="http://www.w3.org/2000/svg" xmlns:xlink="http://www.w3.org/1999/xlink" x="0px" y="0px"
	 viewBox="0 0 64 64" style="enable-background:new 0 0 64 64;" xml:space="preserve">
<style type="text/css">
	.st0{fill-rule:evenodd;clip-rule:evenodd;fill:#3F78BF;}
	.st1{fill-rule:evenodd;clip-rule:evenodd;fill:#4C4C4C;}
</style>
<path class="st0" d="M50.8,47H33.9v3.8h5.6c1,0,1.9,0.8,1.9,1.9s-0.8,1.9-1.9,1.9h-15c-1,0-1.9-0.8-1.9-1.9s0.8-1.9,1.9-1.9h5.6V47
	H13.2c-2.1,0-3.7-1.7-3.7-3.8v-30c0-2.1,1.7-3.8,3.7-3.8h37.5c2.1,0,3.8,1.7,3.8,3.8v30C54.5,45.3,52.8,47,50.8,47z M41.9,26.1
	c-1.3-0.5-2-1.9-1.4-3.2c0.8-1.6-0.5-3.3-2.1-3.3c-0.3,0-0.7,0.1-1,0.2c-0.3,0.2-0.7,0.2-1,0.2c-1,0-1.9-0.6-2.2-1.5
	c-0.4-1-1.3-1.5-2.2-1.5s-1.9,0.5-2.2,1.5c-0.3,1-1.3,1.5-2.2,1.5c-0.3,0-0.7-0.1-1-0.2c-0.3-0.2-0.7-0.2-1-0.2
	c-1.6,0-2.9,1.7-2.1,3.3c0.6,1.2,0,2.7-1.4,3.2h0c-2.1,0.7-2.1,3.6,0,4.3h0c1.3,0.5,2,1.9,1.4,3.2c-0.8,1.6,0.5,3.3,2.1,3.3
	c0.3,0,0.7-0.1,1-0.2c0.3-0.2,0.7-0.2,1-0.2c1,0,1.9,0.6,2.2,1.5c0.4,1,1.3,1.5,2.2,1.5s1.9-0.5,2.2-1.5c0.3-1,1.3-1.5,2.2-1.5
	c0.3,0,0.7,0.1,1,0.2c0.3,0.2,0.7,0.2,1,0.2c1.6,0,2.9-1.7,2.1-3.3c-0.6-1.2,0-2.7,1.4-3.2C44,29.7,44,26.8,41.9,26.1z M32,33.9
	c-3.1,0-5.6-2.5-5.6-5.6c0-3.1,2.5-5.6,5.6-5.6s5.6,2.5,5.6,5.6C37.6,31.4,35.1,33.9,32,33.9z"/>
</svg>
