<?xml version="1.0" encoding="utf-8"?>
<!-- Generator: Adobe Illustrator 21.1.0, SVG Export Plug-In . SVG Version: 6.00 Build 0)  -->
<svg version="1.1" id="图层_1" xmlns="http://www.w3.org/2000/svg" xmlns:xlink="http://www.w3.org/1999/xlink" x="0px" y="0px"
	 viewBox="0 0 64 64" style="enable-background:new 0 0 64 64;" xml:space="preserve">
<style type="text/css">
	.st0{fill-rule:evenodd;clip-rule:evenodd;fill:#3F78BF;}
	.st1{fill-rule:evenodd;clip-rule:evenodd;fill:#4C4C4C;}
</style>
<g>
	<path class="st0" d="M53,45.4c-1.3,0.5-2,1.9-1.4,3.2c0.8,1.6-0.5,3.3-2.1,3.3c-0.3,0-0.7-0.1-1-0.2c-0.3-0.2-0.7-0.2-1-0.2
		c-1,0-1.9,0.6-2.2,1.5c-0.4,1-1.3,1.5-2.2,1.5S41.2,54,40.8,53c-0.3-1-1.3-1.5-2.2-1.5c-0.3,0-0.7,0.1-1,0.2
		c-0.3,0.2-0.7,0.2-1,0.2c-1.6,0-2.9-1.7-2.1-3.3c0.6-1.2,0-2.7-1.4-3.2h0c-2.1-0.7-2.1-3.6,0-4.3h0c1.3-0.5,2-1.9,1.4-3.2
		c-0.8-1.6,0.5-3.3,2.1-3.3c0.3,0,0.7,0.1,1,0.2c0.3,0.2,0.7,0.2,1,0.2c1,0,1.9-0.6,2.2-1.5c0.4-1,1.3-1.5,2.2-1.5s1.9,0.5,2.2,1.5
		c0.3,1,1.3,1.5,2.2,1.5c0.3,0,0.7-0.1,1-0.2c0.3-0.2,0.7-0.2,1-0.2c1.6,0,2.9,1.7,2.1,3.3c-0.6,1.2,0,2.7,1.4,3.2
		C55.2,41.8,55.2,44.7,53,45.4z M43.1,37.6c-3.1,0-5.6,2.5-5.6,5.6c0,3.1,2.5,5.6,5.6,5.6s5.6-2.5,5.6-5.6
		C48.8,40.1,46.2,37.6,43.1,37.6z"/>
	<g>
		<g>
			<path class="st1" d="M18.8,32h14.5c2.2-1.9,5-3.2,8-3.6v-0.1H18.8V32z M18.8,41.4h9.4v-3.7h-9.4V41.4z M46.9,9.5H13.1
				c-2.1,0-3.8,1.7-3.8,3.7V47c0,2.1,1.7,3.7,3.8,3.7h17c-0.7-1.2-1.2-2.4-1.5-3.7H13.1V13.2h33.8v15.5c1.3,0.3,2.6,0.9,3.8,1.5v-17
				C50.6,11.2,48.9,9.5,46.9,9.5z M18.8,22.6h22.5v-3.7H18.8V22.6z"/>
		</g>
	</g>
</g>
</svg>
