<?xml version="1.0" encoding="utf-8"?>
<!-- Generator: Adobe Illustrator 21.1.0, SVG Export Plug-In . SVG Version: 6.00 Build 0)  -->
<svg version="1.1" id="图层_1" xmlns="http://www.w3.org/2000/svg" xmlns:xlink="http://www.w3.org/1999/xlink" x="0px" y="0px"
	 viewBox="0 0 64 64" style="enable-background:new 0 0 64 64;" xml:space="preserve">
<style type="text/css">
	.st0{fill-rule:evenodd;clip-rule:evenodd;fill:#3F78BF;}
	.st1{fill-rule:evenodd;clip-rule:evenodd;fill:#4C4C4C;}
</style>
<g>
	<path class="st0" d="M52.6,45.1h-3.8v-3.8h3.8v-30h-30v3.7h-3.7v-3.7c0-2.1,1.7-3.8,3.7-3.8h30c2.1,0,3.8,1.7,3.8,3.8v30
		C56.4,43.4,54.7,45.1,52.6,45.1z"/>
	<g>
		<g>
			<path class="st1" d="M35.8,28.3H17V32h18.8V28.3z M35.8,35.8H17v3.8h18.8V35.8z M35.8,43.3H17V47h18.8V43.3z M41.4,18.9h-30
				c-2.1,0-3.7,1.7-3.7,3.8v30c0,2.1,1.7,3.8,3.7,3.8h30c2.1,0,3.8-1.7,3.8-3.8v-30C45.1,20.6,43.4,18.9,41.4,18.9z M41.4,52.6h-30
				v-30h30V52.6z"/>
		</g>
	</g>
</g>
</svg>
