<?xml version="1.0" encoding="utf-8"?>
<!-- Generator: Adobe Illustrator 21.1.0, SVG Export Plug-In . SVG Version: 6.00 Build 0)  -->
<svg version="1.1" id="图层_1" xmlns="http://www.w3.org/2000/svg" xmlns:xlink="http://www.w3.org/1999/xlink" x="0px" y="0px"
	 viewBox="0 0 64 64" style="enable-background:new 0 0 64 64;" xml:space="preserve">
<style type="text/css">
	.st0{fill-rule:evenodd;clip-rule:evenodd;fill:#3F78BF;}
	.st1{fill-rule:evenodd;clip-rule:evenodd;fill:#4C4C4C;}
</style>
<g>
	<path class="st0" d="M41.9,30.4c-1.3,0.5-2,1.9-1.4,3.2c0.8,1.6-0.5,3.3-2.1,3.3c-0.3,0-0.7-0.1-1-0.2c-0.3-0.2-0.7-0.2-1-0.2
		c-1,0-1.9,0.6-2.2,1.5c-0.4,1-1.3,1.5-2.2,1.5C31,39.5,30,39,29.7,38c-0.3-1-1.3-1.5-2.2-1.5c-0.3,0-0.7,0.1-1,0.2
		c-0.3,0.2-0.7,0.2-1,0.2c-1.6,0-2.9-1.7-2.1-3.3c0.6-1.2,0-2.7-1.4-3.2h0c-2.1-0.7-2.1-3.6,0-4.3h0c1.3-0.5,2-1.9,1.4-3.2
		c-0.8-1.6,0.5-3.3,2.1-3.3c0.3,0,0.7,0.1,1,0.2c0.3,0.2,0.7,0.2,1,0.2c1,0,1.9-0.6,2.2-1.5c0.4-1,1.3-1.5,2.2-1.5
		c0.9,0,1.9,0.5,2.2,1.5c0.3,1,1.3,1.5,2.2,1.5c0.3,0,0.7-0.1,1-0.2c0.3-0.2,0.7-0.2,1-0.2c1.6,0,2.9,1.7,2.1,3.3
		c-0.6,1.2,0,2.7,1.4,3.2C44,26.8,44,29.7,41.9,30.4z M32,22.6c-3.1,0-5.6,2.5-5.6,5.6c0,3.1,2.5,5.6,5.6,5.6c3.1,0,5.6-2.5,5.6-5.6
		C37.6,25.1,35.1,22.6,32,22.6z"/>
	<g>
		<g>
			<path class="st1" d="M50.7,9.5H13.2c-2.1,0-3.8,1.7-3.8,3.8v30c0,2.1,1.7,3.8,3.8,3.8h16.9v3.8h-5.6c-1,0-1.9,0.8-1.9,1.9
				s0.8,1.9,1.9,1.9h15c1,0,1.9-0.8,1.9-1.9s-0.8-1.9-1.9-1.9h-5.6V47h16.9c2.1,0,3.8-1.7,3.8-3.8v-30C54.5,11.2,52.8,9.5,50.7,9.5z
				 M50.7,43.2H13.2v-30h37.5V43.2z"/>
		</g>
	</g>
</g>
</svg>
