<?xml version="1.0" encoding="utf-8"?>
<!-- Generator: Adobe Illustrator 21.1.0, SVG Export Plug-In . SVG Version: 6.00 Build 0)  -->
<svg version="1.1" id="图层_1" xmlns="http://www.w3.org/2000/svg" xmlns:xlink="http://www.w3.org/1999/xlink" x="0px" y="0px"
	 viewBox="0 0 64 64" style="enable-background:new 0 0 64 64;" xml:space="preserve">
<style type="text/css">
	.st0{fill-rule:evenodd;clip-rule:evenodd;fill:#3F78BF;}
	.st1{fill-rule:evenodd;clip-rule:evenodd;fill:#4C4C4C;}
</style>
<g>
	<g>
		<path class="st0" d="M32.1,48L32.1,48c-1.4-0.5-2-1.7-2-2.9H13.1v-30h33.7v15.6c0.4,0.3,0.8,0.8,1,1.4c0.5,1.3,1.6,2,2.9,2
			c0.4,0,0.9-0.1,1.3-0.3c0.1-0.1,0.2-0.1,0.4-0.1V11.4c0-2.1-1.7-3.7-3.8-3.7H11.3c-2.1,0-3.8,1.7-3.8,3.7v37.5
			c0,2.1,1.7,3.8,3.8,3.8h22.4c0-0.1,0.1-0.3,0.1-0.4C34.6,50.6,33.8,48.6,32.1,48z M36.6,33.6c0.4,0,0.9,0.1,1.3,0.3
			c0.4,0.2,0.9,0.3,1.3,0.3c1.3,0,2.4-0.8,2.9-2c0.2-0.6,0.6-1,1-1.4V18.9H16.9v22.5h16.4c0.8-0.9,1.1-2.2,0.5-3.4
			C32.8,35.8,34.5,33.6,36.6,33.6z M54.9,43c-1.3-0.5-2-1.9-1.4-3.2c0.8-1.6-0.5-3.3-2.1-3.3c-0.3,0-0.7,0.1-1,0.2
			c-0.3,0.2-0.7,0.2-1,0.2c-1,0-1.9-0.6-2.2-1.5c-0.4-1-1.3-1.5-2.2-1.5c-0.9,0-1.9,0.5-2.2,1.5c-0.3,1-1.3,1.5-2.2,1.5
			c-0.3,0-0.7-0.1-1-0.2c-0.3-0.2-0.7-0.2-1-0.2c-1.6,0-2.9,1.7-2.1,3.3c0.6,1.2,0,2.7-1.4,3.2h0c-2.1,0.7-2.1,3.6,0,4.3h0
			c1.3,0.5,2,1.9,1.4,3.2c-0.8,1.6,0.5,3.3,2.1,3.3c0.3,0,0.7-0.1,1-0.2c0.3-0.2,0.7-0.2,1-0.2c1,0,1.9,0.6,2.2,1.5
			c0.4,1,1.3,1.5,2.2,1.5c0.9,0,1.9-0.5,2.2-1.5c0.3-1,1.3-1.5,2.2-1.5c0.3,0,0.7,0.1,1,0.2c0.3,0.2,0.7,0.2,1,0.2
			c1.6,0,2.9-1.7,2.1-3.3c-0.6-1.2,0-2.7,1.4-3.2C57,46.6,57,43.7,54.9,43z M45,50.8c-3.1,0-5.6-2.5-5.6-5.6c0-3.1,2.5-5.6,5.6-5.6
			c3.1,0,5.6,2.5,5.6,5.6C50.6,48.2,48.1,50.8,45,50.8z"/>
	</g>
</g>
</svg>
