<?xml version="1.0" encoding="iso-8859-1"?>
<!-- Generator: Adobe Illustrator 19.0.0, SVG Export Plug-In . SVG Version: 6.00 Build 0)  -->
<svg version="1.1" id="&#x56FE;&#x5C42;_1" xmlns="http://www.w3.org/2000/svg" xmlns:xlink="http://www.w3.org/1999/xlink" x="0px"
	 y="0px" viewBox="0 0 181.42 181.42" style="enable-background:new 0 0 181.42 181.42;" xml:space="preserve">
<g id="XMLID_342_">
	<path id="XMLID_372_" style="fill-rule:evenodd;clip-rule:evenodd;fill:#DDEAF7;" d="M131.194,54.578h-3.14v2.784
		c0,6.338-5.138,11.475-11.475,11.475H53.172C55.228,70.786,57.989,72,61.046,72h61.542c6.337,0,11.475-5.138,11.475-11.475v-3.078
		C134.063,55.862,132.778,54.578,131.194,54.578z"/>
	<path id="XMLID_369_" style="fill:#3F71B2;" d="M121.48,76.27H59.938c-7.721,0-14.005-6.281-14.005-14.005v-3.079
		c0-2.98,2.421-5.401,5.399-5.401h78.756c2.977,0,5.399,2.421,5.399,5.401v3.079C135.487,69.989,129.203,76.27,121.48,76.27z
		 M51.332,58.846l-0.339,3.42c0,4.932,4.013,8.944,8.944,8.944h61.542c4.934,0,8.947-4.013,8.947-8.944v-3.079L51.332,58.846z"/>
	<path id="XMLID_366_" style="fill:#3F71B2;" d="M102.632,113.071H78.788V71.857h23.844V113.071z M83.848,108.011h13.723V76.918
		H83.848V108.011z"/>
	<polygon id="XMLID_365_" style="fill:#3F71B2;" points="106.442,146.126 101.382,146.126 101.382,112.197 80.038,112.197 
		80.038,146.126 74.978,146.126 74.978,107.136 106.442,107.136 	"/>
	<path id="XMLID_364_" style="fill:#3F71B2;" d="M138.855,161.485h-5.06c0-7.151-17.694-15.117-43.084-15.117
		s-43.084,7.966-43.084,15.117h-5.06c0-11.504,20.698-20.177,48.145-20.177S138.855,149.981,138.855,161.485z"/>
	<g id="XMLID_361_">
		
			<line id="XMLID_363_" style="fill-rule:evenodd;clip-rule:evenodd;fill:#E4EFFA;" x1="39.408" y1="161.605" x2="142.011" y2="161.605"/>
		<path id="XMLID_362_" style="fill:#3F71B2;" d="M142.012,164.134H39.408c-1.399,0-2.53-1.132-2.53-2.53
			c0-1.398,1.132-2.53,2.53-2.53h102.605c1.398,0,2.53,1.132,2.53,2.53C144.543,163.002,143.411,164.134,142.012,164.134z"/>
	</g>
	<g id="XMLID_358_">
		
			<line id="XMLID_360_" style="fill-rule:evenodd;clip-rule:evenodd;fill:#E4EFFA;" x1="44.88" y1="163.502" x2="44.88" y2="171.831"/>
		<path id="XMLID_359_" style="fill:#3F71B2;" d="M44.881,174.363c-1.399,0-2.53-1.132-2.53-2.53v-8.332
			c0-1.398,1.132-2.53,2.53-2.53c1.399,0,2.53,1.132,2.53,2.53v8.332C47.411,173.232,46.279,174.363,44.881,174.363z"/>
	</g>
	<g id="XMLID_355_">
		
			<line id="XMLID_357_" style="fill-rule:evenodd;clip-rule:evenodd;fill:#E4EFFA;" x1="136.539" y1="160.972" x2="136.539" y2="171.831"/>
		<path id="XMLID_356_" style="fill:#3F71B2;" d="M136.539,174.363c-1.399,0-2.53-1.132-2.53-2.53v-10.862
			c0-1.398,1.132-2.53,2.53-2.53c1.398,0,2.53,1.132,2.53,2.53v10.862C139.07,173.232,137.938,174.363,136.539,174.363z"/>
	</g>
	<g id="XMLID_350_">
		
			<rect id="XMLID_354_" x="57.607" y="8.322" style="fill-rule:evenodd;clip-rule:evenodd;fill:#E4EFFA;" width="66.206" height="40.333"/>
		<path id="XMLID_351_" style="fill:#3F71B2;" d="M125.077,49.921H56.343V7.057h68.734V49.921z M58.873,47.391h63.674V9.587H58.873
			V47.391z"/>
	</g>
	<g id="XMLID_343_">
		<g id="XMLID_347_">
			
				<line id="XMLID_349_" style="fill-rule:evenodd;clip-rule:evenodd;fill:#E4EFFA;" x1="90.71" y1="23.676" x2="90.71" y2="34.64"/>
			<path id="XMLID_348_" style="fill:#3F71B2;" d="M90.71,35.906c-0.699,0-1.265-0.568-1.265-1.265V23.676
				c0-0.697,0.566-1.265,1.265-1.265s1.265,0.568,1.265,1.265v10.966C91.975,35.338,91.409,35.906,90.71,35.906z"/>
		</g>
		<g id="XMLID_344_">
			
				<line id="XMLID_346_" style="fill-rule:evenodd;clip-rule:evenodd;fill:#E4EFFA;" x1="96.192" y1="29.158" x2="85.228" y2="29.158"/>
			<path id="XMLID_345_" style="fill:#3F71B2;" d="M96.193,30.421H85.227c-0.699,0-1.265-0.568-1.265-1.265s0.566-1.265,1.265-1.265
				h10.966c0.699,0,1.265,0.568,1.265,1.265S96.892,30.421,96.193,30.421z"/>
		</g>
	</g>
</g>
</svg>
