<?xml version="1.0" encoding="utf-8"?>
<!-- Generator: Adobe Illustrator 19.0.0, SVG Export Plug-In . SVG Version: 6.00 Build 0)  -->
<svg version="1.1" id="图层_1" xmlns="http://www.w3.org/2000/svg" xmlns:xlink="http://www.w3.org/1999/xlink" x="0px" y="0px"
	 viewBox="-58 59.4 64 64" style="enable-background:new -58 59.4 64 64;" xml:space="preserve">
<style type="text/css">
	.st0{fill:#DAEBF8;stroke:#3E71B1;stroke-miterlimit:10;}
	.st1{fill:none;stroke:#3C6BA6;stroke-width:2;stroke-linecap:round;stroke-miterlimit:10;}
	.st2{fill:none;stroke:#3C6BA6;stroke-linecap:round;stroke-miterlimit:10;}
	.st3{fill:none;stroke:#3C6BA6;stroke-miterlimit:10;}
	.st4{fill:#FFFFFF;stroke:#3C6BA6;stroke-linecap:round;stroke-miterlimit:10;}
</style>
<g>
	<path id="XMLID_1918_" class="st0" d="M-2,102.2c-0.1-0.5-0.6-0.8-1.1-0.8c-1.1,0.1-2.1-0.5-2.7-1.5c-0.6-1-0.5-2.2,0.1-3.1
		c0.3-0.4,0.2-1-0.2-1.3c-0.9-0.7-1.9-1.3-2.9-1.7c-0.5-0.2-1,0.1-1.2,0.5c-0.5,0.9-1.5,1.6-2.6,1.6c-1.2,0-2.1-0.7-2.6-1.6
		c-0.2-0.5-0.7-0.7-1.2-0.5c-1.1,0.4-2.1,1-2.9,1.7c-0.4,0.3-0.4,0.9-0.2,1.3c0.6,0.9,0.7,2.1,0.1,3.1c-0.6,1-1.6,1.5-2.7,1.5
		c-0.5,0-1,0.3-1.1,0.8c-0.1,0.6-0.1,1.1-0.1,1.7s0.1,1.2,0.1,1.7c0.1,0.5,0.6,0.8,1.1,0.8c1.1-0.1,2.1,0.5,2.7,1.5
		c0.6,1,0.5,2.2-0.1,3.1c-0.3,0.4-0.2,1,0.2,1.3c0.9,0.7,1.9,1.3,2.9,1.7c0.5,0.2,1-0.1,1.2-0.5c0.5-0.9,1.5-1.6,2.6-1.6
		c1.2,0,2.1,0.7,2.6,1.6c0.2,0.5,0.7,0.7,1.2,0.5c1.1-0.4,2.1-1,2.9-1.7c0.4-0.3,0.4-0.9,0.2-1.3c-0.6-0.9-0.7-2.1-0.1-3.1
		c0.6-1,1.6-1.5,2.7-1.5c0.5,0,1-0.3,1.1-0.8c0.1-0.6,0.1-1.1,0.1-1.7C-1.8,103.3-1.9,102.7-2,102.2z"/>
	<path id="XMLID_1917_" class="st1" d="M-23.7,111.3c-1.2,0.2-2.4,0.3-3.7,0.3c-11.9,0-21.6-9.7-21.6-21.6s9.7-21.6,21.6-21.6
		S-5.8,78.1-5.8,90c0,0.4,0,0.8,0,1.1"/>
	<path id="XMLID_1916_" class="st2" d="M-27.3,111.1c-5.5,0-10-9.4-10-21.1s4.5-21.1,10-21.1c5.4,0,9.9,9.2,10,20.6
		c0,0.2,0,1.2,0,1.3"/>
	<line id="XMLID_1915_" class="st2" x1="-48.9" y1="90" x2="-5.8" y2="90"/>
	<line id="XMLID_1914_" class="st3" x1="-46.2" y1="79.9" x2="-8.5" y2="79.9"/>
	<line id="XMLID_1913_" class="st2" x1="-46.2" y1="100.2" x2="-26.7" y2="100.2"/>
	<circle id="XMLID_1204_" class="st4" cx="-12.6" cy="103.9" r="3.7"/>
	<path id="XMLID_1929_" class="st0" d="M-36.1,79.9c0,0,1.7-7.4,7-10.7c-2.7-0.4-12.4,1.9-17.2,10.7H-36.1z"/>
</g>
</svg>
