<?xml version="1.0" encoding="iso-8859-1"?>
<!-- Generator: Adobe Illustrator 19.0.0, SVG Export Plug-In . SVG Version: 6.00 Build 0)  -->
<svg version="1.1" id="&#x56FE;&#x5C42;_1" xmlns="http://www.w3.org/2000/svg" xmlns:xlink="http://www.w3.org/1999/xlink" x="0px"
	 y="0px" viewBox="0 0 181.42 181.42" style="enable-background:new 0 0 181.42 181.42;" xml:space="preserve">
<g id="XMLID_139_">
	<path id="XMLID_171_" style="fill:#CCCCCC;" d="M90.709,75.213c-15.683,0-28.44-12.759-28.44-28.44s12.757-28.44,28.44-28.44
		s28.44,12.759,28.44,28.44S106.391,75.213,90.709,75.213z M90.709,20.864c-14.286,0-25.909,11.623-25.909,25.909
		s11.623,25.909,25.909,25.909s25.909-11.623,25.909-25.909S104.995,20.864,90.709,20.864z"/>
	<path id="XMLID_170_" style="fill:#CCCCCC;" d="M90.948,176.039c-11.452,0-20.77-9.315-20.77-20.77
		c0-11.03,8.641-20.078,19.505-20.735v-4.838h2.53v7.329h-1.265c-10.056,0-18.24,8.183-18.24,18.245
		c0,10.056,8.183,18.24,18.24,18.24c7.133,0,13.654-4.196,16.612-10.694l2.303,1.048C106.495,171.26,99.07,176.039,90.948,176.039z"
		/>
	<path id="XMLID_169_" style="fill-rule:evenodd;clip-rule:evenodd;fill:#F2F2F2;" d="M91.145,7.911
		c-1.643,0-3.256,0.119-4.849,0.303c20.815,2.407,36.983,20.069,36.983,41.529v56.664c0,12.058-5.162,22.859-13.328,30.489
		c1.525,1.345,2.921,2.834,4.132,4.473c11.373-7.477,18.895-20.334,18.895-34.962V49.743C132.978,26.64,114.249,7.911,91.145,7.911z
		"/>
	<path id="XMLID_166_" style="fill:#CCCCCC;" d="M113.038,144.797l-1.423-1.927c-4.974-6.726-12.591-10.58-20.906-10.58
		c-8.312,0-15.93,3.855-20.903,10.58l-1.423,1.927l-2.001-1.314c-12.545-8.248-20.034-22.109-20.034-37.078V49.743
		c0-24.461,19.9-44.362,44.362-44.362s44.364,19.9,44.364,44.362v56.662c0,14.968-7.489,28.83-20.034,37.078L113.038,144.797z
		 M90.709,127.229c9.113,0,17.523,3.874,23.434,10.709c9.98-7.418,15.87-19.04,15.87-31.533V49.743
		c0-21.669-17.632-39.301-39.304-39.301S51.407,28.074,51.407,49.743v56.662c0,12.493,5.891,24.116,15.87,31.533
		C73.188,131.104,81.599,127.229,90.709,127.229z"/>
	<g id="XMLID_144_">
		<circle id="XMLID_164_" style="fill-rule:evenodd;clip-rule:evenodd;fill:#F2F2F2;" cx="90.709" cy="103.399" r="12.347"/>
		<path id="XMLID_145_" style="fill:#CCCCCC;" d="M90.709,117.01c-7.506,0-13.612-6.103-13.612-13.609
			c0-7.506,6.105-13.614,13.612-13.614c7.506,0,13.612,6.108,13.612,13.614C104.321,110.907,98.215,117.01,90.709,117.01z
			 M90.709,92.316c-6.11,0-11.082,4.971-11.082,11.084c0,6.108,4.971,11.079,11.082,11.079c6.11,0,11.082-4.971,11.082-11.079
			C101.791,97.287,96.819,92.316,90.709,92.316z"/>
	</g>
</g>
</svg>
