<svg id="图层_1" data-name="图层 1" xmlns="http://www.w3.org/2000/svg" viewBox="0 0 64 64"><defs><style>.cls-1{fill:#66a9fc;}.cls-1,.cls-2{stroke:#3f78bf;stroke-miterlimit:10;fill-rule:evenodd;}.cls-2{fill:none;}</style></defs><title>svg图标</title><g id="_Group_" data-name="&lt;Group&gt;"><g id="_Group_2" data-name="&lt;Group&gt;"><path id="_Compound_Path_" data-name="&lt;Compound Path&gt;" class="cls-1" d="M50.19,43.93a3.62,3.62,0,0,1-1.57,3h0a27.49,27.49,0,0,1-33.13.73,3.59,3.59,0,0,1-1-5.24,20.49,20.49,0,0,1,34.95-.61A3.59,3.59,0,0,1,50.19,43.93Z"/></g><path id="_Compound_Path_2" data-name="&lt;Compound Path&gt;" class="cls-2" d="M22.71,19.1s5.59,2.56,9.61,2.56S41.64,19,41.64,19"/><path id="_Compound_Path_3" data-name="&lt;Compound Path&gt;" class="cls-2" d="M23.7,16.25A28.38,28.38,0,0,0,32.32,18a20.82,20.82,0,0,0,8.16-2.12"/><path id="_Compound_Path_4" data-name="&lt;Compound Path&gt;" class="cls-2" d="M32.19,11.16a9.63,9.63,0,1,1-9.63,9.63A9.63,9.63,0,0,1,32.19,11.16Z"/></g></svg>