<svg id="图层_1" data-name="图层 1" xmlns="http://www.w3.org/2000/svg" viewBox="0 0 64 64"><defs><style>.cls-1{fill:none;}.cls-1,.cls-2,.cls-3{stroke:#3f78bf;stroke-miterlimit:10;fill-rule:evenodd;}.cls-2{fill:#fff;}.cls-3{fill:#66a9fc;}</style></defs><title>svg图标</title><g id="_Group_" data-name="&lt;Group&gt;"><path id="_Compound_Path_" data-name="&lt;Compound Path&gt;" class="cls-1" d="M13.59,32.71a18.41,18.41,0,1,1,36.83,0"/><path id="_Compound_Path_2" data-name="&lt;Compound Path&gt;" class="cls-2" d="M36.25,25.63H49A1.42,1.42,0,0,1,50.41,27v5.67H34.83V27A1.42,1.42,0,0,1,36.25,25.63Z"/><path id="_Compound_Path_3" data-name="&lt;Compound Path&gt;" class="cls-2" d="M15,25.63H27.75A1.42,1.42,0,0,1,29.17,27v5.67H13.59V27A1.42,1.42,0,0,1,15,25.63Z"/><path class="cls-3" d="M15,45.46a1.42,1.42,0,0,1,1.42,1.42v1.42a1.42,1.42,0,1,1-2.83,0V46.87A1.42,1.42,0,0,1,15,45.46Z"/><path class="cls-3" d="M49,45.46a1.42,1.42,0,0,1,1.42,1.42v1.42a1.42,1.42,0,1,1-2.83,0V46.87A1.42,1.42,0,0,1,49,45.46Z"/><path class="cls-3" d="M10.75,31.29H53.25a1.42,1.42,0,0,1,1.42,1.42V45.46a1.42,1.42,0,0,1-1.42,1.42H10.75a1.42,1.42,0,0,1-1.42-1.42V32.71A1.42,1.42,0,0,1,10.75,31.29Z"/></g></svg>