<?xml version="1.0" encoding="utf-8"?>
<!-- Generator: Adobe Illustrator 19.0.0, SVG Export Plug-In . SVG Version: 6.00 Build 0)  -->
<svg version="1.1" id="图层_1" xmlns="http://www.w3.org/2000/svg" xmlns:xlink="http://www.w3.org/1999/xlink" x="0px" y="0px"
	 viewBox="-58 59.4 64 64" style="enable-background:new -58 59.4 64 64;" xml:space="preserve">
<style type="text/css">
	.st0{fill:#DAEBF8;}
	.st1{fill:none;stroke:#3E71B1;stroke-width:2;stroke-linecap:round;stroke-miterlimit:10;}
	.st2{fill:#DAEBF8;stroke:#3E71B1;stroke-miterlimit:10;}
	.st3{fill:none;stroke:#3C6BA6;stroke-width:2;stroke-miterlimit:10;}
</style>
<polyline id="XMLID_454_" class="st0" points="-40.4,73.8 -50.9,73.8 -50.9,84.2 "/>
<path id="XMLID_453_" class="st1" d="M-51.9,106.2V74.8c0-1.1,0.9-2,2-2h36h11.1c1.1,0,2,0.9,2,2v31.4c0,1.1-0.9,2-2,2h-47
	C-51,108.2-51.9,107.3-51.9,106.2z"/>
<line id="XMLID_450_" class="st1" x1="-37.1" y1="114.5" x2="-15.6" y2="114.5"/>
<g id="XMLID_441_">
	<rect id="XMLID_425_" x="-43" y="82.3" class="st2" width="19.4" height="16.3"/>
	<path id="XMLID_439_" class="st3" d="M-14.2,98.7H-42c-0.6,0-1-0.4-1-1V83.3c0-0.6,0.4-1,1-1h27.8c0.6,0,1,0.4,1,1v14.3
		C-13.2,98.2-13.7,98.7-14.2,98.7z"/>
	<path id="XMLID_440_" class="st3" d="M-10.7,93.3h-2.5v-5.5h2.5c0.6,0,1,0.4,1,1v3.5C-9.7,92.8-10.1,93.3-10.7,93.3z"/>
</g>
</svg>
