<?xml version="1.0" encoding="utf-8"?>
<!-- Generator: Adobe Illustrator 19.0.0, SVG Export Plug-In . SVG Version: 6.00 Build 0)  -->
<svg version="1.1" id="图层_1" xmlns="http://www.w3.org/2000/svg" xmlns:xlink="http://www.w3.org/1999/xlink" x="0px" y="0px"
	 viewBox="0 0 64 64" style="enable-background:new 0 0 64 64;" xml:space="preserve">
<style type="text/css">
	.st0{fill:#66A9FC;stroke:#3F78BF;stroke-miterlimit:10;}
	.st1{fill:none;stroke:#3F78BF;stroke-miterlimit:10;}
	.st2{fill:none;stroke:#3F78BF;stroke-linecap:round;stroke-miterlimit:10;}
	.st3{fill-rule:evenodd;clip-rule:evenodd;fill:#66A9FC;stroke:#3F78BF;stroke-miterlimit:10;}
</style>
<title>svg图标</title>
<g id="_Group_">
	<g id="_Group_2">
		<path id="_Path_" class="st0" d="M54.3,27h-9.2v-0.4c0-1-0.8-1.8-1.8-1.8l0,0H30.2c-1,0-1.8,0.8-1.8,1.8V31c0,1,0.8,1.8,1.8,1.8h0
			h24.2c0.6,0,1.1-0.5,1.1-1.1V28C55.4,27.5,54.9,27,54.3,27z"/>
		<path id="_Compound_Path_" class="st0" d="M22.8,24.8c2.2,0,4,1.8,4,4s-1.8,4-4,4s-4-1.8-4-4S20.6,24.8,22.8,24.8z"/>
	</g>
	<path id="_Path_2" class="st1" d="M54.7,35.3H17.4V24.9c0-0.4-0.4-0.7-0.7-0.6H9.3c-0.4,0-0.7,0.3-0.7,0.6V49
		c0,0.4,0.4,0.7,0.7,0.7h7.3c0.4,0,0.7-0.3,0.7-0.7v-6.5h29.3V49c0,0.4,0.4,0.7,0.7,0.7h7.3c0.4,0,0.7-0.3,0.7-0.7V36
		C55.4,35.6,55.1,35.3,54.7,35.3C54.7,35.3,54.7,35.3,54.7,35.3z"/>
	<path id="_Compound_Path_2" class="st2" d="M29.4,18.2l2.6,2l2.6-2"/>
	<path id="_Compound_Path_3" class="st2" d="M32,14.3v5.9"/>
</g>
<path id="XMLID_1596_" class="st3" d="M36.5,14.8c0,0,3.8,2.7,5,7.2c1.2,4.5,0,10.8,0,10.8h8.4c0,0,0.4-6.7-1.7-10.8
	C43.5,13,36.5,14.8,36.5,14.8z"/>
</svg>
