<?xml version="1.0" encoding="utf-8"?>
<!-- Generator: Adobe Illustrator 19.0.0, SVG Export Plug-In . SVG Version: 6.00 Build 0)  -->
<svg version="1.1" id="图层_1" xmlns="http://www.w3.org/2000/svg" xmlns:xlink="http://www.w3.org/1999/xlink" x="0px" y="0px"
	 viewBox="-58 59.4 64 64" style="enable-background:new -58 59.4 64 64;" xml:space="preserve">
<style type="text/css">
	.st0{fill:#DAEBF8;}
	.st1{fill:none;stroke:#3E71B1;stroke-width:2;stroke-linecap:round;stroke-miterlimit:10;}
	.st2{fill:none;stroke:#3E71B1;stroke-linecap:round;stroke-miterlimit:10;}
	.st3{fill:#DAEBF8;stroke:#3E71B1;stroke-miterlimit:10;}
</style>
<g>
	<polyline id="XMLID_1925_" class="st0" points="-38.9,74.4 -49.3,74.4 -49.3,84.8 	"/>
	<path id="XMLID_1924_" class="st1" d="M-50.2,107.2V75.8c0-1.1,0.9-2,2-2h36h10.1c1.1,0,2,0.9,2,2v31.4c0,1.1-0.9,2-2,2h-46
		C-49.3,109.2-50.2,108.3-50.2,107.2z"/>
	<line id="XMLID_1923_" class="st1" x1="-36.4" y1="115.2" x2="-14.9" y2="115.2"/>
	<path id="XMLID_1101_" class="st2" d="M-27.4,89.8h-6c-0.6,0-1-0.4-1-1v-6c0-0.6,0.4-1,1-1h6c0.6,0,1,0.4,1,1v6
		C-26.4,89.3-26.8,89.8-27.4,89.8z"/>
	<path id="XMLID_1053_" class="st2" d="M-14.7,89.8h-6c-0.6,0-1-0.4-1-1v-6c0-0.6,0.4-1,1-1h6c0.6,0,1,0.4,1,1v6
		C-13.7,89.3-14.2,89.8-14.7,89.8z"/>
	<path id="XMLID_689_" class="st3" d="M-13.2,97.9l-3.8,3.8c-0.4,0.4-1,0.4-1.4,0l-3.8-3.8c-0.4-0.4-0.4-1,0-1.4l3.8-3.8
		c0.4-0.4,1-0.4,1.4,0l3.8,3.8C-12.8,96.9-12.8,97.5-13.2,97.9z"/>
	<path id="XMLID_688_" class="st2" d="M-27.4,100.9h-6c-0.6,0-1-0.4-1-1v-6c0-0.6,0.4-1,1-1h6c0.6,0,1,0.4,1,1v6
		C-26.4,100.5-26.8,100.9-27.4,100.9z"/>
</g>
</svg>
