<?xml version="1.0" encoding="utf-8"?>
<!-- Generator: Adobe Illustrator 19.0.0, SVG Export Plug-In . SVG Version: 6.00 Build 0)  -->
<svg version="1.1" id="图层_1" xmlns="http://www.w3.org/2000/svg" xmlns:xlink="http://www.w3.org/1999/xlink" x="0px" y="0px"
	 viewBox="-58 59.4 64 64" style="enable-background:new -58 59.4 64 64;" xml:space="preserve">
<style type="text/css">
	.st0{fill:#DAEBF8;stroke:#3E71B1;stroke-width:2;stroke-miterlimit:10;}
	.st1{fill:none;stroke:#3E71B1;stroke-width:2;stroke-linecap:round;stroke-miterlimit:10;}
	.st2{fill:#DAEBF8;}
	.st3{fill:none;stroke:#3E71B1;stroke-width:2;stroke-miterlimit:10;}
</style>
<g>
	<path id="XMLID_682_" class="st0" d="M-5.8,112.1h-14.5c-0.6,0-1-0.4-1-1V96.6c0-0.6,0.4-1,1-1h14.5c0.6,0,1,0.4,1,1v14.5
		C-4.8,111.7-5.2,112.1-5.8,112.1z"/>
	<path id="XMLID_680_" class="st0" d="M-26.9,81.8l-9,9c-0.4,0.4-1,0.4-1.4,0l-9-9c-0.4-0.4-0.4-1,0-1.4l9-9c0.4-0.4,1-0.4,1.4,0
		l9,9C-26.6,80.7-26.6,81.4-26.9,81.8z"/>
	<path id="XMLID_649_" class="st1" d="M-29.4,112.2h-14.5c-0.6,0-1-0.4-1-1V96.7c0-0.6,0.4-1,1-1h14.5c0.6,0,1,0.4,1,1v14.5
		C-28.4,111.7-28.9,112.2-29.4,112.2z"/>
	<polyline id="XMLID_1943_" class="st2" points="-15.7,73.1 -5.3,73.1 -5.3,83.5 	"/>
	<path id="XMLID_681_" class="st3" d="M-5.8,89.2h-14.5c-0.6,0-1-0.4-1-1V73.7c0-0.6,0.4-1,1-1h14.5c0.6,0,1,0.4,1,1v14.5
		C-4.8,88.7-5.2,89.2-5.8,89.2z"/>
</g>
</svg>
