<?xml version="1.0" encoding="iso-8859-1"?>
<!-- Generator: Adobe Illustrator 19.0.0, SVG Export Plug-In . SVG Version: 6.00 Build 0)  -->
<svg version="1.1" id="&#x56FE;&#x5C42;_1" xmlns="http://www.w3.org/2000/svg" xmlns:xlink="http://www.w3.org/1999/xlink" x="0px"
	 y="0px" viewBox="0 0 181.42 181.42" style="enable-background:new 0 0 181.42 181.42;" xml:space="preserve">
<g id="XMLID_693_">
	<path id="XMLID_700_" style="fill:#3F71B2;" d="M50.468,99.988c-5.117,0-9.278-4.161-9.278-9.276c0-5.12,4.161-9.281,9.278-9.281
		s9.278,4.161,9.278,9.281C59.746,95.827,55.586,99.988,50.468,99.988z M50.468,86.492c-2.325,0-4.218,1.893-4.218,4.22
		c0,2.323,1.893,4.215,4.218,4.215c2.325,0,4.218-1.893,4.218-4.215C54.686,88.385,52.793,86.492,50.468,86.492z"/>
	<path id="XMLID_697_" style="fill:#3F71B2;" d="M90.709,99.988c-5.115,0-9.276-4.161-9.276-9.276c0-5.12,4.161-9.281,9.276-9.281
		c5.117,0,9.278,4.161,9.278,9.281C99.987,95.827,95.826,99.988,90.709,99.988z M90.709,86.492c-2.325,0-4.215,1.893-4.215,4.22
		c0,2.323,1.89,4.215,4.215,4.215s4.218-1.893,4.218-4.215C94.927,88.385,93.034,86.492,90.709,86.492z"/>
	<path id="XMLID_694_" style="fill:#3F71B2;" d="M130.952,99.988c-5.117,0-9.278-4.161-9.278-9.276c0-5.12,4.161-9.281,9.278-9.281
		s9.278,4.161,9.278,9.281C140.23,95.827,136.069,99.988,130.952,99.988z M130.952,86.492c-2.325,0-4.218,1.893-4.218,4.22
		c0,2.323,1.893,4.215,4.218,4.215s4.218-1.893,4.218-4.215C135.169,88.385,133.277,86.492,130.952,86.492z"/>
</g>
</svg>
