<svg id="图层_1" data-name="图层 1" xmlns="http://www.w3.org/2000/svg" viewBox="0 0 64 64"><defs><style>.cls-1{fill:#66a9fc;stroke-miterlimit:10;}.cls-1,.cls-2{stroke:#3f78bf;fill-rule:evenodd;}.cls-2{fill:none;stroke-linejoin:round;}</style></defs><title>svg图标</title><g id="_Group_" data-name="&lt;Group&gt;"><g id="_Group_2" data-name="&lt;Group&gt;"><polygon id="_Path_" data-name="&lt;Path&gt;" class="cls-1" points="33.94 38.14 42.64 29.46 39.09 25.93 30.39 34.61 25.22 29.45 21.68 32.99 30.39 41.67 32.01 40.06 32.01 40.06 33.32 38.75 33.94 38.14 33.94 38.14"/><path id="_Compound_Path_" data-name="&lt;Compound Path&gt;" class="cls-1" d="M48.71,21.92l-7.6-7.5a5.34,5.34,0,0,1,.5-.6,5.51,5.51,0,0,1,7.71,0,5.33,5.33,0,0,1,0,7.61A5.39,5.39,0,0,1,48.71,21.92Zm-34-1.05a5.29,5.29,0,0,1,0-7.55,5.44,5.44,0,0,1,7.63,0,5.3,5.3,0,0,1,.49.59l-7.52,7.44A5.32,5.32,0,0,1,14.67,20.87Z"/></g><path id="_Compound_Path_2" data-name="&lt;Compound Path&gt;" class="cls-2" d="M32,15.65a18.3,18.3,0,1,1-18.48,18.3A18.39,18.39,0,0,1,32,15.65Z"/></g></svg>