<?xml version="1.0" encoding="utf-8"?>
<!-- Generator: Adobe Illustrator 19.0.0, SVG Export Plug-In . SVG Version: 6.00 Build 0)  -->
<svg version="1.1" id="图层_1" xmlns="http://www.w3.org/2000/svg" xmlns:xlink="http://www.w3.org/1999/xlink" x="0px" y="0px"
	 viewBox="-58 59.4 64 64" style="enable-background:new -58 59.4 64 64;" xml:space="preserve">
<style type="text/css">
	.st0{fill:#CAE3F5;stroke:#41B58F;stroke-miterlimit:10;}
	.st1{fill:#DAEBF8;stroke:#3E71B1;stroke-miterlimit:10;}
	.st2{fill:#DAEBF8;}
	.st3{fill:#FFFFFF;stroke:#3E71B1;stroke-miterlimit:10;}
	.st4{fill:none;stroke:#3E71B1;stroke-width:2;stroke-linecap:round;stroke-miterlimit:10;}
</style>
<g id="XMLID_1741_">
	<path id="XMLID_1928_" class="st0" d="M-37.3,78.3"/>
	<circle id="XMLID_1203_" class="st1" cx="-39.9" cy="87" r="2.1"/>
	<circle id="XMLID_1159_" class="st1" cx="-29.4" cy="87" r="2.1"/>
	<circle id="XMLID_1200_" class="st1" cx="-18.9" cy="87" r="2.1"/>
	<path id="XMLID_1103_" class="st1" d="M0.2,99.8c-0.1-0.5-0.6-0.9-1.1-0.8c-1.2,0.1-2.3-0.5-2.9-1.6c-0.6-1.1-0.5-2.4,0.1-3.3
		c0.3-0.5,0.3-1.1-0.2-1.4c-1-0.8-2-1.4-3.2-1.8c-0.5-0.2-1.1,0.1-1.3,0.6c-0.5,1-1.6,1.7-2.8,1.7c-1.3,0-2.3-0.7-2.8-1.7
		c-0.2-0.5-0.8-0.8-1.3-0.6c-1.2,0.4-2.2,1.1-3.2,1.8c-0.4,0.3-0.5,1-0.2,1.4c0.6,1,0.7,2.3,0.1,3.3c-0.6,1.1-1.8,1.7-2.9,1.6
		c-0.5,0-1.1,0.3-1.1,0.8c-0.1,0.6-0.2,1.2-0.2,1.9c0,0.6,0.1,1.3,0.2,1.9c0.1,0.5,0.6,0.9,1.1,0.8c1.2-0.1,2.3,0.5,2.9,1.6
		c0.6,1.1,0.5,2.4-0.1,3.3c-0.3,0.5-0.3,1.1,0.2,1.4c1,0.8,2,1.4,3.2,1.8c0.5,0.2,1.1-0.1,1.3-0.6c0.5-1,1.6-1.7,2.8-1.7
		c1.3,0,2.3,0.7,2.8,1.7c0.2,0.5,0.8,0.8,1.3,0.6c1.2-0.4,2.2-1.1,3.2-1.8c0.4-0.3,0.5-1,0.2-1.4c-0.6-1-0.7-2.3-0.1-3.3
		c0.6-1.1,1.8-1.7,2.9-1.6c0.5,0,1.1-0.3,1.1-0.8c0.1-0.6,0.2-1.2,0.2-1.9S0.3,100.4,0.2,99.8z"/>
	<polyline id="XMLID_1938_" class="st2" points="-37.9,72.7 -49.4,72.7 -49.4,83.2 	"/>
	<circle id="XMLID_342_" class="st3" cx="-11.3" cy="101.7" r="4"/>
	<path id="XMLID_341_" class="st4" d="M-26.9,102h-9.5l-6.2,4.8l0.1-4.8h-4.8c-1.1,0-2.9-0.9-2.9-1.9V73.9c0-1.1,0.9-1.9,1.9-1.9
		h36.7c1.1,0,1.9,0.9,1.9,1.9V87"/>
</g>
</svg>
