<?xml version="1.0" encoding="utf-8"?>
<!-- Generator: Adobe Illustrator 19.0.0, SVG Export Plug-In . SVG Version: 6.00 Build 0)  -->
<svg version="1.1" id="图层_1" xmlns="http://www.w3.org/2000/svg" xmlns:xlink="http://www.w3.org/1999/xlink" x="0px" y="0px"
	 viewBox="-58 59.4 64 64" style="enable-background:new -58 59.4 64 64;" xml:space="preserve">
<style type="text/css">
	.st0{fill:none;stroke:#3E71B1;stroke-width:2;stroke-linecap:round;stroke-miterlimit:10;}
	.st1{fill:none;stroke:#3E71B1;stroke-linecap:round;stroke-miterlimit:10;}
	.st2{fill:#DAEBF8;stroke:#3E71B1;stroke-miterlimit:10;}
	.st3{fill:#DAEBF8;}
</style>
<g>
	<path id="XMLID_1912_" class="st0" d="M-11.4,91.6l6.9,6.9c1.5,1.5,1.5,4,0,5.5l-8.1,8.1l-8.6-8.7"/>
	<line id="XMLID_1819_" class="st1" x1="-16" y1="101.3" x2="-19.5" y2="104.9"/>
	<line id="XMLID_1750_" class="st1" x1="-11.5" y1="103.2" x2="-16.6" y2="108.1"/>
	<path id="XMLID_1749_" class="st2" d="M-40.4,99.8L-16.5,75c2.3-2.4,6.1-2.5,8.5-0.2l0,0c2.4,2.3,2.5,6.1,0.2,8.5L-32,108
		l-12.6,4.3c-0.5,0.2-1.1-0.4-0.8-0.9L-40.4,99.8z"/>
	<line id="XMLID_1748_" class="st2" x1="-39.8" y1="100" x2="-32.1" y2="107.6"/>
	<line id="XMLID_1930_" class="st2" x1="-18.7" y1="77.6" x2="-10.3" y2="85.9"/>
	<polyline id="XMLID_1976_" class="st3" points="-35,72.6 -43,80.8 -35.5,88.1 	"/>
	<line id="XMLID_1834_" class="st1" x1="-36.6" y1="80.6" x2="-40.1" y2="84.2"/>
	<line id="XMLID_1833_" class="st1" x1="-32.1" y1="82.5" x2="-37.2" y2="87.5"/>
	<path id="XMLID_1909_" class="st0" d="M-35.6,89.3l-5.9-6l-2.5-2.5l8.1-8.1c1.5-1.5,4-1.5,5.5,0l5.5,5.5"/>
</g>
</svg>
