<?xml version="1.0" encoding="iso-8859-1"?>
<!-- Generator: Adobe Illustrator 19.0.0, SVG Export Plug-In . SVG Version: 6.00 Build 0)  -->
<svg version="1.1" id="&#x56FE;&#x5C42;_1" xmlns="http://www.w3.org/2000/svg" xmlns:xlink="http://www.w3.org/1999/xlink" x="0px"
	 y="0px" viewBox="0 0 181.42 181.42" style="enable-background:new 0 0 181.42 181.42;" xml:space="preserve">
<g id="XMLID_373_">
	<path id="XMLID_641_" style="fill-rule:evenodd;clip-rule:evenodd;fill:#DDEAF7;" d="M120.875,56.992h-7.59
		c3.961,0,7.172,3.211,7.172,7.172v97.539h7.59V64.164C128.047,60.203,124.836,56.992,120.875,56.992z"/>
	<path id="XMLID_640_" style="fill:#3F71B2;" d="M128.204,174.363c-1.399,0-2.53-1.132-2.53-2.53V64.163c0-2.56-2.08-4.64-4.64-4.64
		H60.389c-2.56,0-4.643,2.08-4.643,4.64v107.67c0,1.399-1.132,2.53-2.53,2.53c-1.399,0-2.53-1.132-2.53-2.53V64.163
		c0-5.347,4.354-9.701,9.703-9.701h60.645c5.349,0,9.701,4.354,9.701,9.701v107.67C130.734,173.232,129.602,174.363,128.204,174.363
		z"/>
	<g id="XMLID_486_">
		
			<line id="XMLID_639_" style="fill-rule:evenodd;clip-rule:evenodd;fill:#E4EFFA;" x1="46.367" y1="161.922" x2="135.054" y2="161.922"/>
		<path id="XMLID_487_" style="fill:#3F71B2;" d="M135.053,164.45H46.367c-1.399,0-2.53-1.132-2.53-2.53
			c0-1.398,1.132-2.53,2.53-2.53h88.686c1.398,0,2.53,1.132,2.53,2.53C137.583,163.319,136.452,164.45,135.053,164.45z"/>
	</g>
	<g id="XMLID_386_">
		
			<rect id="XMLID_392_" x="57.608" y="8.322" style="fill-rule:evenodd;clip-rule:evenodd;fill:#E4EFFA;" width="66.206" height="40.333"/>
		<path id="XMLID_387_" style="fill:#3F71B2;" d="M125.078,49.921H56.342V7.057h68.737V49.921z M58.872,47.391h63.676V9.587H58.872
			V47.391z"/>
	</g>
	<g id="XMLID_379_">
		<g id="XMLID_383_">
			
				<line id="XMLID_385_" style="fill-rule:evenodd;clip-rule:evenodd;fill:#E4EFFA;" x1="90.711" y1="24.414" x2="90.711" y2="34.535"/>
			<path id="XMLID_384_" style="fill:#3F71B2;" d="M90.711,35.798c-0.699,0-1.265-0.568-1.265-1.265V24.412
				c0-0.697,0.566-1.265,1.265-1.265s1.265,0.568,1.265,1.265v10.121C91.976,35.229,91.41,35.798,90.711,35.798z"/>
		</g>
		<g id="XMLID_380_">
			
				<line id="XMLID_382_" style="fill-rule:evenodd;clip-rule:evenodd;fill:#E4EFFA;" x1="95.771" y1="29.474" x2="85.65" y2="29.474"/>
			<path id="XMLID_381_" style="fill:#3F71B2;" d="M95.772,30.737H85.651c-0.699,0-1.265-0.568-1.265-1.265s0.566-1.265,1.265-1.265
				h10.121c0.699,0,1.265,0.568,1.265,1.265S96.471,30.737,95.772,30.737z"/>
		</g>
	</g>
	<rect id="XMLID_378_" x="50.926" y="90.359" style="fill:#3F71B2;" width="77.172" height="2.53"/>
	<rect id="XMLID_377_" x="50.926" y="123.671" style="fill:#3F71B2;" width="77.172" height="2.53"/>
	<path id="XMLID_376_" style="fill:#3F71B2;" d="M101.319,110.6H77.705c-1.398,0-2.53-1.132-2.53-2.53s1.132-2.53,2.53-2.53h23.614
		c1.398,0,2.53,1.132,2.53,2.53S102.717,110.6,101.319,110.6z"/>
	<path id="XMLID_375_" style="fill:#3F71B2;" d="M101.319,145.598H77.705c-1.398,0-2.53-1.132-2.53-2.53
		c0-1.399,1.132-2.53,2.53-2.53h23.614c1.398,0,2.53,1.132,2.53,2.53C103.849,144.466,102.717,145.598,101.319,145.598z"/>
	<path id="XMLID_374_" style="fill:#3F71B2;" d="M101.319,78.548H77.705c-1.398,0-2.53-1.132-2.53-2.53s1.132-2.53,2.53-2.53h23.614
		c1.398,0,2.53,1.132,2.53,2.53S102.717,78.548,101.319,78.548z"/>
</g>
</svg>
