<?xml version="1.0" encoding="iso-8859-1"?>
<!-- Generator: Adobe Illustrator 19.0.0, SVG Export Plug-In . SVG Version: 6.00 Build 0)  -->
<svg version="1.1" id="&#x56FE;&#x5C42;_1" xmlns="http://www.w3.org/2000/svg" xmlns:xlink="http://www.w3.org/1999/xlink" x="0px"
	 y="0px" viewBox="0 0 181.42 181.42" style="enable-background:new 0 0 181.42 181.42;" xml:space="preserve">
<g id="XMLID_96_">
	<path id="XMLID_412_" style="fill-rule:evenodd;clip-rule:evenodd;fill:#F2F2F2;" d="M120.875,56.993h-7.59
		c3.961,0,7.172,3.211,7.172,7.172v97.539h7.59V64.165C128.047,60.204,124.836,56.993,120.875,56.993z"/>
	<path id="XMLID_410_" style="fill:#CCCCCC;" d="M128.204,174.361c-1.399,0-2.53-1.132-2.53-2.53V64.166c0-2.56-2.08-4.64-4.64-4.64
		H60.389c-2.56,0-4.643,2.08-4.643,4.64v107.665c0,1.399-1.132,2.53-2.53,2.53c-1.399,0-2.53-1.132-2.53-2.53V64.166
		c0-5.347,4.354-9.701,9.703-9.701h60.645c5.349,0,9.701,4.354,9.701,9.701v107.665
		C130.734,173.229,129.602,174.361,128.204,174.361z"/>
	<path id="XMLID_509_" style="fill:#CCCCCC;" d="M135.053,164.453H46.367c-1.399,0-2.53-1.132-2.53-2.53
		c0-1.398,1.132-2.53,2.53-2.53h88.686c1.399,0,2.53,1.132,2.53,2.53C137.583,163.321,136.452,164.453,135.053,164.453z"/>
	<g id="XMLID_508_">
		
			<rect id="XMLID_408_" x="57.608" y="8.323" style="fill-rule:evenodd;clip-rule:evenodd;fill:#F2F2F2;" width="66.206" height="40.333"/>
		<path id="XMLID_505_" style="fill:#CCCCCC;" d="M125.078,49.924H56.342V7.059h68.737V49.924z M58.872,47.393h63.676V9.589H58.872
			V47.393z"/>
	</g>
	<g id="XMLID_406_">
		<g id="XMLID_504_">
			
				<line id="XMLID_407_" style="fill-rule:evenodd;clip-rule:evenodd;fill:#F2F2F2;" x1="90.711" y1="24.415" x2="90.711" y2="34.536"/>
			<path id="XMLID_503_" style="fill:#CCCCCC;" d="M90.711,35.8c-0.699,0-1.265-0.568-1.265-1.265V24.414
				c0-0.697,0.566-1.265,1.265-1.265c0.699,0,1.265,0.568,1.265,1.265v10.121C91.976,35.232,91.41,35.8,90.711,35.8z"/>
		</g>
		<g id="XMLID_502_">
			
				<line id="XMLID_391_" style="fill-rule:evenodd;clip-rule:evenodd;fill:#F2F2F2;" x1="95.771" y1="29.475" x2="85.65" y2="29.475"/>
			<path id="XMLID_405_" style="fill:#CCCCCC;" d="M95.772,30.74H85.651c-0.699,0-1.265-0.568-1.265-1.265s0.566-1.265,1.265-1.265
				h10.121c0.699,0,1.265,0.568,1.265,1.265S96.471,30.74,95.772,30.74z"/>
		</g>
	</g>
	<rect id="XMLID_404_" x="50.926" y="89.097" style="fill:#CCCCCC;" width="77.172" height="5.06"/>
	<rect id="XMLID_403_" x="50.926" y="122.409" style="fill:#CCCCCC;" width="77.172" height="5.06"/>
	<path id="XMLID_402_" style="fill:#CCCCCC;" d="M101.319,110.603H77.705c-1.399,0-2.53-1.132-2.53-2.53s1.132-2.53,2.53-2.53
		h23.614c1.399,0,2.53,1.132,2.53,2.53S102.717,110.603,101.319,110.603z"/>
	<path id="XMLID_401_" style="fill:#CCCCCC;" d="M101.319,145.6H77.705c-1.399,0-2.53-1.132-2.53-2.53c0-1.399,1.132-2.53,2.53-2.53
		h23.614c1.399,0,2.53,1.132,2.53,2.53C103.849,144.468,102.717,145.6,101.319,145.6z"/>
	<path id="XMLID_400_" style="fill:#CCCCCC;" d="M101.319,78.551H77.705c-1.399,0-2.53-1.132-2.53-2.53s1.132-2.53,2.53-2.53h23.614
		c1.399,0,2.53,1.132,2.53,2.53S102.717,78.551,101.319,78.551z"/>
</g>
</svg>
