<svg id="图层_1" data-name="图层 1" xmlns="http://www.w3.org/2000/svg" viewBox="0 0 64 64"><defs><style>.cls-1{fill:none;}.cls-1,.cls-2{stroke:#3f78bf;stroke-miterlimit:10;fill-rule:evenodd;}.cls-2{fill:#66a9fc;}</style></defs><title>svg图标</title><g id="_Group_" data-name="&lt;Group&gt;"><path id="_Path_" data-name="&lt;Path&gt;" class="cls-1" d="M54.71,29.66H17.35V19.22a.7.7,0,0,0-.73-.65H9.29a.7.7,0,0,0-.73.65V43.37a.7.7,0,0,0,.73.65h7.32a.7.7,0,0,0,.73-.65V36.84h29.3v6.53a.7.7,0,0,0,.73.65h7.32a.7.7,0,0,0,.73-.65V30.31A.7.7,0,0,0,54.71,29.66Z"/><g id="_Group_2" data-name="&lt;Group&gt;"><path id="_Compound_Path_" data-name="&lt;Compound Path&gt;" class="cls-2" d="M41.06,50.42c-1.36.26-2.6-.19-2.76-1l-1.44-7.1-1.8-3.54H33.61v3h0v.54a2.5,2.5,0,0,1-.45,1.43l-1.66,6c-.22.8-1.49,1.16-2.83.81s-2.25-1.27-2-2.07l1.94-7V29.25a5,5,0,1,1,10,0V34.8l2.87,5.65h0l.16.31.13.26A2.33,2.33,0,0,1,42,42.47l1.22,6C43.39,49.3,42.42,50.16,41.06,50.42ZM33.61,23a4.85,4.85,0,1,1,5-4.85A4.94,4.94,0,0,1,33.61,23Z"/></g></g></svg>