<svg id="图层_1" data-name="图层 1" xmlns="http://www.w3.org/2000/svg" viewBox="0 0 64 64"><defs><style>.cls-1{fill:#66a9fc;}.cls-1,.cls-2,.cls-3,.cls-4{stroke:#3f78bf;stroke-miterlimit:10;}.cls-2{fill:#fff;}.cls-2,.cls-3{fill-rule:evenodd;}.cls-3,.cls-4{fill:none;}</style></defs><title>svg图标</title><g id="_Group_" data-name="&lt;Group&gt;"><g id="_Group_2" data-name="&lt;Group&gt;"><path id="_Compound_Path_" data-name="&lt;Compound Path&gt;" class="cls-1" d="M35.4,23.67V42.18A10.26,10.26,0,0,0,45.63,52.46a10.08,10.08,0,0,0,4.36-1l1.54-.91A10.32,10.32,0,0,0,54.58,37.2l-1-1.5-9.8-14.6A4.57,4.57,0,0,0,35.4,23.67Z"/></g><path id="_Compound_Path_2" data-name="&lt;Compound Path&gt;" class="cls-2" d="M32,11.54V17.9"/><path id="_Compound_Path_3" data-name="&lt;Compound Path&gt;" class="cls-3" d="M27.23,20.65a5.17,5.17,0,0,1,9.54,0"/><path id="_Compound_Path_4" data-name="&lt;Compound Path&gt;" class="cls-4" d="M28.6,23.67V42.18A10.26,10.26,0,0,1,18.37,52.46a10.08,10.08,0,0,1-4.36-1l-1.54-.91A10.32,10.32,0,0,1,9.42,37.2l1-1.5,9.8-14.6A4.57,4.57,0,0,1,28.6,23.67Z"/></g></svg>