<?xml version="1.0" encoding="iso-8859-1"?>
<!-- Generator: Adobe Illustrator 19.0.0, SVG Export Plug-In . SVG Version: 6.00 Build 0)  -->
<svg version="1.1" id="&#x56FE;&#x5C42;_1" xmlns="http://www.w3.org/2000/svg" xmlns:xlink="http://www.w3.org/1999/xlink" x="0px"
	 y="0px" viewBox="0 0 181.42 181.42" style="enable-background:new 0 0 181.42 181.42;" xml:space="preserve">
<g id="XMLID_642_">
	<path id="XMLID_666_" style="fill-rule:evenodd;clip-rule:evenodd;fill:#F2F2F2;" d="M135.925,13.856h-10.542
		c3.961,0,7.172,3.211,7.172,7.172v141.893c0,3.961-3.211,7.172-7.172,7.172h10.542c3.961,0,7.172-3.211,7.172-7.172V21.028
		C143.097,17.067,139.886,13.856,135.925,13.856z"/>
	<path id="XMLID_663_" style="fill:#CCCCCC;" d="M134.028,171.359H47.39c-5.349,0-9.701-4.354-9.701-9.706V19.762
		c0-5.347,4.351-9.701,9.701-9.701h86.638c5.349,0,9.703,4.354,9.703,9.701v141.891
		C143.731,167.005,139.377,171.359,134.028,171.359z M47.39,15.122c-2.56,0-4.64,2.08-4.64,4.64v141.891
		c0,2.56,2.08,4.645,4.64,4.645h86.638c2.56,0,4.643-2.085,4.643-4.645V19.762c0-2.56-2.083-4.64-4.643-4.64H47.39z"/>
	<g id="XMLID_658_">
		
			<rect id="XMLID_662_" x="55.252" y="27.002" style="fill-rule:evenodd;clip-rule:evenodd;fill:#F2F2F2;" width="70.914" height="103.566"/>
		<path id="XMLID_659_" style="fill:#CCCCCC;" d="M127.431,131.835H53.987V25.736h73.444V131.835z M56.517,129.305H124.9V28.267
			H56.517V129.305z"/>
	</g>
	<g id="XMLID_653_">
		
			<rect id="XMLID_657_" x="108.446" y="141.107" style="fill-rule:evenodd;clip-rule:evenodd;fill:#F2F2F2;" width="17.72" height="17.72"/>
		<path id="XMLID_654_" style="fill:#CCCCCC;" d="M127.431,160.092h-20.249V139.84h20.249V160.092z M109.712,157.561H124.9v-15.191
			h-15.188V157.561z"/>
	</g>
	<g id="XMLID_648_">
		
			<rect id="XMLID_652_" x="55.252" y="149.402" style="fill-rule:evenodd;clip-rule:evenodd;fill:#F2F2F2;" width="17.011" height="9.424"/>
		<path id="XMLID_649_" style="fill:#CCCCCC;" d="M73.529,160.092H53.987v-11.954h19.542V160.092z M56.517,157.561h14.482v-6.894
			H56.517V157.561z"/>
	</g>
	<g id="XMLID_643_">
		
			<rect id="XMLID_647_" x="79.921" y="149.402" style="fill-rule:evenodd;clip-rule:evenodd;fill:#F2F2F2;" width="17.011" height="9.424"/>
		<path id="XMLID_644_" style="fill:#CCCCCC;" d="M98.198,160.092H78.656v-11.954h19.542V160.092z M81.186,157.561h14.482v-6.894
			H81.186V157.561z"/>
	</g>
</g>
</svg>
