<?xml version="1.0" encoding="iso-8859-1"?>
<!-- Generator: Adobe Illustrator 19.0.0, SVG Export Plug-In . SVG Version: 6.00 Build 0)  -->
<svg version="1.1" id="&#x56FE;&#x5C42;_1" xmlns="http://www.w3.org/2000/svg" xmlns:xlink="http://www.w3.org/1999/xlink" x="0px"
	 y="0px" viewBox="0 0 181.42 181.42" style="enable-background:new 0 0 181.42 181.42;" xml:space="preserve">
<g id="XMLID_95_">
	<path id="XMLID_424_" style="fill-rule:evenodd;clip-rule:evenodd;fill:#F2F2F2;" d="M131.194,54.579h-3.14v2.784
		c0,6.338-5.138,11.475-11.475,11.475H53.172c2.057,1.949,4.817,3.163,7.874,3.163h61.542c6.337,0,11.475-5.138,11.475-11.475
		v-3.078C134.063,55.863,132.778,54.579,131.194,54.579z"/>
	<path id="XMLID_422_" style="fill:#CCCCCC;" d="M121.48,76.273H59.938c-7.721,0-14.005-6.286-14.005-14.01v-3.074
		c0-2.98,2.421-5.401,5.399-5.401h78.756c2.977,0,5.399,2.421,5.399,5.401v3.074C135.487,69.987,129.203,76.273,121.48,76.273z
		 M51.332,58.848l-0.339,3.415c0,4.937,4.013,8.949,8.944,8.949h61.542c4.934,0,8.947-4.013,8.947-8.949v-3.074L51.332,58.848z"/>
	<path id="XMLID_421_" style="fill:#CCCCCC;" d="M102.632,113.074H78.788V71.86h23.844V113.074z M83.848,108.013h13.723V76.92
		H83.848V108.013z"/>
	<polygon id="XMLID_420_" style="fill:#CCCCCC;" points="106.442,146.129 101.382,146.129 101.382,112.199 80.038,112.199 
		80.038,146.129 74.978,146.129 74.978,107.139 106.442,107.139 	"/>
	<path id="XMLID_419_" style="fill:#CCCCCC;" d="M136.324,164.013c-1.399,0-2.53-1.132-2.53-2.53
		c0-7.146-17.694-15.112-43.084-15.112s-43.084,7.966-43.084,15.112c0,1.398-1.132,2.53-2.53,2.53c-1.399,0-2.53-1.132-2.53-2.53
		c0-11.499,20.698-20.172,48.145-20.172s48.145,8.673,48.145,20.172C138.855,162.881,137.723,164.013,136.324,164.013z"/>
	<path id="XMLID_418_" style="fill:#CCCCCC;" d="M142.012,164.136H39.408c-1.399,0-2.53-1.132-2.53-2.53
		c0-1.398,1.132-2.53,2.53-2.53h102.605c1.398,0,2.53,1.132,2.53,2.53C144.543,163.005,143.411,164.136,142.012,164.136z"/>
	<path id="XMLID_417_" style="fill:#CCCCCC;" d="M44.881,174.361c-1.399,0-2.53-1.132-2.53-2.53v-8.327
		c0-1.398,1.132-2.53,2.53-2.53c1.399,0,2.53,1.132,2.53,2.53v8.327C47.411,173.229,46.279,174.361,44.881,174.361z"/>
	<path id="XMLID_517_" style="fill:#CCCCCC;" d="M136.539,174.361c-1.399,0-2.53-1.132-2.53-2.53v-10.857
		c0-1.398,1.132-2.53,2.53-2.53c1.398,0,2.53,1.132,2.53,2.53v10.857C139.07,173.229,137.938,174.361,136.539,174.361z"/>
	<g id="XMLID_516_">
		
			<rect id="XMLID_415_" x="57.607" y="8.323" style="fill-rule:evenodd;clip-rule:evenodd;fill:#F2F2F2;" width="66.206" height="40.333"/>
		<path id="XMLID_513_" style="fill:#CCCCCC;" d="M125.077,49.924H56.343V7.059h68.734V49.924z M58.873,47.393h63.674V9.589H58.873
			V47.393z"/>
	</g>
	<g id="XMLID_413_">
		<g id="XMLID_512_">
			
				<line id="XMLID_414_" style="fill-rule:evenodd;clip-rule:evenodd;fill:#F2F2F2;" x1="90.71" y1="23.677" x2="90.71" y2="34.641"/>
			<path id="XMLID_511_" style="fill:#CCCCCC;" d="M90.71,35.904c-0.699,0-1.265-0.568-1.265-1.265V23.678
				c0-0.697,0.566-1.265,1.265-1.265s1.265,0.568,1.265,1.265v10.961C91.975,35.336,91.409,35.904,90.71,35.904z"/>
		</g>
		<g id="XMLID_510_">
			
				<line id="XMLID_409_" style="fill-rule:evenodd;clip-rule:evenodd;fill:#F2F2F2;" x1="96.192" y1="29.159" x2="85.228" y2="29.159"/>
			<path id="XMLID_411_" style="fill:#CCCCCC;" d="M96.193,30.424H85.227c-0.699,0-1.265-0.568-1.265-1.265s0.566-1.265,1.265-1.265
				h10.966c0.699,0,1.265,0.568,1.265,1.265S96.892,30.424,96.193,30.424z"/>
		</g>
	</g>
</g>
</svg>
