<?xml version="1.0" encoding="iso-8859-1"?>
<!-- Generator: Adobe Illustrator 19.0.0, SVG Export Plug-In . SVG Version: 6.00 Build 0)  -->
<svg version="1.1" id="&#x56FE;&#x5C42;_1" xmlns="http://www.w3.org/2000/svg" xmlns:xlink="http://www.w3.org/1999/xlink" x="0px"
	 y="0px" viewBox="0 0 181.42 181.42" style="enable-background:new 0 0 181.42 181.42;" xml:space="preserve">
<g id="XMLID_298_">
	<path id="XMLID_323_" style="fill-rule:evenodd;clip-rule:evenodd;fill:#DDEAF7;" d="M90.71,11.961
		c-2.998,0-5.945,0.203-8.856,0.529c39.319,4.406,69.895,37.727,69.895,78.222s-30.576,73.816-69.895,78.222
		c2.911,0.326,5.858,0.529,8.856,0.529c43.493,0,78.751-35.258,78.751-78.751S134.203,11.961,90.71,11.961z"/>
	<path id="XMLID_320_" style="fill:#3F71B2;" d="M90.71,171.991c-44.819,0-81.281-36.465-81.281-81.281S45.891,9.429,90.71,9.429
		s81.281,36.465,81.281,81.281S135.529,171.991,90.71,171.991z M90.71,14.489c-42.029,0-76.221,34.192-76.221,76.221
		s34.192,76.221,76.221,76.221s76.221-34.192,76.221-76.221S132.739,14.489,90.71,14.489z"/>
	<g id="XMLID_299_">
		<g id="XMLID_315_">
			
				<rect id="XMLID_319_" x="36.817" y="91.489" style="fill-rule:evenodd;clip-rule:evenodd;fill:#E4EFFA;" width="11.745" height="11.745"/>
			<path id="XMLID_316_" style="fill:#3F71B2;" d="M49.827,104.497H35.553V90.226h14.274V104.497z M38.083,101.967h9.214v-9.211
				h-9.214V101.967z"/>
		</g>
		<g id="XMLID_310_">
			
				<rect id="XMLID_314_" x="68.831" y="91.489" style="fill-rule:evenodd;clip-rule:evenodd;fill:#E4EFFA;" width="11.745" height="11.745"/>
			<path id="XMLID_311_" style="fill:#3F71B2;" d="M81.842,104.497H67.565V90.226h14.277V104.497z M70.096,101.967h9.216v-9.211
				h-9.216V101.967z"/>
		</g>
		<g id="XMLID_305_">
			
				<rect id="XMLID_309_" x="100.844" y="91.489" style="fill-rule:evenodd;clip-rule:evenodd;fill:#E4EFFA;" width="11.745" height="11.745"/>
			<path id="XMLID_306_" style="fill:#3F71B2;" d="M113.854,104.497H99.578V90.226h14.277V104.497z M102.108,101.967h9.216v-9.211
				h-9.216V101.967z"/>
		</g>
		<g id="XMLID_300_">
			
				<rect id="XMLID_304_" x="132.858" y="91.489" style="fill-rule:evenodd;clip-rule:evenodd;fill:#E4EFFA;" width="11.745" height="11.745"/>
			<path id="XMLID_301_" style="fill:#3F71B2;" d="M145.867,104.497h-14.274V90.226h14.274V104.497z M134.123,101.967h9.214v-9.211
				h-9.214V101.967z"/>
		</g>
	</g>
</g>
</svg>
