<svg id="图层_1" data-name="图层 1" xmlns="http://www.w3.org/2000/svg" viewBox="0 0 64 64"><defs><style>.cls-1{fill:none;stroke-linejoin:round;}.cls-1,.cls-2{stroke:#3f78bf;}.cls-2{fill:#66a9fc;stroke-miterlimit:10;fill-rule:evenodd;}</style></defs><title>svg图标</title><g id="_Group_" data-name="&lt;Group&gt;"><g id="_Group_2" data-name="&lt;Group&gt;"><polygon id="_Path_" data-name="&lt;Path&gt;" class="cls-1" points="41.12 30.1 49.38 23.77 41.12 16.9 41.12 20.2 32.85 20.2 32.85 26.81 41.12 26.81 41.12 30.1"/><polygon id="_Path_2" data-name="&lt;Path&gt;" class="cls-1" points="41.12 33.42 32.85 40.29 41.12 46.63 41.12 43.34 49.38 43.34 49.38 36.73 41.12 36.73 41.12 33.42"/></g><g id="_Group_3" data-name="&lt;Group&gt;"><path id="_Compound_Path_" data-name="&lt;Compound Path&gt;" class="cls-2" d="M29.07,50.42c-1.36.26-2.6-.19-2.76-1l-1.44-7.1-1.8-3.54H21.62v3h0v.54a2.5,2.5,0,0,1-.45,1.43l-1.66,6c-.22.8-1.49,1.16-2.83.81s-2.25-1.27-2-2.07l1.94-7V29.25a5,5,0,1,1,10,0V34.8l2.87,5.65h0l.16.31.13.26A2.33,2.33,0,0,1,30,42.47l1.22,6C31.4,49.3,30.43,50.16,29.07,50.42ZM21.62,23a4.85,4.85,0,1,1,5-4.85A4.94,4.94,0,0,1,21.62,23Z"/></g></g></svg>