<svg id="图层_1" data-name="图层 1" xmlns="http://www.w3.org/2000/svg" viewBox="0 0 64 64"><defs><style>.cls-1,.cls-2{fill:#fff;}.cls-1,.cls-2,.cls-3{stroke:#3f78bf;fill-rule:evenodd;}.cls-1,.cls-3{stroke-miterlimit:10;}.cls-2{stroke-linecap:round;stroke-linejoin:round;}.cls-3{fill:#66a9fc;}</style></defs><title>svg图标</title><g id="_Group_" data-name="&lt;Group&gt;"><path id="_Compound_Path_" data-name="&lt;Compound Path&gt;" class="cls-1" d="M32,51.51S10.14,41.11,10.14,24.19A11.7,11.7,0,0,1,32,18.39a11.7,11.7,0,0,1,21.86,5.8C53.87,41.11,32,51.51,32,51.51Z"/><path id="_Compound_Path_2" data-name="&lt;Compound Path&gt;" class="cls-2" d="M8.59,34.34H18l4.68-6.24,3.12,6.24L32,25l3.12,14,4.68-7.8,3.12,6.24H55.41"/><g id="_Group_2" data-name="&lt;Group&gt;"><path id="_Compound_Path_3" data-name="&lt;Compound Path&gt;" class="cls-3" d="M42.93,37.47,39.8,31.23,35.12,39,32,25l-6.24,9.37-3.12-6.24L18,34.35H12.89a22.11,22.11,0,0,1-2.6-7.81c-.88-7.07,4-13.81,11.16-14A11.69,11.69,0,0,1,32,18.39,11.69,11.69,0,0,1,42.58,12.5c6.91.24,11.85,6.65,11.2,13.54a23.4,23.4,0,0,1-4.61,11.44Z"/></g></g></svg>