<?xml version="1.0" encoding="utf-8"?>
<!-- Generator: Adobe Illustrator 19.0.0, SVG Export Plug-In . SVG Version: 6.00 Build 0)  -->
<svg version="1.1" id="图层_1" xmlns="http://www.w3.org/2000/svg" xmlns:xlink="http://www.w3.org/1999/xlink" x="0px" y="0px"
	 viewBox="0 0 64 64" style="enable-background:new 0 0 64 64;" xml:space="preserve">
<style type="text/css">
	.st0{fill:#3E71B2;}
	.st1{opacity:0.3;fill-rule:evenodd;clip-rule:evenodd;fill:#3E71B2;}
	.st2{fill:#3D6BA7;}
</style>
<path id="XMLID_31_" class="st0" d="M30.4,58.4c-13.1,0-23.8-10.7-23.8-23.8c0-9.7,5.8-18.4,14.9-22c1.3-0.5,2.6-0.9,3.9-1.2
	c0.7-0.1,1.3,0.3,1.5,1c0.1,0.7-0.3,1.3-1,1.5c-1.2,0.3-2.4,0.6-3.5,1.1c-8.1,3.3-13.3,11-13.3,19.7c0,11.7,9.5,21.3,21.3,21.3
	s21.3-9.5,21.3-21.3c0-8.4-4.9-16-12.6-19.4c-1.1-0.5-2.2-0.9-3.3-1.2c-0.7-0.2-1.1-0.9-0.9-1.5c0.2-0.7,0.8-1.1,1.5-0.9
	c1.3,0.3,2.5,0.8,3.7,1.3c8.6,3.8,14.1,12.3,14.1,21.7C54.2,47.8,43.5,58.4,30.4,58.4z"/>
<path id="XMLID_25_" class="st1" d="M48.4,34.7c0,10-8.1,18-18,18s-18-8.1-18-18c0-9.4,7.2-17.1,16.4-18c0.5,0,1.1-0.1,1.6-0.1
	c0.6,0,1.2,0,1.8,0.1C41.4,17.6,48.4,25.3,48.4,34.7z"/>
<g id="XMLID_21_">
	<path id="XMLID_35_" class="st2" d="M35.4,26.7l-4.6-22l-4.5,21.5c-3.1,1.5-5.2,4.7-5.2,8.4c0,5.2,4.2,9.4,9.4,9.4
		c5.2,0,9.4-4.2,9.4-9.4C39.8,31.3,38,28.4,35.4,26.7z M30.4,40c-3,0-5.4-2.4-5.4-5.4c0-2.8,2.1-5.1,4.9-5.3c0.2,0,0.3,0,0.5,0
		c0.2,0,0.4,0,0.5,0c2.7,0.3,4.8,2.6,4.8,5.3C35.8,37.6,33.4,40,30.4,40z"/>
	<polygon id="XMLID_38_" class="st2" points="30.7,4.5 30.8,4.7 30.8,4.5 	"/>
</g>
</svg>
