<?xml version="1.0" encoding="iso-8859-1"?>
<!-- Generator: Adobe Illustrator 19.0.0, SVG Export Plug-In . SVG Version: 6.00 Build 0)  -->
<svg version="1.1" id="&#x56FE;&#x5C42;_1" xmlns="http://www.w3.org/2000/svg" xmlns:xlink="http://www.w3.org/1999/xlink" x="0px"
	 y="0px" viewBox="0 0 181.42 181.42" style="enable-background:new 0 0 181.42 181.42;" xml:space="preserve">
<g id="XMLID_667_">
	<path id="XMLID_692_" style="fill-rule:evenodd;clip-rule:evenodd;fill:#DDEAF7;" d="M135.925,13.857h-10.542
		c3.961,0,7.172,3.211,7.172,7.172v141.893c0,3.961-3.211,7.172-7.172,7.172h10.542c3.961,0,7.172-3.211,7.172-7.172V21.028
		C143.097,17.068,139.886,13.857,135.925,13.857z"/>
	<path id="XMLID_689_" style="fill:#3F71B2;" d="M134.028,171.356H47.39c-5.349,0-9.701-4.354-9.701-9.701V19.764
		c0-5.347,4.351-9.701,9.701-9.701h86.638c5.349,0,9.703,4.354,9.703,9.701v141.891
		C143.731,167.003,139.377,171.356,134.028,171.356z M47.39,15.124c-2.56,0-4.64,2.08-4.64,4.64v141.891c0,2.56,2.08,4.64,4.64,4.64
		h86.638c2.56,0,4.643-2.08,4.643-4.64V19.764c0-2.56-2.083-4.64-4.643-4.64H47.39z"/>
	<g id="XMLID_684_">
		
			<rect id="XMLID_688_" x="55.252" y="27.003" style="fill-rule:evenodd;clip-rule:evenodd;fill:#E4EFFA;" width="70.914" height="103.566"/>
		<path id="XMLID_685_" style="fill:#3F71B2;" d="M127.431,131.832H53.987V25.739h73.444V131.832z M56.517,129.302H124.9V28.269
			H56.517V129.302z"/>
	</g>
	<g id="XMLID_679_">
		
			<rect id="XMLID_683_" x="108.446" y="141.107" style="fill-rule:evenodd;clip-rule:evenodd;fill:#E4EFFA;" width="17.72" height="17.72"/>
		<path id="XMLID_680_" style="fill:#3F71B2;" d="M127.431,160.094h-20.249v-20.251h20.249V160.094z M109.712,157.564H124.9v-15.191
			h-15.188V157.564z"/>
	</g>
	<g id="XMLID_668_">
		<g id="XMLID_674_">
			
				<rect id="XMLID_678_" x="55.252" y="149.403" style="fill-rule:evenodd;clip-rule:evenodd;fill:#E4EFFA;" width="17.011" height="9.424"/>
			<path id="XMLID_675_" style="fill:#3F71B2;" d="M73.529,160.094H53.987V148.14h19.542V160.094z M56.517,157.564h14.482v-6.894
				H56.517V157.564z"/>
		</g>
		<g id="XMLID_669_">
			
				<rect id="XMLID_673_" x="79.921" y="149.403" style="fill-rule:evenodd;clip-rule:evenodd;fill:#E4EFFA;" width="17.011" height="9.424"/>
			<path id="XMLID_670_" style="fill:#3F71B2;" d="M98.198,160.094H78.656V148.14h19.542V160.094z M81.186,157.564h14.482v-6.894
				H81.186V157.564z"/>
		</g>
	</g>
</g>
</svg>
