<?xml version="1.0" encoding="iso-8859-1"?>
<!-- Generator: Adobe Illustrator 19.0.0, SVG Export Plug-In . SVG Version: 6.00 Build 0)  -->
<svg version="1.1" id="&#x56FE;&#x5C42;_1" xmlns="http://www.w3.org/2000/svg" xmlns:xlink="http://www.w3.org/1999/xlink" x="0px"
	 y="0px" viewBox="0 0 181.42 181.42" style="enable-background:new 0 0 181.42 181.42;" xml:space="preserve">
<g id="XMLID_324_">
	<path id="XMLID_339_" style="fill:#3F71B2;" d="M90.709,75.218c-15.683,0-28.44-12.759-28.44-28.44s12.757-28.44,28.44-28.44
		s28.44,12.759,28.44,28.44S106.391,75.218,90.709,75.218z M90.709,20.869c-14.286,0-25.909,11.623-25.909,25.909
		s11.623,25.909,25.909,25.909s25.909-11.623,25.909-25.909S104.995,20.869,90.709,20.869z"/>
	<path id="XMLID_338_" style="fill:#3F71B2;" d="M90.948,176.039c-11.452,0-20.77-9.315-20.77-20.77
		c0-11.03,8.641-20.073,19.505-20.73v-4.843c0-0.697,0.566-1.265,1.265-1.265c0.699,0,1.265,0.568,1.265,1.265v7.333h-1.265
		c-10.056,0-18.24,8.183-18.24,18.24s8.183,18.24,18.24,18.24c7.133,0,13.654-4.196,16.612-10.689
		c0.294-0.633,1.045-0.919,1.675-0.628c0.637,0.292,0.917,1.038,0.628,1.675C106.495,171.26,99.07,176.039,90.948,176.039z"/>
	<g id="XMLID_333_">
		<path id="XMLID_337_" style="fill-rule:evenodd;clip-rule:evenodd;fill:#DDEAF7;" d="M91.145,7.914
			c-1.643,0-3.256,0.119-4.849,0.303c20.815,2.407,36.983,20.069,36.983,41.529v56.664c0,12.058-5.162,22.859-13.328,30.489
			c1.525,1.345,2.921,2.834,4.132,4.473c11.373-7.477,18.895-20.334,18.895-34.962V49.746
			C132.978,26.643,114.249,7.914,91.145,7.914z"/>
	</g>
	<path id="XMLID_330_" style="fill:#3F71B2;" d="M113.038,144.802l-1.423-1.927c-4.974-6.726-12.591-10.58-20.906-10.58
		c-8.312,0-15.93,3.855-20.903,10.58l-1.423,1.927l-2.001-1.314c-12.545-8.248-20.034-22.109-20.034-37.078V49.748
		c0-24.461,19.9-44.367,44.362-44.367s44.364,19.905,44.364,44.367v56.662c0,14.968-7.489,28.83-20.034,37.078L113.038,144.802z
		 M90.709,127.234c9.113,0,17.523,3.874,23.434,10.709c9.98-7.418,15.87-19.04,15.87-31.533V49.748
		c0-21.674-17.632-39.306-39.304-39.306S51.407,28.074,51.407,49.748v56.662c0,12.493,5.891,24.116,15.87,31.533
		C73.188,131.108,81.599,127.234,90.709,127.234z"/>
	<g id="XMLID_325_">
		<circle id="XMLID_329_" style="fill-rule:evenodd;clip-rule:evenodd;fill:#E4EFFA;" cx="90.709" cy="103.403" r="12.347"/>
		<path id="XMLID_326_" style="fill:#3F71B2;" d="M90.709,117.015c-7.506,0-13.612-6.108-13.612-13.614
			c0-7.506,6.105-13.609,13.612-13.609c7.506,0,13.612,6.103,13.612,13.609C104.321,110.907,98.215,117.015,90.709,117.015z
			 M90.709,92.321c-6.11,0-11.082,4.971-11.082,11.079c0,6.113,4.971,11.084,11.082,11.084c6.11,0,11.082-4.971,11.082-11.084
			C101.791,97.292,96.819,92.321,90.709,92.321z"/>
	</g>
</g>
</svg>
