<?xml version="1.0" encoding="utf-8"?>
<!-- Generator: Adobe Illustrator 19.0.0, SVG Export Plug-In . SVG Version: 6.00 Build 0)  -->
<svg version="1.1" id="图层_1" xmlns="http://www.w3.org/2000/svg" xmlns:xlink="http://www.w3.org/1999/xlink" x="0px" y="0px"
	 viewBox="-58 59.4 64 64" style="enable-background:new -58 59.4 64 64;" xml:space="preserve">
<style type="text/css">
	.st0{fill:#DAEBF8;stroke:#3E71B1;stroke-miterlimit:10;}
	.st1{fill:#FFFFFF;stroke:#3E71B1;stroke-miterlimit:10;}
	.st2{fill:#3C6BA6;}
	.st3{fill:#DAEBF8;}
	.st4{fill:none;stroke:#3E71B1;stroke-width:2;stroke-linecap:round;stroke-miterlimit:10;}
</style>
<path id="XMLID_392_" class="st0" d="M-0.7,112.9h-15.2c-1.1,0-2-0.9-2-2V85.8c0-1.1,0.9-2,2-2h15.2c1.1,0,2,0.9,2,2v25.1
	C1.3,112,0.4,112.9-0.7,112.9z"/>
<rect id="XMLID_363_" x="-15.2" y="86.7" class="st1" width="13.6" height="18.5"/>
<rect id="XMLID_395_" x="-4" y="107.7" class="st2" width="3.2" height="3.3"/>
<rect id="XMLID_397_" x="-10.3" y="109.2" class="st2" width="3.1" height="1.8"/>
<rect id="XMLID_398_" x="-15.3" y="109.2" class="st2" width="3.1" height="1.8"/>
<polyline id="XMLID_424_" class="st3" points="-37.3,70 -47.7,70 -47.7,80.5 "/>
<path id="XMLID_399_" class="st4" d="M-22.6,104.8h-23.9c-1.1,0-2-0.9-2-2V71.4c0-1.1,0.9-2,2-2h36h7.1c1.1,0,2,0.9,2,2v7.1"/>
<line id="XMLID_407_" class="st4" x1="-35.8" y1="110.8" x2="-22.6" y2="110.8"/>
</svg>
