<?xml version="1.0" encoding="utf-8"?>
<!-- Generator: Adobe Illustrator 22.0.1, SVG Export Plug-In . SVG Version: 6.00 Build 0)  -->
<svg version="1.1" id="图层_1" xmlns="http://www.w3.org/2000/svg" xmlns:xlink="http://www.w3.org/1999/xlink" x="0px" y="0px"
	 viewBox="0 0 64 64" style="enable-background:new 0 0 64 64;" xml:space="preserve">
<style type="text/css">
	.st0{fill-rule:evenodd;clip-rule:evenodd;fill:#3F78BF;}
	.st1{fill-rule:evenodd;clip-rule:evenodd;fill:#4C4C4C;}
</style>
<g>
	<path class="st0" d="M53.5,47.6V12.5l-39,0c0-2.2,1.7-3.9,3.9-3.9h35.1c2.2,0,3.9,1.7,3.9,3.9v31.2C57.3,45.9,55.6,47.6,53.5,47.6z
		"/>
	<g>
		<g>
			<path class="st1" d="M47.6,14.5h-37c-2.2,0-3.9,1.7-3.9,3.9v33.2c0,2.2,1.7,3.9,3.9,3.9h37c2.2,0,3.9-1.7,3.9-3.9V18.3
				C51.5,16.2,49.8,14.5,47.6,14.5z M47.6,51.5h-37V18.3h37V51.5z M20.9,43.7c1.9,0,3.5-0.5,4.9-1.6c1.5-1.1,2.4-2.7,2.8-4.7
				l0.2-0.8h-4l-0.1,0.5c-0.3,1-0.7,1.8-1.4,2.3c-0.6,0.4-1.4,0.7-2.4,0.7c-1.5,0-2.6-0.4-3.3-1.3c-0.7-0.9-1-2.1-1-3.8
				c0-1.6,0.3-2.9,1-3.8c0.7-0.9,1.8-1.4,3.2-1.4c1,0,1.8,0.2,2.4,0.6c0.6,0.4,1,1,1.2,1.8l0.1,0.5h3.9l-0.1-0.8
				c-0.3-1.8-1.1-3.2-2.4-4.2c-1.3-1.1-3.1-1.6-5.1-1.6c-2.8,0-5,0.9-6.4,2.7c-1.3,1.5-1.9,3.6-1.9,6.1c0,2.5,0.6,4.5,1.9,6
				C15.8,42.8,18,43.7,20.9,43.7z M32.6,43.4l1.5-3.9h5.8l1.5,3.9h4.3l-6.7-16.9h-4l-6.7,16.9H32.6z M37,31.8l1.6,4.2h-3.2L37,31.8z
				"/>
		</g>
	</g>
</g>
</svg>
