<svg id="图层_1" data-name="图层 1" xmlns="http://www.w3.org/2000/svg" viewBox="0 0 64 64"><defs><style>.cls-1{fill:#4c4c4c;}.cls-1,.cls-2{fill-rule:evenodd;}.cls-2{fill:#3f78bf;}</style></defs><title>icons</title><g id="_Group_" data-name="&lt;Group&gt;"><g id="_Group_2" data-name="&lt;Group&gt;"><g id="_Group_3" data-name="&lt;Group&gt;"><path id="_Compound_Path_" data-name="&lt;Compound Path&gt;" class="cls-1" d="M22.26,16.37a3.9,3.9,0,1,0,3.9,3.9A3.9,3.9,0,0,0,22.26,16.37Zm0-7.8a11.69,11.69,0,0,0-3.9,22.72v6.62l2-.09v5.85h-2v7.8l3.84,3.9,4-3.9V31.29a11.69,11.69,0,0,0-3.9-22.72Zm0,19.5a7.8,7.8,0,1,1,7.8-7.8A7.8,7.8,0,0,1,22.26,28.07Z"/></g></g><path id="_Compound_Path_2" data-name="&lt;Compound Path&gt;" class="cls-2" d="M45.66,20.27a3.9,3.9,0,1,1-3.9-3.9A3.9,3.9,0,0,1,45.66,20.27Zm0,11V51.47l-4,3.9-3.84-3.9v-7.8h1.95V37.82l-1.95.09V31.29a11.71,11.71,0,0,1-3.13-1.68,15.55,15.55,0,0,0,2-3.45,7.8,7.8,0,1,0,0-11.78A15.55,15.55,0,0,0,34.76,11,11.68,11.68,0,1,1,45.66,31.29Z"/></g></svg>