<svg id="图层_1" data-name="图层 1" xmlns="http://www.w3.org/2000/svg" viewBox="0 0 64 64"><defs><style>.cls-1{fill:#3f78bf;fill-rule:evenodd;}</style></defs><title>icons</title><g id="_Group_" data-name="&lt;Group&gt;"><g id="_Group_2" data-name="&lt;Group&gt;"><path id="_Compound_Path_" data-name="&lt;Compound Path&gt;" class="cls-1" d="M22.26,8.57a11.69,11.69,0,0,0-3.9,22.72v6.62l2-.09v5.85h-2v7.8l3.84,3.9,4-3.9V31.29a11.69,11.69,0,0,0-3.9-22.72Zm0,15.6a3.9,3.9,0,1,1,3.9-3.9A3.9,3.9,0,0,1,22.26,24.17Zm19.5-15.6a11.59,11.59,0,0,0-7,2.38,15.51,15.51,0,0,1,3.11,9.32,3.9,3.9,0,1,1,3.9,3.9,3.9,3.9,0,0,1-3.9-3.9,15.51,15.51,0,0,1-3.13,9.34,11.71,11.71,0,0,0,3.13,1.68v6.62l2-.09v5.85h-2v7.8l3.84,3.9,4-3.9V31.29a11.69,11.69,0,0,0-3.9-22.72Z"/></g></g></svg>