<?xml version="1.0" encoding="utf-8"?>
<!-- Generator: Adobe Illustrator 21.1.0, SVG Export Plug-In . SVG Version: 6.00 Build 0)  -->
<svg version="1.1" id="图层_1" xmlns="http://www.w3.org/2000/svg" xmlns:xlink="http://www.w3.org/1999/xlink" x="0px" y="0px"
	 viewBox="0 0 64 64" style="enable-background:new 0 0 64 64;" xml:space="preserve">
<style type="text/css">
	.st0{fill-rule:evenodd;clip-rule:evenodd;fill:#3F78BF;}
	.st1{fill-rule:evenodd;clip-rule:evenodd;fill:#4C4C4C;}
	.st2{fill-rule:evenodd;clip-rule:evenodd;fill:none;}
</style>
<g>
	<path class="st0" d="M39.8,32L39.8,32h-2v7.8H34V16.4h2h1.9h2c4.3,0,7.8,3.5,7.8,7.8C47.6,28.5,44.1,32,39.8,32z M39.8,20.3h-2v7.8
		h2c2.2,0,3.9-1.7,3.9-3.9S42,20.3,39.8,20.3z M27.2,35.9h-8l-1,3.9l-3.7,0l6-23.4H26l6,23.4l-3.7,0L27.2,35.9z M23.2,21l-2.9,11
		h5.9L23.2,21z"/>
	<g>
		<g>
			<path class="st1" d="M51.5,8.6h-39c-2.2,0-3.9,1.7-3.9,3.9v31.2c0,2.2,1.7,3.9,3.9,3.9H30v3.9h-5.8c-1.1,0-2,0.9-2,2
				c0,1.1,0.9,1.9,2,1.9h15.6c1.1,0,2-0.9,2-1.9c0-1.1-0.9-2-2-2H34v-3.9h17.5c2.2,0,3.9-1.7,3.9-3.9V12.5
				C55.4,10.3,53.7,8.6,51.5,8.6z M51.5,43.7h-39V12.5h39V43.7z"/>
		</g>
	</g>
</g>
</svg>
