<?xml version="1.0" encoding="utf-8"?>
<!-- Generator: Adobe Illustrator 21.1.0, SVG Export Plug-In . SVG Version: 6.00 Build 0)  -->
<svg version="1.1" id="图层_1" xmlns="http://www.w3.org/2000/svg" xmlns:xlink="http://www.w3.org/1999/xlink" x="0px" y="0px"
	 viewBox="0 0 64 64" style="enable-background:new 0 0 64 64;" xml:space="preserve">
<style type="text/css">
	.st0{fill-rule:evenodd;clip-rule:evenodd;fill:#3F78BF;}
	.st1{fill-rule:evenodd;clip-rule:evenodd;fill:#4C4C4C;}
	.st2{fill-rule:evenodd;clip-rule:evenodd;fill:none;}
</style>
<path class="st0" d="M51.5,47.6H34v3.9h5.8c1.1,0,2,0.9,2,2s-0.9,2-2,2H24.2c-1.1,0-2-0.9-2-2s0.9-2,2-2H30v-3.9H12.5
	c-2.2,0-3.9-1.7-3.9-3.9V12.5c0-2.2,1.7-3.9,3.9-3.9h39c2.2,0,3.9,1.7,3.9,3.9v31.2C55.4,45.9,53.7,47.6,51.5,47.6z M26,16.4h-5.5
	l-6,23.4l3.7,0l1-3.9h8l1,3.9l3.7,0L26,16.4z M39.8,16.4h-2h-1.9h-2v23.4h3.9V32h2l0,0c4.3,0,7.8-3.5,7.8-7.8
	C47.6,19.9,44.1,16.4,39.8,16.4z M39.8,28.1h-2v-7.8h2c2.2,0,3.9,1.7,3.9,3.9S42,28.1,39.8,28.1z M23.2,21l2.9,11h-5.9L23.2,21z"/>
</svg>
