<?xml version="1.0" encoding="utf-8"?>
<!-- Generator: Adobe Illustrator 21.1.0, SVG Export Plug-In . SVG Version: 6.00 Build 0)  -->
<svg version="1.1" id="图层_1" xmlns="http://www.w3.org/2000/svg" xmlns:xlink="http://www.w3.org/1999/xlink" x="0px" y="0px"
	 viewBox="0 0 64 64" style="enable-background:new 0 0 64 64;" xml:space="preserve">
<style type="text/css">
	.st0{fill-rule:evenodd;clip-rule:evenodd;fill:#3F78BF;}
	.st1{fill-rule:evenodd;clip-rule:evenodd;fill:#4C4C4C;}
	.st2{fill-rule:evenodd;clip-rule:evenodd;fill:none;}
</style>
<path id="XMLID_2273_" class="st0" d="M51.5,53.5h-39c-2.2,0-3.9-1.7-3.9-3.9V14.5c0-2.2,1.7-3.9,3.9-3.9h13.6l7.8,9.8l17.5-0.1
	c2.2,0,3.9,1.7,3.9,3.9v25.3C55.4,51.7,53.7,53.5,51.5,53.5z M41.8,34l-8.6-7.5l-2.8,2.8l4.7,4.7H18.4v3.9h16.8l-4.8,4.9l2.8,2.8
	l8.6-7.8V34z M47.6,16.4H35.9L32,12.5h15.6c2.2,0,3.9,1.7,3.9,3.9v2h-3.9V16.4z"/>
</svg>
