<?xml version="1.0" encoding="utf-8"?>
<!-- Generator: Adobe Illustrator 21.1.0, SVG Export Plug-In . SVG Version: 6.00 Build 0)  -->
<svg version="1.1" id="图层_1" xmlns="http://www.w3.org/2000/svg" xmlns:xlink="http://www.w3.org/1999/xlink" x="0px" y="0px"
	 viewBox="0 0 64 64" style="enable-background:new 0 0 64 64;" xml:space="preserve">
<style type="text/css">
	.st0{fill-rule:evenodd;clip-rule:evenodd;fill:#3F78BF;}
	.st1{fill-rule:evenodd;clip-rule:evenodd;fill:#4C4C4C;}
	.st2{fill-rule:evenodd;clip-rule:evenodd;fill:none;}
</style>
<g>
	<path class="st0" d="M41.3,38.2c-2.7,2.7-6.8,3.1-10,1.3L23.8,47c-0.8,0.8-2.1,0.8-2.9,0c-0.8-0.8-0.8-2.1,0-2.9l7.5-7.5
		c-1.9-3.2-1.5-7.3,1.3-10c2.2-2.2,5.2-2.8,7.9-2.1l-5,5c-1.6,1.6-1.6,4.2,0,5.9c1.6,1.6,4.2,1.6,5.8,0l5-5
		C44.1,33,43.5,36.1,41.3,38.2z"/>
	<g>
		<g>
			<path class="st1" d="M53.5,16.4H41.8v-3.9c0-2.2-1.7-3.9-3.9-3.9H26.2c-2.2,0-3.9,1.7-3.9,3.9v3.9H10.5c-2.2,0-3.9,1.7-3.9,3.9
				v31.2c0,2.2,1.7,3.9,3.9,3.9h42.9c2.2,0,3.9-1.7,3.9-3.9V20.3C57.3,18.1,55.6,16.4,53.5,16.4z M26.2,12.5h11.7v3.9H26.2V12.5z
				 M53.5,51.5H10.5V20.3h42.9V51.5z"/>
		</g>
	</g>
</g>
</svg>
