<?xml version="1.0" encoding="utf-8"?>
<!-- Generator: Adobe Illustrator 21.1.0, SVG Export Plug-In . SVG Version: 6.00 Build 0)  -->
<svg version="1.1" id="图层_1" xmlns="http://www.w3.org/2000/svg" xmlns:xlink="http://www.w3.org/1999/xlink" x="0px" y="0px"
	 viewBox="0 0 64 64" style="enable-background:new 0 0 64 64;" xml:space="preserve">
<style type="text/css">
	.st0{fill-rule:evenodd;clip-rule:evenodd;fill:#3F78BF;}
	.st1{fill-rule:evenodd;clip-rule:evenodd;fill:#4C4C4C;}
	.st2{fill-rule:evenodd;clip-rule:evenodd;fill:none;}
</style>
<path class="st0" d="M53.5,55.4H10.6c-2.2,0-3.9-1.7-3.9-3.9V20.3c0-2.2,1.7-3.9,3.9-3.9h11.7v-3.9c0-2.2,1.7-3.9,3.9-3.9h11.7
	c2.2,0,3.9,1.7,3.9,3.9v3.9h11.7c2.2,0,3.9,1.7,3.9,3.9v31.2C57.3,53.7,55.6,55.4,53.5,55.4z M37.8,12.5H26.1v3.9h11.7V12.5z
	 M43.4,30.3l-5,5c-1.6,1.6-4.2,1.6-5.8,0c-1.6-1.6-1.6-4.2,0-5.9l5-5c-2.7-0.7-5.8,0-7.9,2.1c-2.7,2.7-3.1,6.9-1.3,10l-7.5,7.5
	c-0.8,0.8-0.8,2.1,0,2.9c0.8,0.8,2.1,0.8,2.9,0l7.5-7.5c3.2,1.9,7.3,1.5,10-1.3C43.5,36.1,44.1,33,43.4,30.3z"/>
</svg>
