<?xml version="1.0" encoding="utf-8"?>
<!-- Generator: Adobe Illustrator 21.1.0, SVG Export Plug-In . SVG Version: 6.00 Build 0)  -->
<svg version="1.1" id="图层_1" xmlns="http://www.w3.org/2000/svg" xmlns:xlink="http://www.w3.org/1999/xlink" x="0px" y="0px"
	 viewBox="0 0 64 64" style="enable-background:new 0 0 64 64;" xml:space="preserve">
<style type="text/css">
	.st0{fill-rule:evenodd;clip-rule:evenodd;fill:#3F78BF;}
	.st1{fill-rule:evenodd;clip-rule:evenodd;fill:#4C4C4C;}
	.st2{fill-rule:evenodd;clip-rule:evenodd;fill:none;}
</style>
<path class="st0" d="M53.5,57.3H37.8c-2.2,0-3.9-1.7-3.9-3.9V34c0-2.2,1.7-3.9,3.9-3.9l0,0h15.6l0,0c2.2,0,3.9,1.7,3.9,3.9v19.5
	C57.3,55.6,55.6,57.3,53.5,57.3z M51.5,35.9H39.8v15.6h11.7V35.9z M47.6,47.6h-3.9v-7.8h3.9V47.6z M32,16.4v-3.9
	c9.4,0,17.2,6.6,19.1,15.4h-4C45.2,21.3,39.2,16.4,32,16.4z M26.1,34H10.6c-2.2,0-3.9-1.7-3.9-3.9V10.6c0-2.2,1.7-3.9,3.9-3.9l0,0
	h15.6l0,0c2.2,0,3.9,1.7,3.9,3.9V30C30,32.2,28.3,34,26.1,34z M24.2,12.5H12.5v15.6h11.7V12.5z M20.3,24.2h-3.9v-7.8h3.9V24.2z
	 M32,47.6v3.9c-9.4,0-17.3-6.7-19.1-15.6h4C18.7,42.6,24.7,47.6,32,47.6z"/>
</svg>
