<?xml version="1.0" encoding="utf-8"?>
<!-- Generator: Adobe Illustrator 21.1.0, SVG Export Plug-In . SVG Version: 6.00 Build 0)  -->
<svg version="1.1" id="图层_1" xmlns="http://www.w3.org/2000/svg" xmlns:xlink="http://www.w3.org/1999/xlink" x="0px" y="0px"
	 viewBox="0 0 64 64" style="enable-background:new 0 0 64 64;" xml:space="preserve">
<style type="text/css">
	.st0{fill-rule:evenodd;clip-rule:evenodd;fill:#3F78BF;}
	.st1{fill-rule:evenodd;clip-rule:evenodd;fill:#4C4C4C;}
	.st2{fill-rule:evenodd;clip-rule:evenodd;fill:none;}
</style>
<path class="st0" d="M53.5,53.5c0,2.2-1.7,3.9-3.9,3.9H14.5c-2.2,0-3.9-1.7-3.9-3.9V10.6c0-2.2,1.7-3.9,3.9-3.9h35.1
	c2.2,0,3.9,1.7,3.9,3.9V53.5z M24.2,49.5h15.6c1.1,0,2-0.9,2-2s-0.9-1.9-2-1.9H24.2c-1.1,0-2,0.9-2,1.9S23.1,49.5,24.2,49.5z
	 M47.6,12.5H16.4v31.2h31.2V12.5z M43.7,39.8H20.3V16.4h23.4V39.8z M26.1,20.3h-3.9v15.6h3.9V20.3z M35.9,20.3H32v15.6h3.9V32
	c3.2,0,5.8-2.6,5.8-5.9S39.1,20.3,35.9,20.3z M35.9,28.1v-3.9c1.1,0,1.9,0.9,1.9,1.9S37,28.1,35.9,28.1z"/>
</svg>
