<?xml version="1.0" encoding="utf-8"?>
<!-- Generator: Adobe Illustrator 21.1.0, SVG Export Plug-In . SVG Version: 6.00 Build 0)  -->
<svg version="1.1" id="图层_1" xmlns="http://www.w3.org/2000/svg" xmlns:xlink="http://www.w3.org/1999/xlink" x="0px" y="0px"
	 viewBox="0 0 64 64" style="enable-background:new 0 0 64 64;" xml:space="preserve">
<style type="text/css">
	.st0{fill-rule:evenodd;clip-rule:evenodd;fill:#3F78BF;}
	.st1{fill-rule:evenodd;clip-rule:evenodd;fill:#4C4C4C;}
	.st2{fill-rule:evenodd;clip-rule:evenodd;fill:none;}
</style>
<path id="XMLID_900_" class="st0" d="M48.8,55.4L46,52.6l4.8-4.9H34v-3.9h16.7L46,39l2.8-2.8l8.6,7.5v3.9L48.8,55.4z M41.8,37.9v2
	H30.1v11.7H10.6c-2.2,0-3.9-1.7-3.9-3.9V12.5c0-2.2,1.7-3.9,3.9-3.9h35.1c2.2,0,3.9,1.7,3.9,3.9V32h-2L41.8,37.9z M16.4,41.8h9.8
	v-3.9h-9.8V41.8z M39.8,18.4H16.4v3.9h23.4V18.4z M39.8,28.1H16.4V32h23.4V28.1z"/>
</svg>
