<?xml version="1.0" encoding="utf-8"?>
<!-- Generator: Adobe Illustrator 21.1.0, SVG Export Plug-In . SVG Version: 6.00 Build 0)  -->
<svg version="1.1" id="图层_1" xmlns="http://www.w3.org/2000/svg" xmlns:xlink="http://www.w3.org/1999/xlink" x="0px" y="0px"
	 viewBox="0 0 64 64" style="enable-background:new 0 0 64 64;" xml:space="preserve">
<style type="text/css">
	.st0{fill-rule:evenodd;clip-rule:evenodd;fill:#3F78BF;}
	.st1{fill-rule:evenodd;clip-rule:evenodd;fill:#4C4C4C;}
	.st2{fill-rule:evenodd;clip-rule:evenodd;fill:none;}
</style>
<g>
	<g>
		<path class="st0" d="M54.7,22c0.4,2,0.7,4,0.7,6.1c0,15.1-12.2,27.3-27.3,27.3c-2.1,0-4.1-0.3-6.1-0.7c3.9,2.9,8.7,4.6,13.9,4.6
			c12.9,0,23.4-10.5,23.4-23.4C59.3,30.7,57.6,25.9,54.7,22z M51.5,28.1C51.5,15.2,41,4.7,28.1,4.7C15.2,4.7,4.7,15.2,4.7,28.1
			c0,12.9,10.5,23.4,23.4,23.4C41,51.5,51.5,41,51.5,28.1z M37.8,24.2h3.9v3.9h-3.9V24.2z M30,24.2H34v3.9H30V24.2z M22.2,24.2h3.9
			v3.9h-3.9V24.2z M14.5,24.2h3.9v3.9h-3.9V24.2z M10.2,35.9H46c-0.6,1.4-1.4,2.7-2.3,3.9H12.5C11.6,38.6,10.8,37.3,10.2,35.9z"/>
	</g>
</g>
</svg>
