<?xml version="1.0" encoding="utf-8"?>
<!-- Generator: Adobe Illustrator 21.1.0, SVG Export Plug-In . SVG Version: 6.00 Build 0)  -->
<svg version="1.1" id="图层_1" xmlns="http://www.w3.org/2000/svg" xmlns:xlink="http://www.w3.org/1999/xlink" x="0px" y="0px"
	 viewBox="0 0 64 64" style="enable-background:new 0 0 64 64;" xml:space="preserve">
<style type="text/css">
	.st0{fill-rule:evenodd;clip-rule:evenodd;fill:#3F78BF;}
	.st1{fill-rule:evenodd;clip-rule:evenodd;fill:#4C4C4C;}
	.st2{fill-rule:evenodd;clip-rule:evenodd;fill:none;}
</style>
<g id="XMLID_925_">
	<g>
		<path class="st0" d="M24,10.8H12.3c-2.2,0-3.9,1.7-3.9,3.9v11.7c0,2.2,1.7,3.9,3.9,3.9H24c2.2,0,3.9-1.7,3.9-3.9V14.7
			C27.9,12.5,26.1,10.8,24,10.8z M24,36.1H12.3c-2.2,0-3.9,1.7-3.9,3.9v11.7c0,2.2,1.7,3.9,3.9,3.9H24c2.2,0,3.9-1.7,3.9-3.9V40
			C27.9,37.9,26.1,36.1,24,36.1z M49.3,36.1H37.6c-2.2,0-3.9,1.7-3.9,3.9v11.7c0,2.2,1.7,3.9,3.9,3.9h11.7c2.2,0,3.9-1.7,3.9-3.9V40
			C53.2,37.9,51.5,36.1,49.3,36.1z M54.5,17.8l-8.3-8.3c-1.5-1.5-4-1.5-5.5,0l-8.3,8.3c-1.5,1.5-1.5,4,0,5.5l8.3,8.3
			c1.5,1.5,4,1.5,5.5,0l8.3-8.3C56,21.8,56,19.3,54.5,17.8z"/>
	</g>
</g>
</svg>
