<?xml version="1.0" encoding="utf-8"?>
<!-- Generator: Adobe Illustrator 21.1.0, SVG Export Plug-In . SVG Version: 6.00 Build 0)  -->
<svg version="1.1" id="图层_1" xmlns="http://www.w3.org/2000/svg" xmlns:xlink="http://www.w3.org/1999/xlink" x="0px" y="0px"
	 viewBox="0 0 64 64" style="enable-background:new 0 0 64 64;" xml:space="preserve">
<style type="text/css">
	.st0{fill-rule:evenodd;clip-rule:evenodd;fill:#3F78BF;}
	.st1{fill-rule:evenodd;clip-rule:evenodd;fill:#4C4C4C;}
	.st2{fill-rule:evenodd;clip-rule:evenodd;fill:none;}
</style>
<g>
	<g>
		<path class="st0" d="M37.9,8.6l-23.4,0c-2.2,0-3.9,1.7-3.9,3.9v39c0,2.2,1.7,3.9,3.9,3.9h23.4c2.2,0,3.9-1.7,3.9-3.9v-39
			C41.8,10.3,40,8.6,37.9,8.6z M32,43.7H20.3c-1.1,0-2-0.9-2-2s0.9-2,2-2H32c1.1,0,2,0.9,2,2S33.1,43.7,32,43.7z M32,34H20.3
			c-1.1,0-2-0.9-2-2s0.9-2,2-2H32c1.1,0,2,0.9,2,2S33.1,34,32,34z M32,24.2H20.3c-1.1,0-2-0.9-2-2s0.9-2,2-2H32c1.1,0,2,0.9,2,2
			S33.1,24.2,32,24.2z M49.5,8.6l-7.8,0c2.2,0,3.9,1.7,3.9,3.9v39c0,2.2-1.7,3.9-3.9,3.9l7.8,0c2.2,0,3.9-1.7,3.9-3.9v-39
			C53.5,10.3,51.7,8.6,49.5,8.6z"/>
	</g>
</g>
</svg>
