<?xml version="1.0" encoding="utf-8"?>
<!-- Generator: Adobe Illustrator 21.1.0, SVG Export Plug-In . SVG Version: 6.00 Build 0)  -->
<svg version="1.1" id="图层_1" xmlns="http://www.w3.org/2000/svg" xmlns:xlink="http://www.w3.org/1999/xlink" x="0px" y="0px"
	 viewBox="0 0 64 64" style="enable-background:new 0 0 64 64;" xml:space="preserve">
<style type="text/css">
	.st0{fill-rule:evenodd;clip-rule:evenodd;fill:#3F78BF;}
	.st1{fill-rule:evenodd;clip-rule:evenodd;fill:#4C4C4C;}
	.st2{fill-rule:evenodd;clip-rule:evenodd;fill:none;}
</style>
<path class="st0" d="M53.5,47.6V12.5l-39,0c0-2.2,1.7-3.9,3.9-3.9h35.1c2.2,0,3.9,1.7,3.9,3.9v31.2C57.3,45.9,55.6,47.6,53.5,47.6z
	 M51.5,18.4v33.2c0,2.2-1.7,3.9-3.9,3.9h-37c-2.2,0-3.9-1.7-3.9-3.9V18.4c0-2.2,1.7-3.9,3.9-3.9h37C49.8,14.5,51.5,16.2,51.5,18.4z
	 M18.4,28.1c-3.2,0-5.9,3.5-5.9,7.8s2.6,7.8,5.9,7.8s5.9-3.5,5.9-7.8S21.6,28.1,18.4,28.1z M35.9,28.1H24.2V32h3.9v11.7H32V32h3.9
	V28.1z M39.8,26.1L34,43.7h3.7l2.2-7.8l2.2,7.8h3.7L39.8,26.1z M18.4,39.8c-1.1,0-2-1.7-2-3.9c0-2.2,0.9-3.9,2-3.9s1.9,1.7,1.9,3.9
	C20.3,38.1,19.4,39.8,18.4,39.8z"/>
</svg>
