<?xml version="1.0" encoding="utf-8"?>
<!-- Generator: Adobe Illustrator 21.1.0, SVG Export Plug-In . SVG Version: 6.00 Build 0)  -->
<svg version="1.1" id="图层_1" xmlns="http://www.w3.org/2000/svg" xmlns:xlink="http://www.w3.org/1999/xlink" x="0px" y="0px"
	 viewBox="0 0 64 64" style="enable-background:new 0 0 64 64;" xml:space="preserve">
<style type="text/css">
	.st0{fill-rule:evenodd;clip-rule:evenodd;fill:#3F78BF;}
	.st1{fill-rule:evenodd;clip-rule:evenodd;fill:#4C4C4C;}
	.st2{fill-rule:evenodd;clip-rule:evenodd;fill:none;}
</style>
<g>
	<g>
		<path class="st0" d="M51.5,16.4h-2v31.2c0,2.2-1.7,3.9-3.9,3.9H20.3v2c0,2.2,1.7,3.9,3.9,3.9h27.3c2.2,0,3.9-1.7,3.9-3.9V20.3
			C55.4,18.1,53.7,16.4,51.5,16.4z M47.6,45.6V10.5c0-2.2-1.7-3.9-3.9-3.9H12.5c-2.2,0-3.9,1.7-3.9,3.9v35.1c0,2.2,1.7,3.9,3.9,3.9
			h31.2C45.9,49.5,47.6,47.8,47.6,45.6z M34,41.8H22.2c-1.1,0-2-0.9-2-2s0.9-2,2-2H34c1.1,0,2,0.9,2,2S35,41.8,34,41.8z M39.8,34
			H16.4V14.5h23.4V34z M35.9,18.3H20.3V30h15.6V18.3z"/>
	</g>
</g>
</svg>
