<?xml version="1.0" encoding="utf-8"?>
<!-- Generator: Adobe Illustrator 21.1.0, SVG Export Plug-In . SVG Version: 6.00 Build 0)  -->
<svg version="1.1" id="图层_1" xmlns="http://www.w3.org/2000/svg" xmlns:xlink="http://www.w3.org/1999/xlink" x="0px" y="0px"
	 viewBox="0 0 64 64" style="enable-background:new 0 0 64 64;" xml:space="preserve">
<style type="text/css">
	.st0{fill-rule:evenodd;clip-rule:evenodd;fill:#3F78BF;}
	.st1{fill-rule:evenodd;clip-rule:evenodd;fill:#4C4C4C;}
	.st2{fill-rule:evenodd;clip-rule:evenodd;fill:none;}
</style>
<g id="XMLID_499_">
	<path id="XMLID_2108_" class="st1" d="M51.5,55.4h-39c-2.2,0-3.9-1.7-3.9-3.9V22.2c0-2.2,1.7-3.9,3.9-3.9h13.6l7.8,9.8l17.5-0.1
		c2.2,0,3.9,1.7,3.9,3.9v19.5C55.4,53.7,53.7,55.4,51.5,55.4z M51.5,32L32,32.1l-7.8-9.8H12.5v29.2h39V32z"/>
	<g id="XMLID_417_">
		<g>
			<path class="st0" d="M47.6,12.5h-5.8c0-2.2-1.7-3.9-3.9-3.9H16.4c-2.2,0-3.9,1.7-3.9,3.9v3.9h3.9v-3.9h21.4v13.6h3.9v-9.8h5.8
				v9.8h3.9v-9.8C51.5,14.2,49.8,12.5,47.6,12.5z"/>
		</g>
	</g>
</g>
</svg>
