<?xml version="1.0" encoding="utf-8"?>
<!-- Generator: Adobe Illustrator 21.1.0, SVG Export Plug-In . SVG Version: 6.00 Build 0)  -->
<svg version="1.1" id="图层_1" xmlns="http://www.w3.org/2000/svg" xmlns:xlink="http://www.w3.org/1999/xlink" x="0px" y="0px"
	 viewBox="0 0 64 64" style="enable-background:new 0 0 64 64;" xml:space="preserve">
<style type="text/css">
	.st0{fill-rule:evenodd;clip-rule:evenodd;fill:#3F78BF;}
	.st1{fill-rule:evenodd;clip-rule:evenodd;fill:#4C4C4C;}
	.st2{fill-rule:evenodd;clip-rule:evenodd;fill:none;}
</style>
<g id="XMLID_613_">
	<path id="XMLID_2176_" class="st1" d="M47.6,18.4v-2H35.9L32,12.5h15.6c2.2,0,3.9,1.7,3.9,3.9v2H47.6z"/>
	<path id="XMLID_2173_" class="st1" d="M51.5,53.5h-39c-2.2,0-3.9-1.7-3.9-3.9V14.5c0-2.2,1.7-3.9,3.9-3.9h13.7l7.8,9.8l17.5-0.1
		c2.2,0,3.9,1.7,3.9,3.9v25.3C55.4,51.7,53.7,53.5,51.5,53.5z M51.5,24.2L32,24.3l-7.8-9.8H12.5v35.1h39V24.2z"/>
	<g id="XMLID_592_">
		<g>
			<polygon class="st0" points="33.1,26.5 30.4,29.3 35.1,34 18.3,34 18.3,37.9 35.2,37.9 30.4,42.8 33.1,45.6 41.8,37.9 41.8,34 
							"/>
		</g>
	</g>
</g>
</svg>
