<?xml version="1.0" encoding="utf-8"?>
<!-- Generator: Adobe Illustrator 21.1.0, SVG Export Plug-In . SVG Version: 6.00 Build 0)  -->
<svg version="1.1" id="图层_1" xmlns="http://www.w3.org/2000/svg" xmlns:xlink="http://www.w3.org/1999/xlink" x="0px" y="0px"
	 viewBox="0 0 64 64" style="enable-background:new 0 0 64 64;" xml:space="preserve">
<style type="text/css">
	.st0{fill-rule:evenodd;clip-rule:evenodd;fill:#3F78BF;}
	.st1{fill-rule:evenodd;clip-rule:evenodd;fill:#4C4C4C;}
	.st2{fill-rule:evenodd;clip-rule:evenodd;fill:none;}
</style>
<g>
	<path class="st0" d="M47.6,26.1c-5.4,0-9.7-4.4-9.7-9.8s4.4-9.7,9.7-9.7s9.8,4.4,9.8,9.7S53,26.1,47.6,26.1z M47.6,10.6
		c-3.2,0-5.8,2.6-5.8,5.8s2.6,5.9,5.8,5.9c3.2,0,5.9-2.6,5.9-5.9S50.8,10.6,47.6,10.6z"/>
	<g>
		<g>
			<path class="st1" d="M24.2,32h3.9v11.7H32V32h3.9v-3.9H24.2V32z M37.6,43.7l2.2-7.8l2.2,7.8h3.7L40.4,28c-0.3-0.2-0.7-0.4-1-0.7
				L34,43.7H37.6z M47.6,30v23.4h-37v-37H34c0-1.4,0.3-2.7,0.6-3.9h-24c-2.2,0-3.9,1.7-3.9,3.9v37c0,2.2,1.7,3.9,3.9,3.9h37
				c2.2,0,3.9-1.7,3.9-3.9v-24C50.3,29.8,49,30,47.6,30z M12.5,35.9c0,4.3,2.6,7.8,5.8,7.8c3.2,0,5.9-3.5,5.9-7.8
				c0-4.3-2.6-7.8-5.9-7.8C15.1,28.1,12.5,31.6,12.5,35.9z M20.3,35.9c0,2.2-0.9,3.9-2,3.9c-1.1,0-1.9-1.7-1.9-3.9
				c0-2.2,0.9-3.9,1.9-3.9C19.4,32,20.3,33.7,20.3,35.9z"/>
		</g>
	</g>
</g>
</svg>
