<?xml version="1.0" encoding="utf-8"?>
<!-- Generator: Adobe Illustrator 21.1.0, SVG Export Plug-In . SVG Version: 6.00 Build 0)  -->
<svg version="1.1" id="图层_1" xmlns="http://www.w3.org/2000/svg" xmlns:xlink="http://www.w3.org/1999/xlink" x="0px" y="0px"
	 viewBox="0 0 64 64" style="enable-background:new 0 0 64 64;" xml:space="preserve">
<style type="text/css">
	.st0{fill-rule:evenodd;clip-rule:evenodd;fill:#3F78BF;}
	.st1{fill-rule:evenodd;clip-rule:evenodd;fill:#4C4C4C;}
	.st2{fill-rule:evenodd;clip-rule:evenodd;fill:none;}
</style>
<g>
	<g>
		<rect x="24.2" y="28.1" class="st0" width="3.9" height="9.8"/>
		<rect x="30" y="18.4" class="st0" width="3.9" height="19.5"/>
		<rect x="35.9" y="22.3" class="st0" width="3.9" height="15.6"/>
	</g>
	<g>
		<g>
			<path class="st1" d="M39.8,45.6H24.2c-1.1,0-2,0.9-2,2s0.9,2,2,2h15.6c1.1,0,2-0.9,2-2S40.9,45.6,39.8,45.6z M47.6,12.5H16.4
				v31.2h31.2V12.5z M43.7,39.8H20.3V16.4h23.4V39.8z M49.5,6.6H14.5c-2.2,0-3.9,1.7-3.9,3.9v42.9c0,2.2,1.7,3.9,3.9,3.9h35.1
				c2.2,0,3.9-1.7,3.9-3.9V10.5C53.5,8.4,51.7,6.6,49.5,6.6z M49.5,53.5H14.5V10.5h35.1V53.5z"/>
		</g>
	</g>
</g>
</svg>
