<?xml version="1.0" encoding="utf-8"?>
<!-- Generator: Adobe Illustrator 21.1.0, SVG Export Plug-In . SVG Version: 6.00 Build 0)  -->
<svg version="1.1" id="图层_1" xmlns="http://www.w3.org/2000/svg" xmlns:xlink="http://www.w3.org/1999/xlink" x="0px" y="0px"
	 viewBox="0 0 64 64" style="enable-background:new 0 0 64 64;" xml:space="preserve">
<style type="text/css">
	.st0{fill-rule:evenodd;clip-rule:evenodd;fill:#3F78BF;}
	.st1{fill-rule:evenodd;clip-rule:evenodd;fill:#4C4C4C;}
	.st2{fill-rule:evenodd;clip-rule:evenodd;fill:none;}
</style>
<g>
	<path class="st0" d="M51.5,51.5H18.4c-2.2,0-3.9-1.7-3.9-3.9h33.1c2.2,0,3.9-1.7,3.9-3.9V22.2l0,0v-3.9l0,0c2.2,0,3.9,1.7,3.9,3.9
		v25.3C55.4,49.8,53.7,51.5,51.5,51.5z"/>
	<g>
		<g>
			<path class="st1" d="M45.7,12.5H12.5c-2.2,0-3.9,1.7-3.9,3.9v25.4c0,2.2,1.7,3.9,3.9,3.9h33.2c2.2,0,3.9-1.7,3.9-3.9V16.4
				C49.6,14.2,47.8,12.5,45.7,12.5z M42.6,16.4L29,30.1L15.4,16.4H42.6z M12.5,18.8l10.2,10.3L12.5,39.4V18.8z M15.5,41.8l9.9-10
				l1,1c1.5,1.5,3.9,1.5,5.3,0l1.1-1.1l9.9,10H15.5z M45.7,39.4L35.4,29.1l10.2-10.3V39.4z"/>
		</g>
	</g>
</g>
</svg>
