<?xml version="1.0" encoding="utf-8"?>
<!-- Generator: Adobe Illustrator 21.1.0, SVG Export Plug-In . SVG Version: 6.00 Build 0)  -->
<svg version="1.1" id="图层_1" xmlns="http://www.w3.org/2000/svg" xmlns:xlink="http://www.w3.org/1999/xlink" x="0px" y="0px"
	 viewBox="0 0 64 64" style="enable-background:new 0 0 64 64;" xml:space="preserve">
<style type="text/css">
	.st0{fill-rule:evenodd;clip-rule:evenodd;fill:#3F78BF;}
	.st1{fill-rule:evenodd;clip-rule:evenodd;fill:#4C4C4C;}
	.st2{fill-rule:evenodd;clip-rule:evenodd;fill:none;}
</style>
<g id="XMLID_2126_">
	<g>
		<path class="st0" d="M51.5,28.1L34,28.2l-7.8-9.8H12.5c-2.2,0-3.9,1.7-3.9,3.9v29.2c0,2.2,1.7,3.9,3.9,3.9h39
			c2.2,0,3.9-1.7,3.9-3.9V32C55.4,29.8,53.7,28.1,51.5,28.1z M16.4,12.5h21.4v13.7l3.9,0v-9.8h5.8v9.8l3.9,0v-9.8
			c0-2.2-1.7-3.9-3.9-3.9h-5.8c0-2.2-1.7-3.9-3.9-3.9H16.4c-2.2,0-3.9,1.7-3.9,3.9v3.9h3.9V12.5z"/>
	</g>
</g>
</svg>
