<?xml version="1.0" encoding="utf-8"?>
<!-- Generator: Adobe Illustrator 21.1.0, SVG Export Plug-In . SVG Version: 6.00 Build 0)  -->
<svg version="1.1" id="图层_1" xmlns="http://www.w3.org/2000/svg" xmlns:xlink="http://www.w3.org/1999/xlink" x="0px" y="0px"
	 viewBox="0 0 64 64" style="enable-background:new 0 0 64 64;" xml:space="preserve">
<style type="text/css">
	.st0{fill-rule:evenodd;clip-rule:evenodd;fill:#3F78BF;}
	.st1{fill-rule:evenodd;clip-rule:evenodd;fill:#4C4C4C;}
	.st2{fill-rule:evenodd;clip-rule:evenodd;fill:none;}
</style>
<g id="XMLID_1111_">
	<path id="XMLID_1142_" class="st1" d="M51.5,51.5h-39c-2.2,0-3.9-1.7-3.9-3.9V16.4c0-2.2,1.7-3.9,3.9-3.9h39c2.2,0,3.9,1.7,3.9,3.9
		v31.2C55.4,49.8,53.7,51.5,51.5,51.5z M51.5,16.4h-39v31.2h39V16.4z"/>
	<g id="XMLID_1109_">
		<g>
			<path class="st0" d="M51.5,16.4H49l-17,19l-17-19h-2.5v3l12,13.3l-12,11.9v3H15l12.1-12l3.5,3.9c0.8,0.8,2,0.8,2.8,0l3.5-3.9
				l12.1,12h2.5v-3l-12-11.9l12-13.3V16.4z"/>
		</g>
	</g>
	<path id="XMLID_1133_" class="st2" d="M51.5,51.5h-39c-2.2,0-3.9-1.7-3.9-3.9V16.4c0-2.2,1.7-3.9,3.9-3.9h39c2.2,0,3.9,1.7,3.9,3.9
		v31.2C55.4,49.8,53.7,51.5,51.5,51.5z M51.5,16.4h-39v31.2h39V16.4z"/>
</g>
</svg>
