<?xml version="1.0" encoding="utf-8"?>
<!-- Generator: Adobe Illustrator 21.1.0, SVG Export Plug-In . SVG Version: 6.00 Build 0)  -->
<svg version="1.1" id="图层_1" xmlns="http://www.w3.org/2000/svg" xmlns:xlink="http://www.w3.org/1999/xlink" x="0px" y="0px"
	 viewBox="0 0 64 64" style="enable-background:new 0 0 64 64;" xml:space="preserve">
<style type="text/css">
	.st0{fill-rule:evenodd;clip-rule:evenodd;fill:#3F78BF;}
	.st1{fill-rule:evenodd;clip-rule:evenodd;fill:#4C4C4C;}
	.st2{fill-rule:evenodd;clip-rule:evenodd;fill:none;}
</style>
<g>
	<path class="st0" d="M53.5,47.6V12.5l-39,0c0-2.2,1.7-3.9,3.9-3.9h35.1c2.2,0,3.9,1.7,3.9,3.9v31.2C57.3,45.9,55.6,47.6,53.5,47.6z
		"/>
	<g>
		<g>
			<path class="st1" d="M28.1,43.7H32V32h3.9v-3.9H24.2V32h3.9V43.7z M37.6,43.7l2.2-7.8l2.2,7.8h3.7l-5.9-17.5L34,43.7H37.6z
				 M18.3,43.7c3.2,0,5.9-3.5,5.9-7.8c0-4.3-2.6-7.8-5.9-7.8c-3.2,0-5.8,3.5-5.8,7.8C12.5,40.2,15.1,43.7,18.3,43.7z M18.3,32
				c1.1,0,2,1.7,2,3.9c0,2.2-0.9,3.9-2,3.9c-1.1,0-1.9-1.7-1.9-3.9C16.4,33.7,17.3,32,18.3,32z M47.6,14.4h-37
				c-2.2,0-3.9,1.7-3.9,3.9v33.1c0,2.2,1.7,3.9,3.9,3.9h37c2.2,0,3.9-1.7,3.9-3.9V18.4C51.5,16.2,49.8,14.4,47.6,14.4z M47.6,51.5
				h-37V18.4h37V51.5z"/>
		</g>
	</g>
</g>
</svg>
