<?xml version="1.0" encoding="utf-8"?>
<!-- Generator: Adobe Illustrator 21.1.0, SVG Export Plug-In . SVG Version: 6.00 Build 0)  -->
<svg version="1.1" id="图层_1" xmlns="http://www.w3.org/2000/svg" xmlns:xlink="http://www.w3.org/1999/xlink" x="0px" y="0px"
	 viewBox="0 0 64 64" style="enable-background:new 0 0 64 64;" xml:space="preserve">
<style type="text/css">
	.st0{fill-rule:evenodd;clip-rule:evenodd;fill:#3F78BF;}
	.st1{fill-rule:evenodd;clip-rule:evenodd;fill:#4C4C4C;}
	.st2{fill-rule:evenodd;clip-rule:evenodd;fill:none;}
</style>
<g>
	<g>
		<path class="st0" d="M47.6,30C40.1,30,34,23.9,34,16.4c0-1.9,0.4-3.7,1.1-5.3c-1.6-0.3-3.3-0.5-5-0.5C17.1,10.5,6.7,21,6.7,34
			c0,12.9,10.5,23.4,23.4,23.4C43,57.3,53.5,46.9,53.5,34c0-1.7-0.2-3.4-0.5-5C51.3,29.7,49.5,30,47.6,30z M39.8,30h3.9V34h-3.9V30z
			 M32,30h3.9V34H32V30z M24.2,30h3.9V34h-3.9V30z M16.4,30h3.9V34h-3.9V30z M45.6,45.6H14.5c-0.9-1.2-1.7-2.5-2.3-3.9h35.7
			C47.3,43.1,46.5,44.4,45.6,45.6z M47.6,6.6c-5.4,0-9.7,4.4-9.7,9.8c0,5.4,4.4,9.8,9.7,9.8c5.4,0,9.8-4.4,9.8-9.8
			C57.3,11,53,6.6,47.6,6.6z"/>
	</g>
</g>
</svg>
