<?xml version="1.0" encoding="utf-8"?>
<!-- Generator: Adobe Illustrator 21.1.0, SVG Export Plug-In . SVG Version: 6.00 Build 0)  -->
<svg version="1.1" id="图层_1" xmlns="http://www.w3.org/2000/svg" xmlns:xlink="http://www.w3.org/1999/xlink" x="0px" y="0px"
	 viewBox="0 0 64 64" style="enable-background:new 0 0 64 64;" xml:space="preserve">
<style type="text/css">
	.st0{fill-rule:evenodd;clip-rule:evenodd;fill:#3F78BF;}
	.st1{fill-rule:evenodd;clip-rule:evenodd;fill:#4C4C4C;}
	.st2{fill-rule:evenodd;clip-rule:evenodd;fill:none;}
</style>
<g>
	<path class="st0" d="M47.6,26.1c-5.4,0-9.7-4.4-9.7-9.8s4.4-9.7,9.7-9.7s9.8,4.4,9.8,9.7S53,26.1,47.6,26.1z M47.6,10.6
		c-3.2,0-5.8,2.6-5.8,5.8s2.6,5.9,5.8,5.9c3.2,0,5.9-2.6,5.9-5.9S50.8,10.6,47.6,10.6z"/>
	<g>
		<g>
			<path class="st1" d="M43.7,30h-3.9V34h3.9V30z M52.9,29c-1.2,0.5-2.5,0.8-3.8,0.9c0.3,1.3,0.4,2.7,0.4,4.1c0,2.8-0.6,5.4-1.6,7.8
				H12.2c-1-2.4-1.6-5-1.6-7.8c0-10.8,8.7-19.5,19.5-19.5c1.4,0,2.7,0.2,4.1,0.4c0.1-1.3,0.4-2.6,0.9-3.8c-1.6-0.3-3.3-0.5-5-0.5
				C17.1,10.5,6.7,21,6.7,34c0,12.9,10.5,23.4,23.4,23.4C43,57.3,53.5,46.9,53.5,34C53.5,32.2,53.3,30.6,52.9,29z M30,53.5
				c-6.4,0-12-3.1-15.6-7.8h31.1C42.1,50.4,36.4,53.5,30,53.5z M32,34h3.9V30H32V34z M28.1,34V30h-3.9V34H28.1z M20.3,34V30h-3.9V34
				H20.3z"/>
		</g>
	</g>
</g>
</svg>
