<?xml version="1.0" encoding="utf-8"?>
<!-- Generator: Adobe Illustrator 21.1.0, SVG Export Plug-In . SVG Version: 6.00 Build 0)  -->
<svg version="1.1" id="图层_1" xmlns="http://www.w3.org/2000/svg" xmlns:xlink="http://www.w3.org/1999/xlink" x="0px" y="0px"
	 viewBox="0 0 64 64" style="enable-background:new 0 0 64 64;" xml:space="preserve">
<style type="text/css">
	.st0{fill-rule:evenodd;clip-rule:evenodd;fill:#3F78BF;}
	.st1{fill-rule:evenodd;clip-rule:evenodd;fill:#4C4C4C;}
	.st2{fill-rule:evenodd;clip-rule:evenodd;fill:none;}
</style>
<g>
	<path class="st0" d="M57.7,49.9c-1.3,0.5-2,2-1.4,3.3c0.8,1.7-0.5,3.4-2.2,3.4c-0.3,0-0.7-0.1-1-0.2c-0.3-0.2-0.7-0.2-1-0.2
		c-1,0-1.9,0.6-2.3,1.6c-0.4,1.1-1.3,1.6-2.3,1.6c-0.9,0-1.9-0.5-2.3-1.6c-0.4-1-1.3-1.6-2.3-1.6c-0.3,0-0.7,0.1-1,0.2
		c-0.4,0.2-0.7,0.2-1,0.2c-1.6,0-3-1.7-2.2-3.4c0.6-1.3,0-2.8-1.4-3.3h0c-2.1-0.8-2.1-3.8,0-4.5h0c1.3-0.5,2-2,1.4-3.3
		c-0.8-1.7,0.5-3.4,2.2-3.4c0.3,0,0.7,0.1,1,0.2c0.3,0.2,0.7,0.2,1,0.2c1,0,1.9-0.6,2.3-1.6c0.4-1.1,1.3-1.6,2.3-1.6
		c0.9,0,1.9,0.5,2.3,1.6c0.4,1,1.3,1.6,2.3,1.6c0.3,0,0.7-0.1,1-0.2c0.4-0.2,0.7-0.2,1-0.2c1.6,0,3,1.7,2.2,3.4
		c-0.6,1.3,0,2.8,1.4,3.3C59.8,46.1,59.8,49.1,57.7,49.9z M47.6,41.8c-3.2,0-5.9,2.6-5.9,5.8c0,3.2,2.6,5.8,5.9,5.8
		c3.2,0,5.9-2.6,5.9-5.8C53.5,44.4,50.8,41.8,47.6,41.8z"/>
	<g>
		<g>
			<path class="st1" d="M12.5,34h23.4V12.5H12.5V34z M16.4,16.4H32V30H16.4V16.4z M39.8,4.7H8.6c-2.2,0-3.9,1.7-3.9,3.9v37
				c0,2.2,1.7,3.9,3.9,3.9h24c-0.9-1.1-0.9-2.8,0-3.9h-24v-37h31.2v27.2c0.1,0,0.2,0.1,0.4,0.1c0.4,0.2,0.9,0.3,1.4,0.3
				c0.8,0,1.6-0.3,2.2-0.9V8.6C43.7,6.4,41.9,4.7,39.8,4.7z M18.3,37.8c-1.1,0-1.9,0.9-1.9,2s0.9,2,1.9,2H30c1.1,0,2-0.9,2-2
				s-0.9-2-2-2H18.3z"/>
		</g>
	</g>
</g>
</svg>
