<?xml version="1.0" encoding="utf-8"?>
<!-- Generator: Adobe Illustrator 21.1.0, SVG Export Plug-In . SVG Version: 6.00 Build 0)  -->
<svg version="1.1" id="图层_1" xmlns="http://www.w3.org/2000/svg" xmlns:xlink="http://www.w3.org/1999/xlink" x="0px" y="0px"
	 viewBox="0 0 64 64" style="enable-background:new 0 0 64 64;" xml:space="preserve">
<style type="text/css">
	.st0{fill-rule:evenodd;clip-rule:evenodd;fill:#3F78BF;}
	.st1{fill-rule:evenodd;clip-rule:evenodd;fill:#4C4C4C;}
	.st2{fill-rule:evenodd;clip-rule:evenodd;fill:none;}
</style>
<g>
	<path class="st0" d="M55.7,47.9c-1.3,0.5-2,2-1.4,3.3c0.8,1.7-0.5,3.4-2.2,3.4c-0.3,0-0.7-0.1-1-0.2c-0.3-0.2-0.7-0.2-1-0.2
		c-1,0-1.9,0.6-2.3,1.6c-0.4,1.1-1.3,1.6-2.3,1.6c-0.9,0-1.9-0.5-2.3-1.6c-0.4-1-1.3-1.6-2.3-1.6c-0.3,0-0.7,0.1-1,0.2
		c-0.4,0.2-0.7,0.2-1,0.2c-1.6,0-3-1.7-2.2-3.4c0.6-1.3,0-2.8-1.4-3.3h0c-2.1-0.8-2.1-3.8,0-4.5h0c1.3-0.5,2-2,1.4-3.3
		c-0.8-1.7,0.5-3.4,2.2-3.4c0.3,0,0.7,0.1,1,0.2c0.3,0.2,0.7,0.2,1,0.2c1,0,1.9-0.6,2.3-1.6c0.4-1.1,1.3-1.6,2.3-1.6
		c0.9,0,1.9,0.5,2.3,1.6c0.4,1,1.3,1.6,2.3,1.6c0.3,0,0.7-0.1,1-0.2c0.4-0.2,0.7-0.2,1-0.2c1.6,0,3,1.7,2.2,3.4
		c-0.6,1.3,0,2.8,1.4,3.3C57.9,44.1,57.9,47.2,55.7,47.9z M45.6,39.8c-3.2,0-5.9,2.6-5.9,5.8c0,3.2,2.6,5.8,5.9,5.8
		c3.2,0,5.9-2.6,5.9-5.8C51.5,42.4,48.9,39.8,45.6,39.8z"/>
	<g>
		<g>
			<path class="st1" d="M30,6.6c-9.7,0-17.5,7.9-17.5,17.6V34L6.6,47.6h13.8c0.9,4.5,4.8,7.8,9.6,7.8c1.3,0,2.5-0.3,3.6-0.7
				c0-0.5,0-1.1,0.3-1.7c0.5-1,0.3-2.1-0.2-3c-1,0.9-2.3,1.4-3.7,1.4c-2.5,0-4.7-1.6-5.5-3.9h6.1c-0.9-1.1-0.9-2.8,0-3.9H12.5l3.1-7
				l0.5-1.1l0.3-1.7v-9.8c0-7.4,6-13.6,13.7-13.6c7.7,0,13.6,6.2,13.6,13.6v6.5c0.6-0.4,1.2-0.6,1.9-0.6c0.7,0,1.4,0.3,2,0.7v-6.6
				C47.6,14.5,39.7,6.6,30,6.6z"/>
		</g>
	</g>
</g>
</svg>
