<?xml version="1.0" encoding="utf-8"?>
<!-- Generator: Adobe Illustrator 21.1.0, SVG Export Plug-In . SVG Version: 6.00 Build 0)  -->
<svg version="1.1" id="图层_1" xmlns="http://www.w3.org/2000/svg" xmlns:xlink="http://www.w3.org/1999/xlink" x="0px" y="0px"
	 viewBox="0 0 64 64" style="enable-background:new 0 0 64 64;" xml:space="preserve">
<style type="text/css">
	.st0{fill-rule:evenodd;clip-rule:evenodd;fill:#3F78BF;}
	.st1{fill-rule:evenodd;clip-rule:evenodd;fill:#4C4C4C;}
	.st2{fill-rule:evenodd;clip-rule:evenodd;fill:none;}
</style>
<g>
	<path class="st0" d="M49.5,8.6c2.2,0,3.9,1.7,3.9,3.9v39c0,2.2-1.7,3.9-3.9,3.9l-7.8,0c2.2,0,3.9-1.7,3.9-3.9v0h3.9v-39h-3.9
		c0-2.2-1.7-3.9-3.9-3.9L49.5,8.6z"/>
	<g>
		<g>
			<path class="st1" d="M20.3,24.2H32c1.1,0,2-0.9,2-2s-0.9-2-2-2H20.3c-1.1,0-2,0.9-2,2S19.2,24.2,20.3,24.2z M20.3,34H32
				c1.1,0,2-0.9,2-2s-0.9-2-2-2H20.3c-1.1,0-2,0.9-2,2S19.2,34,20.3,34z M37.8,8.6H14.5c-2.2,0-3.9,1.7-3.9,3.9v39
				c0,2.2,1.7,3.9,3.9,3.9h23.4c2.2,0,3.9-1.7,3.9-3.9v-39C41.8,10.3,40,8.6,37.8,8.6z M37.8,51.5H14.5v-39h23.4V51.5z M20.3,43.7
				H32c1.1,0,2-0.9,2-2s-0.9-2-2-2H20.3c-1.1,0-2,0.9-2,2S19.2,43.7,20.3,43.7z"/>
		</g>
	</g>
</g>
</svg>
