<?xml version="1.0" encoding="utf-8"?>
<!-- Generator: Adobe Illustrator 21.1.0, SVG Export Plug-In . SVG Version: 6.00 Build 0)  -->
<svg version="1.1" id="图层_1" xmlns="http://www.w3.org/2000/svg" xmlns:xlink="http://www.w3.org/1999/xlink" x="0px" y="0px"
	 viewBox="0 0 64 64" style="enable-background:new 0 0 64 64;" xml:space="preserve">
<style type="text/css">
	.st0{fill-rule:evenodd;clip-rule:evenodd;fill:#3F78BF;}
	.st1{fill-rule:evenodd;clip-rule:evenodd;fill:#4C4C4C;}
	.st2{fill-rule:evenodd;clip-rule:evenodd;fill:none;}
</style>
<g>
	<path class="st0" d="M47,27.9c-1.8-6.6-7.8-11.5-15-11.5v-3.9c9.4,0,17.2,6.6,19.1,15.4H47z M32,51.5c-9.4,0-17.3-6.7-19.1-15.6h4
		c1.7,6.7,7.8,11.7,15.1,11.7V51.5z"/>
	<g>
		<g>
			<path class="st1" d="M24.2,12.5H12.5v15.6h11.7V12.5z M20.3,24.2h-3.9v-7.8h3.9V24.2z M53.5,30H37.8C35.7,30,34,31.8,34,34v19.5
				c0,2.2,1.7,3.9,3.9,3.9h15.6c2.2,0,3.9-1.7,3.9-3.9V34C57.3,31.8,55.6,30,53.5,30z M53.5,53.5H37.8V34h15.6V53.5z M51.5,35.9
				H39.8v15.6h11.7V35.9z M47.6,47.6h-3.9v-7.8h3.9V47.6z M26.2,6.6H10.5c-2.2,0-3.9,1.7-3.9,3.9V30c0,2.2,1.7,3.9,3.9,3.9h15.6
				c2.2,0,3.9-1.7,3.9-3.9V10.5C30,8.4,28.3,6.6,26.2,6.6z M26.2,30H10.5V10.5h15.6V30z"/>
		</g>
	</g>
</g>
</svg>
