<?xml version="1.0" encoding="utf-8"?>
<!-- Generator: Adobe Illustrator 21.1.0, SVG Export Plug-In . SVG Version: 6.00 Build 0)  -->
<svg version="1.1" id="图层_1" xmlns="http://www.w3.org/2000/svg" xmlns:xlink="http://www.w3.org/1999/xlink" x="0px" y="0px"
	 viewBox="0 0 64 64" style="enable-background:new 0 0 64 64;" xml:space="preserve">
<style type="text/css">
	.st0{fill-rule:evenodd;clip-rule:evenodd;fill:#3F78BF;}
	.st1{fill-rule:evenodd;clip-rule:evenodd;fill:#4C4C4C;}
	.st2{fill-rule:evenodd;clip-rule:evenodd;fill:none;}
</style>
<g>
	<g>
		<path class="st0" d="M32.1,48.7L32.1,48.7c-2.8-1-2.8-5,0-6h0c1.8-0.6,2.6-2.7,1.8-4.4c-1.1-2.3,0.7-4.6,2.9-4.6
			c0.5,0,0.9,0.1,1.4,0.3c0.4,0.2,0.9,0.3,1.4,0.3c1.3,0,2.5-0.8,3-2.1c0.5-1.4,1.8-2.1,3-2.1c0.7,0,1.4,0.3,2,0.7v-6.6
			c0-9.7-7.9-17.6-17.5-17.6c-9.7,0-17.5,7.9-17.5,17.6V34L6.6,47.6h13.8c0.9,4.5,4.8,7.8,9.6,7.8c1.3,0,2.5-0.3,3.6-0.7
			c0-0.5,0-1.1,0.3-1.7C34.7,51.3,33.9,49.3,32.1,48.7z M55.8,43.4c-1.3-0.5-2-2-1.4-3.3c0.8-1.7-0.5-3.4-2.2-3.4
			c-0.3,0-0.7,0.1-1,0.2c-0.3,0.2-0.7,0.2-1,0.2c-1,0-1.9-0.6-2.3-1.6c-0.4-1.1-1.3-1.6-2.3-1.6c-0.9,0-1.9,0.5-2.3,1.6
			c-0.4,1-1.3,1.6-2.3,1.6c-0.3,0-0.7-0.1-1-0.2c-0.4-0.2-0.7-0.2-1-0.2c-1.6,0-3,1.7-2.2,3.4c0.6,1.3,0,2.8-1.4,3.3h0
			c-2.1,0.8-2.1,3.8,0,4.5h0c1.3,0.5,2,2,1.4,3.3c-0.8,1.7,0.5,3.4,2.2,3.4c0.3,0,0.7-0.1,1-0.2c0.3-0.2,0.7-0.2,1-0.2
			c1,0,1.9,0.6,2.3,1.6c0.4,1.1,1.3,1.6,2.3,1.6c0.9,0,1.9-0.5,2.3-1.6c0.4-1,1.3-1.6,2.3-1.6c0.3,0,0.7,0.1,1,0.2
			c0.4,0.2,0.7,0.2,1,0.2c1.6,0,3-1.7,2.2-3.4c-0.6-1.3,0-2.8,1.4-3.3C57.9,47.2,57.9,44.1,55.8,43.4z M45.7,51.5
			c-3.2,0-5.9-2.6-5.9-5.8c0-3.2,2.6-5.8,5.9-5.8s5.9,2.6,5.9,5.8C51.5,48.9,48.9,51.5,45.7,51.5z"/>
	</g>
</g>
</svg>
