<?xml version="1.0" encoding="utf-8"?>
<!-- Generator: Adobe Illustrator 21.1.0, SVG Export Plug-In . SVG Version: 6.00 Build 0)  -->
<svg version="1.1" id="图层_1" xmlns="http://www.w3.org/2000/svg" xmlns:xlink="http://www.w3.org/1999/xlink" x="0px" y="0px"
	 viewBox="0 0 64 64" style="enable-background:new 0 0 64 64;" xml:space="preserve">
<style type="text/css">
	.st0{fill-rule:evenodd;clip-rule:evenodd;fill:#3F78BF;}
	.st1{fill-rule:evenodd;clip-rule:evenodd;fill:#4C4C4C;}
	.st2{fill-rule:evenodd;clip-rule:evenodd;fill:none;}
</style>
<g>
	<g>
		<path class="st0" d="M34.1,44.6L34.1,44.6c1.8-0.6,2.6-2.7,1.8-4.4c-0.1-0.1-0.1-0.3-0.1-0.4H12.5c-0.9-1.2-1.7-2.5-2.3-3.9h27.3
			c0.4-0.2,0.8-0.3,1.2-0.3c0.4,0,0.8,0.1,1.3,0.3h2.9c0.7-0.4,1.3-0.9,1.6-1.8c0.5-1.4,1.8-2.1,3-2.1c1.3,0,2.5,0.7,3,2.1
			c0,0.1,0.1,0.1,0.1,0.2c0.5-2,0.9-4,0.9-6.2C51.5,15.2,41,4.7,28.1,4.7C15.2,4.7,4.7,15.2,4.7,28.1c0,12.9,10.5,23.4,23.4,23.4
			c2.1,0,4.1-0.3,6.1-0.8c0,0-0.1,0-0.1-0.1h0C31.2,49.6,31.2,45.6,34.1,44.6z M37.8,24.2h3.9v3.9h-3.9V24.2z M30,24.2h3.9v3.9H30
			V24.2z M22.2,24.2h3.9v3.9h-3.9V24.2z M14.4,24.2h3.9v3.9h-3.9V24.2z M57.7,45.3c-1.3-0.5-2-2-1.4-3.3c0.8-1.7-0.5-3.4-2.2-3.4
			c-0.3,0-0.7,0.1-1,0.2c-0.3,0.2-0.7,0.2-1,0.2c-1,0-1.9-0.6-2.3-1.6c-0.4-1.1-1.3-1.6-2.3-1.6c-0.9,0-1.9,0.5-2.3,1.6
			c-0.4,1-1.3,1.6-2.3,1.6c-0.3,0-0.7-0.1-1-0.2c-0.4-0.2-0.7-0.2-1-0.2c-1.6,0-3,1.7-2.2,3.4c0.6,1.3,0,2.8-1.4,3.3h0
			c-2.1,0.8-2.1,3.8,0,4.5h0c1.3,0.5,2,2,1.4,3.3c-0.8,1.7,0.5,3.4,2.2,3.4c0.3,0,0.7-0.1,1-0.2c0.3-0.2,0.7-0.2,1-0.2
			c1,0,1.9,0.6,2.3,1.6c0.4,1.1,1.3,1.6,2.3,1.6c0.9,0,1.9-0.5,2.3-1.6c0.4-1,1.3-1.6,2.3-1.6c0.3,0,0.7,0.1,1,0.2
			c0.4,0.2,0.7,0.2,1,0.2c1.6,0,3-1.7,2.2-3.4c-0.6-1.3,0-2.8,1.4-3.3C59.8,49.1,59.8,46.1,57.7,45.3z M47.6,53.4
			c-3.2,0-5.9-2.6-5.9-5.8c0-3.2,2.6-5.8,5.9-5.8s5.9,2.6,5.9,5.8C53.5,50.8,50.8,53.4,47.6,53.4z"/>
	</g>
</g>
</svg>
