<?xml version="1.0" encoding="utf-8"?>
<!-- Generator: Adobe Illustrator 21.1.0, SVG Export Plug-In . SVG Version: 6.00 Build 0)  -->
<svg version="1.1" id="图层_1" xmlns="http://www.w3.org/2000/svg" xmlns:xlink="http://www.w3.org/1999/xlink" x="0px" y="0px"
	 viewBox="0 0 64 64" style="enable-background:new 0 0 64 64;" xml:space="preserve">
<style type="text/css">
	.st0{fill-rule:evenodd;clip-rule:evenodd;fill:#3F78BF;}
	.st1{fill-rule:evenodd;clip-rule:evenodd;fill:#4C4C4C;}
	.st2{fill-rule:evenodd;clip-rule:evenodd;fill:none;}
</style>
<g>
	<path class="st0" d="M51.5,57.3H24.2c-2.2,0-3.9-1.7-3.9-3.9v-2h3.9v2h27.3V20.3h-2v-3.9h2l0,0c2.2,0,3.9,1.7,3.9,3.9v33.2
		C55.4,55.6,53.7,57.3,51.5,57.3z"/>
	<g>
		<g>
			<path class="st1" d="M43.7,6.6H12.5c-2.2,0-3.9,1.7-3.9,3.9v35.1c0,2.2,1.7,3.9,3.9,3.9h31.2c2.2,0,3.9-1.7,3.9-3.9V10.5
				C47.6,8.4,45.9,6.6,43.7,6.6z M43.7,45.6H12.5V10.5h31.2V45.6z M34,37.8H22.2c-1.1,0-2,0.9-2,2s0.9,2,2,2H34c1.1,0,2-0.9,2-2
				S35,37.8,34,37.8z M39.8,14.5H16.4V34h23.4V14.5z M35.9,30H20.3V18.3h15.6V30z"/>
		</g>
	</g>
</g>
</svg>
