<?xml version="1.0" encoding="utf-8"?>
<!-- Generator: Adobe Illustrator 21.1.0, SVG Export Plug-In . SVG Version: 6.00 Build 0)  -->
<svg version="1.1" id="图层_1" xmlns="http://www.w3.org/2000/svg" xmlns:xlink="http://www.w3.org/1999/xlink" x="0px" y="0px"
	 viewBox="0 0 64 64" style="enable-background:new 0 0 64 64;" xml:space="preserve">
<style type="text/css">
	.st0{fill-rule:evenodd;clip-rule:evenodd;fill:#3F78BF;}
	.st1{fill-rule:evenodd;clip-rule:evenodd;fill:#4C4C4C;}
	.st2{fill-rule:evenodd;clip-rule:evenodd;fill:none;}
</style>
<g>
	<path class="st0" d="M28.1,55.4c1.4,0,2.8-0.1,4.2-0.4c1.2,0.2,2.4,0.4,3.6,0.4c10.8,0,19.5-8.7,19.5-19.5c0-1.2-0.1-2.5-0.4-3.6
		c0.2-1.4,0.4-2.7,0.4-4.2c0-2.1-0.3-4.1-0.7-6.1c2.9,3.9,4.6,8.7,4.6,13.9c0,12.9-10.5,23.4-23.4,23.4c-5.2,0-10-1.7-13.9-4.6
		C24,55.1,26,55.4,28.1,55.4z"/>
	<path class="st1" d="M28.1,4.7C15.2,4.7,4.7,15.2,4.7,28.1c0,12.9,10.5,23.4,23.4,23.4C41,51.5,51.5,41,51.5,28.1
		C51.5,15.2,41,4.7,28.1,4.7z M28.1,47.6c-6.4,0-12-3.1-15.6-7.8h31.1C40.1,44.5,34.5,47.6,28.1,47.6z M10.2,35.9
		c-1-2.4-1.6-5-1.6-7.8c0-10.8,8.7-19.5,19.5-19.5c10.8,0,19.5,8.7,19.5,19.5c0,2.8-0.6,5.4-1.6,7.8H10.2z M14.5,28.1h3.9v-3.9h-3.9
		V28.1z M22.2,28.1h3.9v-3.9h-3.9V28.1z M30,28.1H34v-3.9H30V28.1z M37.8,28.1h3.9v-3.9h-3.9V28.1z"/>
</g>
</svg>
