<?xml version="1.0" encoding="utf-8"?>
<!-- Generator: Adobe Illustrator 21.1.0, SVG Export Plug-In . SVG Version: 6.00 Build 0)  -->
<svg version="1.1" id="图层_1" xmlns="http://www.w3.org/2000/svg" xmlns:xlink="http://www.w3.org/1999/xlink" x="0px" y="0px"
	 viewBox="0 0 64 64" style="enable-background:new 0 0 64 64;" xml:space="preserve">
<style type="text/css">
	.st0{fill-rule:evenodd;clip-rule:evenodd;fill:#3F78BF;}
	.st1{fill-rule:evenodd;clip-rule:evenodd;fill:#4C4C4C;}
	.st2{fill-rule:evenodd;clip-rule:evenodd;fill:none;}
</style>
<g id="XMLID_1081_">
	<path id="XMLID_966_" class="st0" d="M40.7,31.6l-8.3-8.3c-1.5-1.5-1.5-4,0-5.5l8.3-8.3c1.5-1.5,4-1.5,5.5,0l8.3,8.3
		c1.5,1.5,1.5,4,0,5.5l-8.3,8.3C44.7,33.1,42.2,33.1,40.7,31.6z M51.7,20.5l-8.3-8.3l-8.3,8.3l8.3,8.3L51.7,20.5z"/>
	<g id="XMLID_913_">
		<g>
			<path class="st1" d="M24,10.8H12.3c-2.2,0-3.9,1.7-3.9,3.9v11.7c0,2.2,1.7,3.9,3.9,3.9H24c2.2,0,3.9-1.7,3.9-3.9V14.7
				C27.9,12.5,26.1,10.8,24,10.8z M24,26.4H12.3V14.7H24V26.4z M24,36.1H12.3c-2.2,0-3.9,1.7-3.9,3.9v11.7c0,2.2,1.7,3.9,3.9,3.9H24
				c2.2,0,3.9-1.7,3.9-3.9V40C27.9,37.9,26.1,36.1,24,36.1z M24,51.7H12.3V40H24V51.7z M49.3,36.1H37.6c-2.2,0-3.9,1.7-3.9,3.9v11.7
				c0,2.2,1.7,3.9,3.9,3.9h11.7c2.2,0,3.9-1.7,3.9-3.9V40C53.2,37.9,51.5,36.1,49.3,36.1z M49.3,51.7H37.6V40h11.7V51.7z"/>
		</g>
	</g>
</g>
</svg>
