<?xml version="1.0" encoding="utf-8"?>
<!-- Generator: Adobe Illustrator 21.1.0, SVG Export Plug-In . SVG Version: 6.00 Build 0)  -->
<svg version="1.1" id="图层_1" xmlns="http://www.w3.org/2000/svg" xmlns:xlink="http://www.w3.org/1999/xlink" x="0px" y="0px"
	 viewBox="0 0 64 64" style="enable-background:new 0 0 64 64;" xml:space="preserve">
<style type="text/css">
	.st0{fill-rule:evenodd;clip-rule:evenodd;fill:#3F78BF;}
	.st1{fill-rule:evenodd;clip-rule:evenodd;fill:#4C4C4C;}
	.st2{fill-rule:evenodd;clip-rule:evenodd;fill:none;}
</style>
<g>
	<path class="st0" d="M57.7,49.9c-1.3,0.5-2,2-1.4,3.3c0.8,1.7-0.5,3.4-2.2,3.4c-0.3,0-0.7-0.1-1-0.2c-0.3-0.2-0.7-0.2-1-0.2
		c-1,0-1.9,0.6-2.3,1.6c-0.4,1.1-1.3,1.6-2.3,1.6c-0.9,0-1.9-0.5-2.3-1.6c-0.4-1-1.3-1.6-2.3-1.6c-0.3,0-0.7,0.1-1,0.2
		c-0.4,0.2-0.7,0.2-1,0.2c-1.6,0-3-1.7-2.2-3.4c0.6-1.3,0-2.8-1.4-3.3h0c-2.1-0.8-2.1-3.8,0-4.5h0c1.3-0.5,2-2,1.4-3.3
		c-0.8-1.7,0.5-3.4,2.2-3.4c0.3,0,0.7,0.1,1,0.2c0.3,0.2,0.7,0.2,1,0.2c1,0,1.9-0.6,2.3-1.6c0.4-1.1,1.3-1.6,2.3-1.6
		c0.9,0,1.9,0.5,2.3,1.6c0.4,1,1.3,1.6,2.3,1.6c0.3,0,0.7-0.1,1-0.2c0.4-0.2,0.7-0.2,1-0.2c1.6,0,3,1.7,2.2,3.4
		c-0.6,1.3,0,2.8,1.4,3.3C59.8,46.1,59.8,49.1,57.7,49.9z M47.6,41.8c-3.2,0-5.9,2.6-5.9,5.8c0,3.2,2.6,5.8,5.9,5.8
		c3.2,0,5.9-2.6,5.9-5.8C53.5,44.4,50.8,41.8,47.6,41.8z"/>
	<g>
		<g>
			<path class="st1" d="M40.1,35.9c0.4,0.2,0.9,0.3,1.4,0.3c0.5,0,0.9-0.1,1.4-0.4H40C40.1,35.9,40.1,35.9,40.1,35.9z M28.1,4.7
				C15.2,4.7,4.7,15.2,4.7,28.1c0,12.9,10.5,23.4,23.4,23.4c2.1,0,4.1-0.3,6.1-0.8c0,0-0.1,0-0.1-0.1h0c-1.6-0.6-2.2-2.1-2.1-3.4
				c-1.3,0.3-2.6,0.4-3.9,0.4c-6.4,0-12-3.1-15.6-7.8h23.2c-0.5-1.7,0.4-3.3,1.8-3.9H10.2c-1-2.4-1.6-5-1.6-7.8
				c0-10.8,8.7-19.5,19.5-19.5c10.8,0,19.5,8.7,19.5,19.5c0,1.4-0.1,2.7-0.4,4c0.1,0,0.2-0.1,0.4-0.1c1.3,0,2.5,0.7,3,2.1
				c0,0.1,0.1,0.1,0.1,0.2c0.5-2,0.9-4,0.9-6.2C51.5,15.2,41,4.7,28.1,4.7z M41.7,24.2h-3.9v3.9h3.9V24.2z M33.9,28.1v-3.9H30v3.9
				H33.9z M26.1,28.1v-3.9h-3.9v3.9H26.1z M18.3,28.1v-3.9h-3.9v3.9H18.3z"/>
		</g>
	</g>
</g>
</svg>
