<?xml version="1.0" encoding="utf-8"?>
<!-- Generator: Adobe Illustrator 21.1.0, SVG Export Plug-In . SVG Version: 6.00 Build 0)  -->
<svg version="1.1" id="图层_1" xmlns="http://www.w3.org/2000/svg" xmlns:xlink="http://www.w3.org/1999/xlink" x="0px" y="0px"
	 viewBox="0 0 64 64" style="enable-background:new 0 0 64 64;" xml:space="preserve">
<style type="text/css">
	.st0{fill-rule:evenodd;clip-rule:evenodd;fill:#3F78BF;}
	.st1{fill-rule:evenodd;clip-rule:evenodd;fill:#4C4C4C;}
	.st2{fill-rule:evenodd;clip-rule:evenodd;fill:none;}
</style>
<g id="XMLID_740_">
	<path id="XMLID_751_" class="st0" d="M48.8,55.4L46,52.6l4.8-4.9H34v-3.9h16.7L46,39l2.8-2.8l8.6,7.5v3.9L48.8,55.4z"/>
	<g id="XMLID_710_">
		<g>
			<path class="st1" d="M45.7,8.6H10.6c-2.2,0-3.9,1.7-3.9,3.9v35.1c0,2.2,1.7,3.9,3.9,3.9h19.5v-3.9H10.6V12.5h35.1V32h3.9V12.5
				C49.6,10.4,47.8,8.6,45.7,8.6z M16.4,22.3h23.4v-3.9H16.4V22.3z M16.4,32h23.4v-3.9H16.4V32z M16.4,41.8h9.8v-3.9h-9.8V41.8z"/>
		</g>
	</g>
</g>
</svg>
