<?xml version="1.0" encoding="utf-8"?>
<!-- Generator: Adobe Illustrator 21.1.0, SVG Export Plug-In . SVG Version: 6.00 Build 0)  -->
<svg version="1.1" id="图层_1" xmlns="http://www.w3.org/2000/svg" xmlns:xlink="http://www.w3.org/1999/xlink" x="0px" y="0px"
	 viewBox="0 0 64 64" style="enable-background:new 0 0 64 64;" xml:space="preserve">
<style type="text/css">
	.st0{fill-rule:evenodd;clip-rule:evenodd;fill:#3F78BF;}
	.st1{fill-rule:evenodd;clip-rule:evenodd;fill:#4C4C4C;}
	.st2{fill-rule:evenodd;clip-rule:evenodd;fill:none;}
</style>
<path class="st0" d="M47.6,26.1c-5.4,0-9.7-4.4-9.7-9.8s4.4-9.7,9.7-9.7s9.8,4.4,9.8,9.7S53,26.1,47.6,26.1z M39.4,27.3L34,43.7h3.7
	l2.2-7.8l2.2,7.8h3.7L40.4,28c2.1,1.3,4.5,2.1,7.2,2.1c1.4,0,2.7-0.3,3.9-0.6v24c0,2.2-1.7,3.9-3.9,3.9h-37c-2.2,0-3.9-1.7-3.9-3.9
	V16.4c0-2.2,1.7-3.9,3.9-3.9h24C34.2,13.7,34,15,34,16.4C34,20.9,36.1,24.8,39.4,27.3z M18.4,28.1c-3.2,0-5.9,3.5-5.9,7.8
	s2.6,7.8,5.9,7.8s5.9-3.5,5.9-7.8S21.6,28.1,18.4,28.1z M24.2,32h3.9v11.7H32V32h3.9v-3.9H24.2V32z M18.4,39.8c-1.1,0-2-1.7-2-3.9
	c0-2.2,0.9-3.9,2-3.9s1.9,1.7,1.9,3.9C20.3,38.1,19.4,39.8,18.4,39.8z"/>
</svg>
