<?xml version="1.0" encoding="utf-8"?>
<!-- Generator: Adobe Illustrator 21.1.0, SVG Export Plug-In . SVG Version: 6.00 Build 0)  -->
<svg version="1.1" id="图层_1" xmlns="http://www.w3.org/2000/svg" xmlns:xlink="http://www.w3.org/1999/xlink" x="0px" y="0px"
	 viewBox="0 0 64 64" style="enable-background:new 0 0 64 64;" xml:space="preserve">
<style type="text/css">
	.st0{fill-rule:evenodd;clip-rule:evenodd;fill:#3F78BF;}
	.st1{fill-rule:evenodd;clip-rule:evenodd;fill:#4C4C4C;}
	.st2{fill-rule:evenodd;clip-rule:evenodd;fill:none;}
</style>
<g>
	<g>
		<path class="st0" d="M12.5,39.8c-0.9-1.2-1.7-2.5-2.3-3.9h20.4c3.2-3.6,7.9-5.8,13.1-5.8c2.7,0,5.2,0.6,7.5,1.7
			c0.2-1.2,0.3-2.4,0.3-3.6C51.5,15.2,41,4.7,28.1,4.7C15.2,4.7,4.7,15.2,4.7,28.1c0,12.4,9.7,22.5,21.9,23.3
			c-0.3-1.2-0.4-2.5-0.4-3.8c0-2.8,0.7-5.4,1.8-7.8H12.5z M37.8,24.2h3.9v3.9h-3.9V24.2z M30,24.2h3.9v3.9H30V24.2z M22.2,24.2h3.9
			v3.9h-3.9V24.2z M14.4,24.2h3.9v3.9h-3.9V24.2z M55.4,47.6c0-6.5-5.2-11.7-11.7-11.7c-3.2,0-6.2,1.3-8.3,3.4l2.8,2.8
			c1.4-1.4,3.4-2.3,5.5-2.3c4.3,0,7.8,3.5,7.8,7.8h-3.9l5.8,5.9l5.8-5.9H55.4z M43.7,55.4c-4.3,0-7.8-3.5-7.8-7.8h3.9L34,41.8
			l-5.8,5.8H32c0,6.5,5.2,11.7,11.7,11.7c3.2,0,6.2-1.3,8.3-3.4l-2.8-2.8C47.8,54.5,45.9,55.4,43.7,55.4z"/>
	</g>
</g>
</svg>
