<?xml version="1.0" encoding="utf-8"?>
<!-- Generator: Adobe Illustrator 21.1.0, SVG Export Plug-In . SVG Version: 6.00 Build 0)  -->
<svg version="1.1" id="图层_1" xmlns="http://www.w3.org/2000/svg" xmlns:xlink="http://www.w3.org/1999/xlink" x="0px" y="0px"
	 viewBox="0 0 64 64" style="enable-background:new 0 0 64 64;" xml:space="preserve">
<style type="text/css">
	.st0{fill-rule:evenodd;clip-rule:evenodd;fill:#3F78BF;}
	.st1{fill-rule:evenodd;clip-rule:evenodd;fill:#4C4C4C;}
	.st2{fill-rule:evenodd;clip-rule:evenodd;fill:none;}
</style>
<g>
	<path class="st0" d="M47.6,59.3c-6.5,0-11.7-5.2-11.7-11.7s5.2-11.7,11.7-11.7s11.7,5.2,11.7,11.7S54,59.3,47.6,59.3z M47.6,39.8
		c-4.3,0-7.8,3.5-7.8,7.8s3.5,7.8,7.8,7.8s7.8-3.5,7.8-7.8S51.9,39.8,47.6,39.8z M41.7,47.6c0-1.1,0.9-1.9,2-1.9h7.8
		c1.1,0,2,0.9,2,1.9s-0.9,2-2,2h-7.8C42.6,49.5,41.7,48.7,41.7,47.6z"/>
	<g>
		<g>
			<path class="st1" d="M39.8,4.7H8.6c-2.2,0-3.9,1.7-3.9,3.9v37c0,2.2,1.7,3.9,3.9,3.9h23.5C32,48.9,32,48.3,32,47.6
				c0-0.7,0.1-1.3,0.1-2H8.6v-37h31.2v25.5c1.2-0.7,2.5-1.2,3.9-1.6V8.6C43.7,6.4,41.9,4.7,39.8,4.7z M12.5,33.9h23.4V12.5H12.5
				V33.9z M16.4,16.4H32V30H16.4V16.4z M18.3,37.9c-1.1,0-2,0.9-2,1.9c0,1.1,0.9,2,2,2H30c1.1,0,1.9-0.9,1.9-2
				c0-1.1-0.9-1.9-1.9-1.9H18.3z"/>
		</g>
	</g>
</g>
</svg>
