<?xml version="1.0" encoding="utf-8"?>
<!-- Generator: Adobe Illustrator 21.1.0, SVG Export Plug-In . SVG Version: 6.00 Build 0)  -->
<svg version="1.1" id="图层_1" xmlns="http://www.w3.org/2000/svg" xmlns:xlink="http://www.w3.org/1999/xlink" x="0px" y="0px"
	 viewBox="0 0 64 64" style="enable-background:new 0 0 64 64;" xml:space="preserve">
<style type="text/css">
	.st0{fill-rule:evenodd;clip-rule:evenodd;fill:#3F78BF;}
	.st1{fill-rule:evenodd;clip-rule:evenodd;fill:#4C4C4C;}
	.st2{fill-rule:evenodd;clip-rule:evenodd;fill:none;}
</style>
<path class="st0" d="M47.6,59.3c-6.5,0-11.7-5.2-11.7-11.7s5.2-11.7,11.7-11.7s11.7,5.2,11.7,11.7S54.1,59.3,47.6,59.3z M51.5,45.7
	h-7.8c-1.1,0-2,0.9-2,1.9s0.9,2,2,2h7.8c1.1,0,2-0.9,2-2S52.6,45.7,51.5,45.7z M32,47.6c0,0.7,0.1,1.3,0.1,2H8.6
	c-2.2,0-3.9-1.7-3.9-3.9V8.6c0-2.2,1.7-3.9,3.9-3.9h31.2c2.2,0,3.9,1.7,3.9,3.9v23.9C37,34.2,32,40.3,32,47.6z M18.4,41.8H30
	c1.1,0,2-0.9,2-2s-0.9-2-2-2H18.4c-1.1,0-2,0.9-2,2S17.3,41.8,18.4,41.8z M35.9,12.5H12.5V34h23.4V12.5z M32,30H16.4V16.4H32V30z"/>
</svg>
