<?xml version="1.0" encoding="utf-8"?>
<!-- Generator: Adobe Illustrator 21.1.0, SVG Export Plug-In . SVG Version: 6.00 Build 0)  -->
<svg version="1.1" id="图层_1" xmlns="http://www.w3.org/2000/svg" xmlns:xlink="http://www.w3.org/1999/xlink" x="0px" y="0px"
	 viewBox="0 0 64 64" style="enable-background:new 0 0 64 64;" xml:space="preserve">
<style type="text/css">
	.st0{fill-rule:evenodd;clip-rule:evenodd;fill:#3F78BF;}
	.st1{fill-rule:evenodd;clip-rule:evenodd;fill:#4C4C4C;}
	.st2{fill-rule:evenodd;clip-rule:evenodd;fill:none;}
</style>
<path id="XMLID_1240_" class="st0" d="M51.5,51.5h-39c-2.2,0-3.9-1.7-3.9-3.9V16.4c0-2.2,1.7-3.9,3.9-3.9h39c2.2,0,3.9,1.7,3.9,3.9
	v31.2C55.4,49.8,53.7,51.5,51.5,51.5z M26.9,35.8L15,47.6h-2.5v-3l11.7-11.5L12.5,19.4v-3H15l17,19l17-19h2.5v3L39.8,33.1l11.7,11.5
	v3H49l-12-11.8l-3.7,3.7c-0.8,0.8-2,0.8-2.8,0L26.9,35.8z M39.8,33.1L39.8,33.1l-0.7,0.7L39.8,33.1z M24.2,33.1L24.2,33.1"/>
</svg>
