<?xml version="1.0" encoding="utf-8"?>
<!-- Generator: Adobe Illustrator 22.0.1, SVG Export Plug-In . SVG Version: 6.00 Build 0)  -->
<svg version="1.1" id="图层_1" xmlns="http://www.w3.org/2000/svg" xmlns:xlink="http://www.w3.org/1999/xlink" x="0px" y="0px"
	 viewBox="0 0 64 64" style="enable-background:new 0 0 64 64;" xml:space="preserve">
<style type="text/css">
	.st0{fill-rule:evenodd;clip-rule:evenodd;fill:#3F78BF;}
	.st1{fill-rule:evenodd;clip-rule:evenodd;fill:#4C4C4C;}
	.st2{fill-rule:evenodd;clip-rule:evenodd;fill:none;}
	.st3{fill:#3F78BF;}
	.st4{fill:#4C4C4C;}
</style>
<g>
	<path class="st0" d="M18.4,24.2h3.9v13.6h-3.9V24.2z"/>
	<path class="st0" d="M26.1,18.4H30v19.5h-3.9V18.4z"/>
	<path class="st0" d="M34,24.2h3.9v13.6H34V24.2z"/>
	<path class="st0" d="M41.8,30h3.9v7.8h-3.9V30z"/>
	<g>
		<g>
			<path class="st1" d="M51.5,8.6h-39c-2.2,0-3.9,1.7-3.9,3.9v31.2c0,2.2,1.7,3.9,3.9,3.9H30v3.9h-5.8c-1.1,0-2,0.9-2,1.9
				c0,1.1,0.9,2,2,2h15.6c1.1,0,2-0.9,2-2c0-1.1-0.9-1.9-2-1.9H34v-3.9h17.5c2.2,0,3.9-1.7,3.9-3.9V12.5
				C55.4,10.3,53.7,8.6,51.5,8.6z M51.5,43.7h-39V12.5h39V43.7z"/>
		</g>
	</g>
</g>
</svg>
