<?xml version="1.0" encoding="utf-8"?>
<!-- Generator: Adobe Illustrator 22.0.1, SVG Export Plug-In . SVG Version: 6.00 Build 0)  -->
<svg version="1.1" id="图层_1" xmlns="http://www.w3.org/2000/svg" xmlns:xlink="http://www.w3.org/1999/xlink" x="0px" y="0px"
	 viewBox="0 0 64 64" style="enable-background:new 0 0 64 64;" xml:space="preserve">
<style type="text/css">
	.st0{fill-rule:evenodd;clip-rule:evenodd;fill:#3F78BF;}
	.st1{fill-rule:evenodd;clip-rule:evenodd;fill:#4C4C4C;}
	.st2{fill-rule:evenodd;clip-rule:evenodd;fill:none;}
	.st3{fill:#3F78BF;}
	.st4{fill:#4C4C4C;}
</style>
<path class="st0" d="M51.5,47.6H34v3.9h5.8c1.1,0,2,0.9,2,2c0,1.1-0.9,2-2,2H24.2c-1.1,0-2-0.9-2-2c0-1.1,0.9-2,2-2H30v-3.9H12.5
	c-2.2,0-3.9-1.7-3.9-3.9V12.5c0-2.2,1.7-3.9,3.9-3.9h39c2.2,0,3.9,1.7,3.9,3.9v31.2C55.4,45.9,53.7,47.6,51.5,47.6z M20.3,35.9
	l9.8,3.9V28.1l-9.8-3.9V35.9z M32,16.4l-11.7,3.9L32,24.2l11.7-3.9L32,16.4z M43.7,24.2L34,28.1v11.7l9.8-3.9V24.2z"/>
</svg>
