<?xml version="1.0" encoding="utf-8"?>
<!-- Generator: Adobe Illustrator 22.0.1, SVG Export Plug-In . SVG Version: 6.00 Build 0)  -->
<svg version="1.1" id="图层_1" xmlns="http://www.w3.org/2000/svg" xmlns:xlink="http://www.w3.org/1999/xlink" x="0px" y="0px"
	 viewBox="0 0 64 64" style="enable-background:new 0 0 64 64;" xml:space="preserve">
<style type="text/css">
	.st0{fill-rule:evenodd;clip-rule:evenodd;fill:#3F78BF;}
	.st1{fill-rule:evenodd;clip-rule:evenodd;fill:#4C4C4C;}
	.st2{fill-rule:evenodd;clip-rule:evenodd;fill:none;}
	.st3{fill:#3F78BF;}
	.st4{fill:#4C4C4C;}
</style>
<g>
	<path class="st0" d="M47.6,28.1l7.8,5.9l-7.8,5.8v-3.9c-4.3,0-7.8,3.5-7.8,7.8s3.5,7.8,7.8,7.8s7.8-3.5,7.8-7.8h3.9
		c0,6.5-5.2,11.7-11.7,11.7s-11.7-5.2-11.7-11.7S41.1,32,47.6,32V28.1z"/>
	<g>
		<g>
			<path class="st1" d="M46,11.2c-2.2-1.6-4.9-2.6-7.8-2.6c0,0,0,0,0,0c-0.5,0-0.9,0.1-1.4,0.1c-2.9,0.3-5.6,1.5-7.7,3.5
				c-0.3,0.3-0.6,0.4-1,0.4c-0.3,0-0.7-0.1-1-0.4c-2.1-1.9-4.7-3.2-7.7-3.5c-0.5,0-0.9-0.1-1.4-0.1c0,0,0,0,0,0
				c-2.9,0-5.6,1-7.8,2.6c-3.3,2.5-5.5,6.5-5.5,11c0,1.4,0.1,2.7,0.3,4c0.1,0.8,0.3,1.5,0.5,2.2c0.1,0.5,0.2,1,0.3,1.4
				c0,0,0,0.1,0,0.1c0,0,0,0,0,0c2.5,9,9,15.2,14.4,18.9c0,0,0,0,0,0c3.7,2.5,6.7,3.9,7.7,4.3c0,0,0,0,0.1,0
				c0.1,0.1,0.2,0.1,0.2,0.1c0,0,0,0,0,0s0,0,0,0c0,0,0.1,0,0.2-0.1c0,0,0,0,0.1,0c0.7-0.3,2.7-1.2,5.2-2.7
				c-0.7-1.3-1.1-2.8-1.4-4.3c-1.6,1-3.1,1.8-4.1,2.3c-4.2-2.1-15.3-8.5-18.2-20.4c-0.2-0.8-0.3-1.6-0.5-2.4c0-0.2-0.1-0.3-0.1-0.4
				c-0.1-1-0.2-2-0.2-3.1c0,0,0,0,0,0c0-2.9,1.4-5.5,3.4-7.2c0.7-0.5,1.4-1,2.1-1.3c1-0.4,2.2-0.7,3.4-0.7c0.5,0,1,0.1,1.5,0.1
				c0,0,0.1,0,0.1,0c0.1,0,0.1,0,0.2,0.1c1.5,0.3,3,1.1,4.2,2.2c1.1,1,2.5,1.6,4,1.6c1.5,0,2.9-0.6,4-1.6c1.2-1.1,2.6-1.9,4.2-2.2
				c0.1,0,0.1,0,0.2-0.1c0,0,0.1,0,0.1,0c0.5-0.1,1-0.1,1.5-0.1c1.2,0,2.3,0.3,3.4,0.7c0.8,0.3,1.5,0.8,2.1,1.3
				c2.1,1.7,3.4,4.3,3.4,7.2c0,0,0,0,0,0c0,0.7-0.1,1.3-0.1,1.9h2.6l1.7,1.7c0.1-1.2,0.2-2.4,0.2-3.6C51.5,17.7,49.3,13.7,46,11.2z"
				/>
		</g>
	</g>
</g>
</svg>
