<?xml version="1.0" encoding="utf-8"?>
<!-- Generator: Adobe Illustrator 22.0.1, SVG Export Plug-In . SVG Version: 6.00 Build 0)  -->
<svg version="1.1" id="图层_1" xmlns="http://www.w3.org/2000/svg" xmlns:xlink="http://www.w3.org/1999/xlink" x="0px" y="0px"
	 viewBox="0 0 64 64" style="enable-background:new 0 0 64 64;" xml:space="preserve">
<style type="text/css">
	.st0{fill-rule:evenodd;clip-rule:evenodd;fill:#3F78BF;}
	.st1{fill-rule:evenodd;clip-rule:evenodd;fill:#4C4C4C;}
	.st2{fill-rule:evenodd;clip-rule:evenodd;fill:none;}
	.st3{fill:#3F78BF;}
	.st4{fill:#4C4C4C;}
</style>
<path class="st0" d="M54.9,35.9l-19,19v2.5h-7.8v-2.5l-19-19H6.7v-7.8h2.5l19-19V6.7h7.8v2.5l19,19h2.5v7.8H54.9z M32,24.2
	c-4.3,0-7.8,3.5-7.8,7.8s3.5,7.8,7.8,7.8s7.8-3.5,7.8-7.8S36.3,24.2,32,24.2z M32,35.9c-2.2,0-3.9-1.7-3.9-3.9s1.7-3.9,3.9-3.9
	s3.9,1.7,3.9,3.9S34.2,35.9,32,35.9z M44.4,14.1l2.8-2.8l5.5,5.5l-2.8,2.8L44.4,14.1z M11.3,16.8l5.5-5.5l2.8,2.8l-5.5,5.5
	L11.3,16.8z M19.6,49.9l-2.8,2.8l-5.5-5.5l2.8-2.8L19.6,49.9z M52.7,47.2l-5.5,5.5l-2.8-2.8l5.5-5.5L52.7,47.2z"/>
</svg>
