<?xml version="1.0" encoding="utf-8"?>
<!-- Generator: Adobe Illustrator 22.0.1, SVG Export Plug-In . SVG Version: 6.00 Build 0)  -->
<svg version="1.1" id="图层_1" xmlns="http://www.w3.org/2000/svg" xmlns:xlink="http://www.w3.org/1999/xlink" x="0px" y="0px"
	 viewBox="0 0 64 64" style="enable-background:new 0 0 64 64;" xml:space="preserve">
<style type="text/css">
	.st0{fill-rule:evenodd;clip-rule:evenodd;fill:#3F78BF;}
	.st1{fill-rule:evenodd;clip-rule:evenodd;fill:#4C4C4C;}
	.st2{fill-rule:evenodd;clip-rule:evenodd;fill:none;}
	.st3{fill:#3F78BF;}
	.st4{fill:#4C4C4C;}
</style>
<path class="st0" d="M47.6,51.5c4.3,0,7.8-3.5,7.8-7.8h3.9c0,6.5-5.2,11.7-11.7,11.7s-11.7-5.2-11.7-11.7S41.1,32,47.6,32v-3.9
	l7.8,5.9l-7.8,5.8v-3.9c-4.3,0-7.8,3.5-7.8,7.8S43.3,51.5,47.6,51.5z M49.6,24.2h-5.9v4.4C37,30.3,32,36.4,32,43.7
	c0,2.5,0.6,4.8,1.6,6.9c-2.5,1.5-4.5,2.4-5.2,2.7c0,0,0,0-0.1,0c-0.1,0.1-0.2,0.1-0.2,0.1c0,0,0,0,0,0l0,0l0,0c0,0,0,0,0,0
	c0,0-0.1,0-0.2-0.1c0,0,0,0-0.1,0c-0.9-0.4-4-1.8-7.7-4.3c0,0,0,0,0,0C14.8,45.2,8.3,39.1,5.8,30c0,0,0,0,0,0c0,0,0-0.1,0-0.1
	c-0.1-0.5-0.2-1-0.3-1.4C5.3,27.8,5.1,27,5,26.3c-0.2-1.3-0.3-2.6-0.3-4c0-4.5,2.2-8.5,5.5-11c2.2-1.6,4.9-2.6,7.8-2.6c0,0,0,0,0,0
	l0,0c0.5,0,0.9,0.1,1.4,0.1c2.9,0.3,5.6,1.5,7.7,3.5c0.3,0.3,0.6,0.4,1,0.4s0.7-0.1,1-0.4c2.1-1.9,4.7-3.2,7.7-3.5
	c0.5,0,0.9-0.1,1.4-0.1l0,0c0,0,0,0,0,0c2.9,0,5.6,1,7.8,2.6c3.3,2.5,5.5,6.5,5.5,11c0,1.3-0.1,2.4-0.2,3.6L49.6,24.2z"/>
</svg>
