<?xml version="1.0" encoding="utf-8"?>
<!-- Generator: Adobe Illustrator 22.0.1, SVG Export Plug-In . SVG Version: 6.00 Build 0)  -->
<svg version="1.1" id="图层_1" xmlns="http://www.w3.org/2000/svg" xmlns:xlink="http://www.w3.org/1999/xlink" x="0px" y="0px"
	 viewBox="0 0 64 64" style="enable-background:new 0 0 64 64;" xml:space="preserve">
<style type="text/css">
	.st0{fill-rule:evenodd;clip-rule:evenodd;fill:#3F78BF;}
	.st1{fill-rule:evenodd;clip-rule:evenodd;fill:#4C4C4C;}
	.st2{fill-rule:evenodd;clip-rule:evenodd;fill:none;}
	.st3{fill:#3F78BF;}
	.st4{fill:#4C4C4C;}
</style>
<g>
	<path class="st3" d="M37.5,10.6c4.2,0.8,7.9,3,10.8,6.2l-10.8,6.7V10.6 M34,6.7V30l19.5-12.2C49.4,11.1,42.2,6.7,34,6.7L34,6.7z"/>
	<g>
		<g>
			<path class="st4" d="M52,21.7L32,34V10.5C19.1,10.5,8.6,21,8.6,34c0,12.9,10.5,23.4,23.4,23.4S55.4,46.9,55.4,34
				C55.4,29.5,54.1,25.3,52,21.7z M32,53.7c-10.9,0-19.8-8.9-19.8-19.8c0-9.7,7-17.7,16.1-19.4V34c0,1.3,0.7,2.5,1.9,3.2
				c0.6,0.3,1.2,0.5,1.8,0.5c0.7,0,1.3-0.2,1.9-0.5l16.6-10.1c0.8,2.2,1.3,4.6,1.3,7C51.8,44.8,42.9,53.7,32,53.7z"/>
		</g>
	</g>
</g>
</svg>
