<?xml version="1.0" encoding="utf-8"?>
<!-- Generator: Adobe Illustrator 22.0.1, SVG Export Plug-In . SVG Version: 6.00 Build 0)  -->
<svg version="1.1" id="图层_1" xmlns="http://www.w3.org/2000/svg" xmlns:xlink="http://www.w3.org/1999/xlink" x="0px" y="0px"
	 viewBox="0 0 64 64" style="enable-background:new 0 0 64 64;" xml:space="preserve">
<style type="text/css">
	.st0{fill-rule:evenodd;clip-rule:evenodd;fill:#3F78BF;}
	.st1{fill-rule:evenodd;clip-rule:evenodd;fill:#4C4C4C;}
	.st2{fill-rule:evenodd;clip-rule:evenodd;fill:none;}
	.st3{fill:#3F78BF;}
	.st4{fill:#4C4C4C;}
</style>
<g>
	<path class="st0" d="M51.5,53.5c-1.4,0-2.7-0.8-3.4-1.9H37.9V30.1h3.9v17.5h6.4c0.7-1.2,1.9-2,3.4-2c2.2,0,3.9,1.7,3.9,3.9
		C55.4,51.7,53.7,53.5,51.5,53.5z M32,57.4c-2.2,0-3.9-1.7-3.9-3.9c0-1.4,0.8-2.7,2-3.4V22.3H34v27.8c1.2,0.7,2,1.9,2,3.4
		C35.9,55.6,34.2,57.4,32,57.4z M12.5,53.5c-2.2,0-3.9-1.7-3.9-3.9c0-2.2,1.7-3.9,3.9-3.9c1.4,0,2.7,0.8,3.4,2h6.4V30.1h3.9v21.5
		H15.9C15.2,52.7,13.9,53.5,12.5,53.5z"/>
	<g>
		<g>
			<path class="st1" d="M43.2,14.4C40.9,9.8,36,6.6,30.4,6.6c-7.5,0-13.7,5.7-14.2,12.9c-5.5,1.5-9.6,6.2-9.6,11.8
				c0,6.3,5.1,11.4,11.7,12.2v-3.8c-4.4-0.5-7.8-3.8-7.8-7.8c0-3.4,2.5-6.4,6.1-7.5l3.7-1.1l0.3-4c0.4-5,4.6-8.8,9.6-8.8
				c3.7,0,7,2.1,8.7,5.4l1.4,2.9l3.2,0.2c5.5,0.3,9.8,4.9,9.8,10.3c0,4.4-3.4,8.3-7.8,9.8v4c6.5-1.7,11.7-7.4,11.7-14.1
				C57.4,21.2,51.1,14.9,43.2,14.4z"/>
		</g>
	</g>
</g>
</svg>
