<svg id="图层_1" data-name="图层 1" xmlns="http://www.w3.org/2000/svg" viewBox="0 0 64 64"><defs><style>.cls-1{fill:#3f78bf;fill-rule:evenodd;}.cls-2{fill:#4c4c4c;}</style></defs><title>icons</title><g id="_Group_" data-name="&lt;Group&gt;"><path id="_Path_" data-name="&lt;Path&gt;" class="cls-1" d="M9.44,33l4.14-4.14a1.95,1.95,0,0,0-2.76-2.76L5.3,31.61a2,2,0,0,0,0,2.76l5.52,5.52a1.95,1.95,0,1,0,2.76-2.76Z"/><path id="_Path_2" data-name="&lt;Path&gt;" class="cls-1" d="M58.68,31.52l-5.73-5.76a2,2,0,0,0-2.87,0,2,2,0,0,0,0,2.88L54.38,33l-4.3,4.32a2,2,0,0,0,0,2.88,2,2,0,0,0,2.87,0l5.73-5.76A2,2,0,0,0,58.68,31.52Z"/><g id="_Group_2" data-name="&lt;Group&gt;"><g id="_Group_3" data-name="&lt;Group&gt;"><path id="_Compound_Path_" data-name="&lt;Compound Path&gt;" class="cls-2" d="M40.33,34.38l.12-.19a14.9,14.9,0,0,0,5.76-11.84c0-8.12-6.37-14.73-14.19-14.73S17.82,14.23,17.82,22.35a14.9,14.9,0,0,0,5.7,11.8.69.69,0,0,1,.07.18.49.49,0,0,1-.06.13,20.31,20.31,0,0,0-11,18.22v3.7h39v-3.7A20.3,20.3,0,0,0,40.33,34.38ZM16.07,52.68a16.56,16.56,0,0,1,9.6-15.16,4.24,4.24,0,0,0,.42-6,11.13,11.13,0,0,1-4.71-9.16A10.83,10.83,0,0,1,32,11.32a10.83,10.83,0,0,1,10.63,11,11.13,11.13,0,0,1-4.71,9.16c-3.14,4,.42,6,.42,6A16.56,16.56,0,0,1,48,52.68Z"/></g></g></g></svg>