<svg id="图层_1" data-name="图层 1" xmlns="http://www.w3.org/2000/svg" viewBox="0 0 64 64"><defs><style>.cls-1{fill:#3f78bf;fill-rule:evenodd;}</style></defs><title>icons</title><path id="_Compound_Path_" data-name="&lt;Compound Path&gt;" class="cls-1" d="M58.68,34.4l-5.73,5.76a2,2,0,0,1-2.87,0,2,2,0,0,1,0-2.88L54.38,33l-4.3-4.32a2,2,0,0,1,0-2.88,2,2,0,0,1,2.87,0l5.73,5.76A2,2,0,0,1,58.68,34.4Zm-18.23-.21-.12.19a20.3,20.3,0,0,1,11.19,18.3v3.7h-39v-3.7a20.31,20.31,0,0,1,11-18.22.49.49,0,0,0,.06-.13.68.68,0,0,0-.07-.18,14.9,14.9,0,0,1-5.7-11.8c0-8.12,6.37-14.73,14.19-14.73s14.19,6.61,14.19,14.73A14.9,14.9,0,0,1,40.45,34.19Zm-26.88,5.7a2,2,0,0,1-2.76,0L5.3,34.37a2,2,0,0,1,0-2.76l5.52-5.52a1.95,1.95,0,1,1,2.76,2.76L9.44,33l4.14,4.14A2,2,0,0,1,13.57,39.89Z"/></svg>