<svg id="图层_1" data-name="图层 1" xmlns="http://www.w3.org/2000/svg" viewBox="0 0 64 64"><defs><style>.cls-1{fill:#3f78bf;}</style></defs><title>icons</title><g id="_Group_" data-name="&lt;Group&gt;"><g id="_Group_2" data-name="&lt;Group&gt;"><path id="_Compound_Path_" data-name="&lt;Compound Path&gt;" class="cls-1" d="M37.37,32.38c-.27-.19-.51-.41-.79-.59A14.88,14.88,0,0,0,26,6.64,14.88,14.88,0,0,0,15.45,31.8,19.78,19.78,0,0,0,6.51,48.37v5.07H32a15.55,15.55,0,0,1,5.34-21.06Zm18.48,11a2.37,2.37,0,0,1-1.4-3.29,2.41,2.41,0,0,0-2.22-3.44,2.56,2.56,0,0,0-1.07.24,2.52,2.52,0,0,1-1.06.23,2.47,2.47,0,0,1-2.33-1.6,2.5,2.5,0,0,0-4.66,0,2.47,2.47,0,0,1-2.33,1.6,2.53,2.53,0,0,1-1.06-.23,2.55,2.55,0,0,0-1.07-.24,2.41,2.41,0,0,0-2.22,3.44A2.37,2.37,0,0,1,35,43.4h0a2.37,2.37,0,0,0,0,4.52h0a2.38,2.38,0,0,1,1.4,3.29,2.41,2.41,0,0,0,2.22,3.44,2.55,2.55,0,0,0,1.07-.24,2.53,2.53,0,0,1,1.06-.23,2.47,2.47,0,0,1,2.33,1.6,2.5,2.5,0,0,0,4.66,0,2.47,2.47,0,0,1,2.33-1.6,2.53,2.53,0,0,1,1.06.23,2.55,2.55,0,0,0,1.07.24,2.41,2.41,0,0,0,2.22-3.44,2.38,2.38,0,0,1,1.4-3.29A2.37,2.37,0,0,0,55.85,43.4ZM45.51,51.52a5.86,5.86,0,1,1,5.84-5.86A5.85,5.85,0,0,1,45.51,51.52Z"/></g></g></svg>