<svg id="图层_1" data-name="图层 1" xmlns="http://www.w3.org/2000/svg" viewBox="0 0 64 64"><defs><style>.cls-1{fill:#3f78bf;}.cls-2{fill:#4c4c4c;fill-rule:evenodd;}</style></defs><title>icons</title><g id="_Group_" data-name="&lt;Group&gt;"><path id="_Compound_Path_" data-name="&lt;Compound Path&gt;" class="cls-1" d="M55.85,43.4a2.37,2.37,0,0,1-1.4-3.29h0a2.41,2.41,0,0,0-2.22-3.44,2.56,2.56,0,0,0-1.07.24,2.53,2.53,0,0,1-1.06.23,2.47,2.47,0,0,1-2.33-1.6,2.5,2.5,0,0,0-4.66,0,2.47,2.47,0,0,1-2.33,1.6,2.53,2.53,0,0,1-1.06-.23,2.55,2.55,0,0,0-1.07-.24,2.41,2.41,0,0,0-2.22,3.44h0A2.37,2.37,0,0,1,35,43.4h0a2.37,2.37,0,0,0,0,4.52h0a2.37,2.37,0,0,1,1.4,3.29,2.41,2.41,0,0,0,2.22,3.44,2.55,2.55,0,0,0,1.07-.24,2.53,2.53,0,0,1,1.06-.23,2.47,2.47,0,0,1,2.33,1.6,2.5,2.5,0,0,0,4.66,0,2.47,2.47,0,0,1,2.33-1.6,2.53,2.53,0,0,1,1.06.23,2.55,2.55,0,0,0,1.07.24,2.41,2.41,0,0,0,2.22-3.44,2.37,2.37,0,0,1,1.4-3.29A2.37,2.37,0,0,0,55.85,43.4ZM45.51,51.52a5.86,5.86,0,1,1,5.84-5.86A5.85,5.85,0,0,1,45.51,51.52Z"/><g id="_Group_2" data-name="&lt;Group&gt;"><g id="_Group_3" data-name="&lt;Group&gt;"><path id="_Path_" data-name="&lt;Path&gt;" class="cls-2" d="M40.69,21.49a14.68,14.68,0,1,0-29.35,0,14.92,14.92,0,0,0,4.11,10.3A19.78,19.78,0,0,0,6.51,48.37v5.07H32a15.49,15.49,0,0,1-1.59-3.92h-20a15.58,15.58,0,0,1,9.39-14.29,3.91,3.91,0,0,0,.41-5.66,10.39,10.39,0,1,1,11.58,0c-3.07,3.79.41,5.66.41,5.66.41.18.79.41,1.18.62a15.65,15.65,0,0,1,4-3.48c-.26-.19-.51-.41-.79-.59A14.92,14.92,0,0,0,40.69,21.49Z"/></g></g></g></svg>