<svg id="图层_1" data-name="图层 1" xmlns="http://www.w3.org/2000/svg" viewBox="0 0 64 64"><defs><style>.cls-1{fill:#3f78bf;fill-rule:evenodd;}</style></defs><title>icons</title><g id="_Group_" data-name="&lt;Group&gt;"><g id="_Group_2" data-name="&lt;Group&gt;"><path id="_Compound_Path_" data-name="&lt;Compound Path&gt;" class="cls-1" d="M41.76,16.4H10.56a3.9,3.9,0,0,0-3.9,3.9V45.65a3.9,3.9,0,0,0,3.9,3.9H24.21v3.9h-3.9a2,2,0,0,0,0,3.9H32a2,2,0,1,0,0-3.9h-3.9v-3.9H41.76a3.9,3.9,0,0,0,3.9-3.9V20.3A3.9,3.9,0,0,0,41.76,16.4Zm11.7-9.75H22.26a3.9,3.9,0,0,0-3.9,3.9v2h31.2V39.8h3.9a3.9,3.9,0,0,0,3.9-3.9V10.55A3.9,3.9,0,0,0,53.46,6.65Z"/></g></g></svg>