<svg id="图层_1" data-name="图层 1" xmlns="http://www.w3.org/2000/svg" viewBox="0 0 64 64"><defs><style>.cls-1{fill:#3f78bf;fill-rule:evenodd;}</style></defs><title>icons</title><g id="_Group_" data-name="&lt;Group&gt;"><g id="_Group_2" data-name="&lt;Group&gt;"><path id="_Compound_Path_" data-name="&lt;Compound Path&gt;" class="cls-1" d="M43.57,28.1a15.51,15.51,0,0,1,7.8,2.1V12.5a3.9,3.9,0,0,0-3.9-3.9H12.37a3.9,3.9,0,0,0-3.9,3.9V41.75a3.9,3.9,0,0,0,3.9,3.9H28v3.9h-3.9a2,2,0,0,0,0,3.9H31.4A15.59,15.59,0,0,1,43.57,28.1ZM53.89,41.44a2.37,2.37,0,0,1-1.4-3.29,2.41,2.41,0,0,0-2.22-3.44,2.56,2.56,0,0,0-1.07.24,2.53,2.53,0,0,1-1.06.23,2.47,2.47,0,0,1-2.33-1.6,2.5,2.5,0,0,0-4.66,0,2.47,2.47,0,0,1-2.33,1.6A2.53,2.53,0,0,1,37.74,35a2.55,2.55,0,0,0-1.07-.24,2.41,2.41,0,0,0-2.22,3.44A2.37,2.37,0,0,1,33,41.44h0A2.37,2.37,0,0,0,33,46h0a2.37,2.37,0,0,1,1.4,3.29,2.41,2.41,0,0,0,2.22,3.44,2.55,2.55,0,0,0,1.07-.24,2.53,2.53,0,0,1,1.06-.23,2.47,2.47,0,0,1,2.33,1.6,2.5,2.5,0,0,0,4.66,0,2.47,2.47,0,0,1,2.33-1.6,2.53,2.53,0,0,1,1.06.23,2.56,2.56,0,0,0,1.07.24,2.41,2.41,0,0,0,2.22-3.44A2.37,2.37,0,0,1,53.89,46,2.37,2.37,0,0,0,53.89,41.44ZM43.57,49.55a5.85,5.85,0,1,1,5.85-5.85A5.85,5.85,0,0,1,43.57,49.55Z"/></g></g></svg>