<?xml version="1.0" encoding="utf-8"?>
<!-- Generator: Adobe Illustrator 15.0.0, SVG Export Plug-In . SVG Version: 6.00 Build 0)  -->
<!DOCTYPE svg PUBLIC "-//W3C//DTD SVG 1.1//EN" "http://www.w3.org/Graphics/SVG/1.1/DTD/svg11.dtd">
<svg version="1.1" id="图层_1" xmlns="http://www.w3.org/2000/svg" xmlns:xlink="http://www.w3.org/1999/xlink" x="0px" y="0px"
	 width="612px" height="792px" viewBox="0 0 612 792" enable-background="new 0 0 612 792" xml:space="preserve">
<g>
	<path fill="#FFFFFF" d="M36.337,176.063h418.837c10.519,0,18.169,8.606,18.169,18.169l0,0c0,10.519-8.606,18.169-18.169,18.169
		H36.337c-10.519,0-18.168-8.606-18.168-18.169l0,0C18.169,184.669,25.819,176.063,36.337,176.063z"/>
	<path fill="#FFFFFF" d="M36.337,287.943H367.2c10.519,0,18.169,8.606,18.169,18.169l0,0c0,10.519-8.606,18.169-18.169,18.169
		H36.337c-10.519,0-18.168-8.606-18.168-18.169l0,0C18.169,296.55,25.819,287.943,36.337,287.943z"/>
	<path fill="#FFFFFF" d="M25.819,399.825h212.288c10.519,0,18.169,8.606,18.169,18.169l0,0c0,10.519-8.606,18.168-18.169,18.168
		H25.819c-10.519,0-18.169-8.605-18.169-18.168l0,0C7.65,408.432,16.256,399.825,25.819,399.825z"/>
	<path fill="#FFFFFF" d="M25.819,511.706h116.663c10.519,0,18.169,8.606,18.169,18.169l0,0c0,10.519-8.606,18.169-18.169,18.169
		H25.819c-10.519,0-18.169-8.606-18.169-18.169l0,0C7.65,520.313,16.256,511.706,25.819,511.706z"/>
	<g>
		<path fill="#FFFFFF" d="M191.25,610.2c-0.956,3.825,0.956,6.693,4.781,5.737l86.063-23.906c3.825-0.956,4.781-4.781,1.912-7.65
			l-56.418-59.287c-2.869-2.869-6.694-2.869-7.65,1.912L191.25,610.2z"/>
		<path fill="#FFFFFF" d="M254.362,488.756c-2.868,2.869-2.868,7.65,0,11.476l58.331,59.287c2.869,2.869,8.606,2.869,11.476,0
			l204.638-195.075c2.868-2.868,2.868-7.649,0-11.475l-56.419-59.287c-2.869-2.869-7.65-2.869-11.476,0L254.362,488.756z"/>
		<path fill="#FFFFFF" d="M546.019,224.831c-2.868-2.868-7.649-3.825-11.475,0L497.25,258.3c-2.869,2.869-3.825,7.65,0,10.519
			l59.287,59.288c2.869,2.868,8.606,2.868,11.476,0l34.425-32.513c2.869-2.869,2.869-7.65,0-11.475L546.019,224.831z"/>
	</g>
</g>
</svg>
