<?xml version="1.0" encoding="utf-8"?>
<!-- Generator: Adobe Illustrator 15.0.0, SVG Export Plug-In . SVG Version: 6.00 Build 0)  -->
<!DOCTYPE svg PUBLIC "-//W3C//DTD SVG 1.1//EN" "http://www.w3.org/Graphics/SVG/1.1/DTD/svg11.dtd">
<svg version="1.1" id="图层_1" xmlns="http://www.w3.org/2000/svg" xmlns:xlink="http://www.w3.org/1999/xlink" x="0px" y="0px"
	 width="612px" height="792px" viewBox="0 0 612 792" enable-background="new 0 0 612 792" xml:space="preserve">
<g>
	<g>
		<path fill="#FFFFFF" d="M160.65,548.044c6.693,0,11.475-4.781,11.475-11.476V287.943c0-10.519-7.65-18.168-17.213-18.168h-37.293
			c-9.563,0-17.213,7.649-17.213,17.212v249.581c0,6.694,4.781,11.476,11.475,11.476H160.65z M272.531,548.044
			c6.693,0,11.475-4.781,11.475-11.476V176.063c0-10.519-7.649-19.125-17.212-19.125H229.5c-9.563,0-17.213,8.606-17.213,19.125
			v360.506c0,6.694,4.781,11.476,11.476,11.476H272.531z M384.412,548.044c6.694,0,11.476-4.781,11.476-11.476v-153
			c0-10.519-7.65-19.125-17.213-19.125h-37.294c-9.563,0-17.212,8.606-17.212,19.125v153c0,6.694,4.781,11.476,11.475,11.476
			H384.412z M496.294,548.044c6.693,0,11.475-4.781,11.475-11.476V287.943c0-10.519-7.649-18.168-17.212-18.168h-36.338
			c-10.519,0-18.169,8.605-18.169,18.168v248.625c0,6.694,4.781,11.476,11.476,11.476H496.294z"/>
	</g>
	<path fill="#FFFFFF" d="M96.581,597.769h418.838c10.519,0,18.169,8.606,18.169,18.169l0,0c0,10.519-8.606,18.169-18.169,18.169
		H96.581c-10.519,0-18.168-8.606-18.168-18.169l0,0C78.413,606.375,87.019,597.769,96.581,597.769z"/>
</g>
</svg>
