<?xml version="1.0" encoding="utf-8"?>
<!-- Generator: Adobe Illustrator 15.0.0, SVG Export Plug-In . SVG Version: 6.00 Build 0)  -->
<!DOCTYPE svg PUBLIC "-//W3C//DTD SVG 1.1//EN" "http://www.w3.org/Graphics/SVG/1.1/DTD/svg11.dtd">
<svg version="1.1" id="图层_1" xmlns="http://www.w3.org/2000/svg" xmlns:xlink="http://www.w3.org/1999/xlink" x="0px" y="0px"
	 width="612px" height="792px" viewBox="0 0 612 792" enable-background="new 0 0 612 792" xml:space="preserve">
<g>
	<path fill="#FFFFFF" d="M418.838,184.669c0-7.65-6.694-14.344-14.344-14.344H207.506c-7.649,0-14.344,6.693-14.344,14.344v42.075
		h224.719v-42.075H418.838z"/>
	<g>
		<rect x="390.15" y="339.581" fill="#FFFFFF" width="56.418" height="27.731"/>
		<path fill="#FFFFFF" d="M517.331,255.432H94.669c-7.65,0-14.344,6.693-14.344,14.344v224.719c0,7.649,6.693,14.344,14.344,14.344
			h70.763v98.493c0,7.65,6.693,14.344,14.344,14.344h253.406c7.649,0,14.344-6.693,14.344-14.344v-98.493h70.762
			c7.65,0,14.344-6.694,14.344-14.344V269.775C530.719,261.169,524.981,255.432,517.331,255.432L517.331,255.432z M390.15,565.256
			H221.85V452.419h169.257v112.837H390.15z M475.256,452.419h-27.73V396H165.432v56.419H137.7V311.85h337.556V452.419
			L475.256,452.419z"/>
	</g>
</g>
</svg>
