<?xml version="1.0" encoding="utf-8"?>
<!-- Generator: Adobe Illustrator 15.0.0, SVG Export Plug-In . SVG Version: 6.00 Build 0)  -->
<!DOCTYPE svg PUBLIC "-//W3C//DTD SVG 1.1//EN" "http://www.w3.org/Graphics/SVG/1.1/DTD/svg11.dtd">
<svg version="1.1" id="图层_1" xmlns="http://www.w3.org/2000/svg" xmlns:xlink="http://www.w3.org/1999/xlink" x="0px" y="0px"
	 width="612px" height="792px" viewBox="0 0 612 792" enable-background="new 0 0 612 792" xml:space="preserve">
<g>
	<g>
		<path fill="#E71F21" d="M383.456,197.1H382.5H383.456z M280.182,187.537c5.737-2.868,9.563,0,12.431-4.781
			c3.825,4.781,12.432,0.957,18.169,0.957c0,0-3.825-2.869-0.956-3.825c2.868,0.956,4.781,0,4.781,2.868
			c-3.825,0.957-1.913-0.956-4.781,0c0.956,2.869,5.737,2.869,11.475,0.957v-4.781c-0.956,0-0.956,0-1.912-0.957l-0.956-3.824
			c-1.913,3.824-9.563,3.824-12.432,0c-0.956,0-0.956,2.868-0.956,2.868c-0.956-3.825-5.737,0-7.65,2.869
			c0-4.781-5.737,3.825-9.563,2.868c-0.956-3.824-1.912-3.824-1.912-4.781c-3.825,1.913-4.781,0.957-7.65,3.825L280.182,187.537z
			 M318.432,180.844c0,0-0.957,0-1.913-0.956c-0.956,0,1.913-1.913,1.913-1.913S320.344,179.888,318.432,180.844L318.432,180.844z
			 M326.081,175.106c0.956,3.825,4.781,0,3.825,4.781l-3.825,2.868l0.956,3.825c1.913,0.956,0.957-2.868,3.825-5.737
			c0.956,3.825,4.781,2.869,8.606,3.825c0.956-2.869-4.781-2.869-3.825-4.781c0.956-0.956-0.956,0-0.956-4.781
			C330.862,175.106,329.906,174.15,326.081,175.106L326.081,175.106z M275.4,180.844c-3.825,0.956-0.957,3.825-1.913,4.781h0.956
			C274.443,184.669,275.4,183.713,275.4,180.844L275.4,180.844z M583.313,339.581c0.956-0.956,4.781-0.956,5.737,0
			c-0.956,0.956-1.912,0-5.737,2.869c1.912,5.737,0,9.563,1.912,15.3c2.869,0,4.781-0.956,5.738,0c-0.957,0.956,0,2.869,0,5.737
			c-7.65,3.825-3.825,11.476,0,19.125c-2.869,2.869,1.912,5.737-2.869,7.65c2.869,2.868,2.869,0,3.825,0.956
			c-0.956,0,0,2.869,0,2.869c2.868,0,5.737-5.738,8.606-3.825c0-0.956,0-3.825,0.956-5.737c-0.956,0.956-2.869,2.868-4.781,0.956
			l1.912-2.869c0-9.563,0-21.993-1.912-32.513c-5.737,2.869-2.869-5.737-8.606-7.649c0.956-0.956,0-2.869,0.956-3.825
			c0.956,4.781,1.913,2.869,5.737,0c-3.824-3.825-3.824-7.65-1.912-9.563c0,0-0.956,0.956-2.869,0.956
			c-0.956-0.956,0-2.868,3.825-4.781c-3.825-4.781-4.781-12.431-7.649-18.169c-2.869,2.869,0,5.738-2.869,7.65
			c-1.912-2.869,0-2.869-0.956-4.781c0,0-2.869,0-4.781,0.956c-0.956-0.956,0-7.649,3.825-8.606c0,0-0.957,0.957,0,2.869
			c1.912-2.869,0.956-3.825,3.824-4.781c-3.824-0.956-2.868-5.737-4.781-9.563c-1.912,2.869-4.781,0.956-5.737,2.869
			c0-2.869,0-2.869,3.825-4.781l-0.956-0.957c2.868,0,0.956-0.956,2.868-2.868c-3.824-4.781-5.737-11.476-8.605-17.213
			c-0.957,0.956-4.781,0.956-5.738,2.869l-2.868-2.869l-4.781,3.825c1.912,2.869,3.825,0.956,4.781,3.825l-1.913,2.868
			c7.65,12.432,9.563,24.863,13.388,36.338l0.956-0.956c-2.868,2.868,3.825,4.781,0,5.737c0.957,0.956,1.913,0.956,3.825,2.869
			c0-0.957,0.956-0.957,1.913,0l0.956,0.956h-2.869v0.956c-0.956,0-0.956,0-0.956,0.956
			C581.4,330.019,579.487,334.8,583.313,339.581L583.313,339.581z M590.963,348.188l1.912,2.869l-1.912,2.868
			C590.963,350.1,588.094,349.144,590.963,348.188L590.963,348.188z M573.75,295.594c-0.956-0.956-2.869-2.869-0.956-4.781
			c0.956,0.956,1.912,0,1.912,0C574.706,293.682,576.619,294.638,573.75,295.594L573.75,295.594z M568.969,286.031
			c-0.956-4.781,3.825-4.781,7.65-8.606C579.487,283.162,572.794,284.119,568.969,286.031L568.969,286.031z M590.006,330.019
			l-3.824,2.869c0-2.869-1.913,0-4.781-3.825c0.956,0,0.956,0,1.912,0.956C585.225,330.975,588.094,328.106,590.006,330.019
			L590.006,330.019z M282.094,178.932v-1.913V178.932z M271.575,185.625l-1.913-5.737c-9.563,2.868-13.387,3.825-21.993,4.781
			c-0.956,2.868,0,4.781-3.825,5.737l-0.956-3.825l-3.825,1.913c3.825,2.868,0,0.956,0.956,3.824c0.956,0,7.65,0.957,7.65-2.868
			c3.825,3.825,9.563,0,12.431,0C263.925,187.537,266.794,187.537,271.575,185.625L271.575,185.625z M262.969,183.713v0.956
			c-0.956,2.868-5.737,2.868-4.781,3.825C257.231,187.537,262.013,183.713,262.969,183.713L262.969,183.713z M335.644,177.019
			c3.825,2.869,4.781,2.869,8.606,3.825c-0.956,3.825-1.912,3.825-1.912,5.737c3.824-0.956,5.737,0,9.563,0
			c0.956-2.868,1.912-3.825,4.781-3.825c-2.869-0.956-2.869-0.956-0.957-3.824c-3.824,0.956-1.912-0.957-4.781,0
			c0,0-0.956,2.868,0,4.781c-5.737-1.913-1.912-4.781-3.824-5.738C343.294,178.932,340.425,174.15,335.644,177.019L335.644,177.019z
			 M401.625,198.057l-2.869,0.956l-1.912,0.956c-0.956,1.912,1.912,0,3.825,1.912C401.625,201.881,401.625,200.925,401.625,198.057
			L401.625,198.057z M403.537,202.838c2.869-0.957,0-2.869,3.825-2.869c0-2.869-1.912,0-3.825-0.956
			C403.537,200.925,402.581,199.013,403.537,202.838L403.537,202.838z M438.919,134.943l-2.869,2.869l2.869,2.869
			C439.875,139.725,439.875,135.9,438.919,134.943L438.919,134.943z M379.631,192.318c-1.912-2.868,0-4.781,0-5.737
			c-5.737,2.869-8.605,0.956-9.563,2.869c1.913,1.912-1.912,0.956,0,3.825C371.981,192.318,376.763,189.45,379.631,192.318
			L379.631,192.318z M383.456,197.1l1.913-0.956l-1.913-5.737c1.913,2.869,4.781,3.825,5.737,4.781
			c-0.956,0-1.912,3.825-1.912,4.781c0.956,0,5.737-2.869,7.65,0.956c0.956-2.868,1.912-4.781,0-9.563
			c-1.913,6.694-5.738-3.825-11.476-0.956C383.456,192.318,382.5,194.231,383.456,197.1L383.456,197.1z M457.088,147.375
			c-2.869,0-2.869,2.869-0.957,3.825C456.131,149.287,460.912,148.331,457.088,147.375L457.088,147.375z M233.325,190.406
			l-7.65,3.825c0,0.956,1.913,2.868,0.956,3.825c0,0,0.957,0.956,0.957,3.824l7.649-2.868c0-0.956-4.781,0-4.781-2.869
			C232.369,193.275,235.237,193.275,233.325,190.406L233.325,190.406z M415.969,128.25l1.912,2.869l2.869-2.869l-2.869-3.825
			C416.925,126.338,413.1,127.294,415.969,128.25L415.969,128.25z M411.188,126.338c-0.956-0.957-1.912,0-5.737,0
			c0,2.868-2.869,2.868,0,5.737L411.188,126.338z M360.506,180.844c-3.824,0.956-1.912-0.956-4.781,0
			c-0.956,2.869,1.913,0.956,3.825,2.869c0,0.956-0.956,2.868,0,4.781c0.956,0,0,0.956,3.825,2.868c3.825-0.956,4.781,0,5.737,0
			s0-4.781,1.913-3.825l-0.957-3.824c-2.868,1.912-6.693-1.913-8.605,1.912L360.506,180.844z M459.956,228.656L257.231,311.85
			l14.344,5.738l192.206-78.413C464.737,240.131,459.956,228.656,459.956,228.656L459.956,228.656z M591.919,396h-0.956
			c0,2.869,0.956,1.912,3.824,2.869c-2.868,0-0.956,2.868-2.868,2.868v0.956c0.956,0,2.868,0,2.868-0.956h1.913
			c0.956,0,2.868,0,3.825-2.868l-3.825,2.868c-0.956,0-1.913-2.868-1.913-2.868L591.919,396z M601.481,396.956
			c-0.956-0.956-0.956-2.868-0.956-3.825c-1.913,2.869,0,3.825,0,4.781C600.525,397.912,601.481,397.912,601.481,396.956
			L601.481,396.956z M96.581,375.919h-0.956v-2.869l-5.737,2.869c0,0,0,0.956-0.957,2.868h0.957l-2.869,0.957l0.957,3.824
			c-0.957,0-1.913,0.957-4.781,0.957c0,12.431-2.869,26.774,2.869,43.987l3.825-0.956c0.956,2.868,0,4.781,0.956,8.605v2.869
			c0,0,0.956,0,0.956-0.956c0,0,0.957,0.956-1.912,2.868c1.912,2.869,0.956,4.781,3.825,7.65c1.913-2.869-0.956-3.825,1.913-4.781
			l2.869,2.869l2.869-2.869c0-2.869-2.869,0-7.65-2.869c2.869-2.868,0-5.737,0.957-8.605h-1.913l-0.957-2.869v-0.956
			c2.869,0,3.825,0.956,5.738,0c-1.913-3.825-1.913-6.694-0.957-9.563c-1.912,0-3.825-0.956-4.781-3.825v-0.956
			c0.957,0,0.957,0.956,2.869,0V411.3h0.956c-0.956-0.956,0.956-0.956,0.956-3.825c-1.912-1.912-0.956-4.781-1.912-5.737h-1.913
			V388.35h0.956l154.913-62.156c3.825-1.912-0.956-12.431-0.956-12.431L96.581,375.919z M89.888,416.081
			c0,0.956-0.957,0.956,0,2.869h0.956c0,2.868,0,0.956-2.869,0.956c0.956,0.956,0.956,2.869,0.956,2.869
			c0-2.869-0.956-4.781-0.956-5.738L89.888,416.081L89.888,416.081z M94.669,438.075c-1.913-0.956-1.913-0.956,0.956-2.869
			C95.625,437.119,95.625,438.075,94.669,438.075L94.669,438.075z M94.669,422.775c0,4.781-2.869,3.824-3.825,3.824
			c0,0,0-0.956,0.956-2.868C92.756,423.731,94.669,423.731,94.669,422.775L94.669,422.775z M531.675,206.662
			c-1.912,0,0.956-0.956-0.956-0.956c0,2.869-0.956,0.956-2.869,2.869l0.957,0.956L531.675,206.662z M541.237,232.481
			c0,0,0.956-2.869,0-5.737c0,2.868,0,2.868-2.868,2.868C540.281,228.656,541.237,230.568,541.237,232.481L541.237,232.481z
			 M528.807,218.138c0.956-0.956,1.912-2.869,7.649,0c0.956-0.956,1.913-2.869,0.956-3.825c-2.868,2.869-5.737,0-8.605-0.956
			C533.588,212.4,526.894,214.313,528.807,218.138L528.807,218.138z M146.307,533.7l-4.781-5.737c-0.957,0.956,0.956,4.781,0,5.737
			c-2.869,0-3.825-0.956-5.738,0l4.781,5.737c0.957-1.912,0.957-3.825,1.913-3.825C142.481,534.656,144.394,533.7,146.307,533.7
			L146.307,533.7z M536.456,230.568c0.956-2.868,1.913,0,1.913,0l-0.957-2.868C536.456,228.656,534.544,229.612,536.456,230.568
			L536.456,230.568z M504.9,184.669l-2.869-2.869c-0.956,0.956-1.912,2.869-5.737,2.869c0,0.956-2.869,0,0,3.825
			C500.119,183.713,502.031,187.537,504.9,184.669L504.9,184.669z M96.581,366.356c5.738-15.3,5.738-32.513,15.3-48.769
			c-2.868,0-2.868-0.957-2.868-3.825h0.956c3.825-0.956,4.781-3.825,3.825-8.606c5.737-2.869,4.781-8.606,9.563-12.432
			c-3.825-4.781-0.956-5.737-1.913-12.431c0.957-0.956,1.913-2.869,3.825-0.956c0,4.781-2.868,4.781,0,9.563
			c11.476-18.169,21.994-35.382,41.119-49.726c0.956-2.868,7.649-4.781,7.649-9.563c0,0.956,0,0.956,2.869,0.956
			c5.737-7.649,21.037-9.563,22.95-18.168c8.606-0.957,18.169-9.563,27.731-13.388l-0.957-0.956l0.957-0.957
			c0,0-0.957-0.956-0.957,0l-0.956-2.868c-0.956,0-5.737,2.868-4.781,3.825c-3.825-2.869-12.431,4.781-14.344,5.737
			c0,0.956,0.956,3.825,0,4.781c-3.825,0.956,0-4.781-3.825-2.869c0,0.956,0.957,3.825-1.912,4.781
			c-4.781-1.912-13.388,3.825-19.125,7.65c0.956,3.825,1.912,0.956,3.825,2.868c-3.825,0.957-0.956,2.869-1.913,3.825
			c-2.868-5.737-0.956,0-4.781-2.868c0,0,3.825,2.868,0.957,3.824l-2.869-4.781c-13.388,2.869-13.388,12.432-23.906,16.257
			c0,0.956-0.956,2.868,0,4.781c-11.475,12.431-21.994,24.862-28.688,38.25v-0.956c-0.956,0,0,4.781-1.912,4.781
			c0.956,3.824,1.912,0.956,3.824,2.868c-3.824,0.956-2.868-0.956-4.781,0c0,0.956,3.825,2.869,0.957,3.825l-3.825,0.956
			c0,0.956-0.956,2.869-2.869,3.825c2.869,5.737,0.956,9.563-0.956,12.432c0.956,2.868,0,3.824-0.956,5.737v-4.781h0.956
			c0-0.956,0-4.781-2.869-5.737c-3.824,0.956-0.956,7.649-4.781,8.605c0,0.957,3.825,4.781,2.869,5.738
			c-3.825-4.781-0.956,7.649-5.737,7.649c2.869,5.737-4.781,8.606,0,12.432c-3.825,0.956-2.869-0.956-4.781,0l-0.957,4.781
			c-3.825,0.956-0.956,7.649-4.781,8.606c3.825,2.868,0,4.781,0.957,8.605c0.956,0,1.912-3.824,3.825-0.956v0.956
			c-2.869,0.957-3.825,2.869-3.825,4.781c0-0.956,0-3.824-0.957-2.868c1.913,3.825-0.956,4.781,0,8.606
			C92.756,368.269,95.625,366.356,96.581,366.356L96.581,366.356z M225.675,198.057c0,0-0.956-0.957,0-0.957V198.057z
			 M212.287,201.881c0,0.957,0,4.781-3.824,5.738C207.506,203.794,210.375,203.794,212.287,201.881L212.287,201.881z
			 M586.182,451.463c0,0,0,0.956,0.956,3.824l3.825-0.956C590.963,451.463,588.094,450.506,586.182,451.463L586.182,451.463z
			 M182.644,153.112v0.956c0.956,0,0.956-0.956,2.869-2.868C183.6,153.112,183.6,153.112,182.644,153.112L182.644,153.112z
			 M94.669,368.269l0.956,2.869v2.868c0.956-0.956,0-2.868,0-4.781v-0.956v0.956L94.669,368.269z M594.787,331.932v-0.957
			C595.744,330.975,594.787,331.932,594.787,331.932L594.787,331.932z M581.4,471.544c3.824-0.956,0-4.781,0-4.781
			C582.356,467.719,579.487,466.763,581.4,471.544L581.4,471.544z M585.225,468.675c0,0.956-0.956,2.869,0,4.781
			c3.825-0.956,0-5.737,3.825-5.737c-3.825-2.869,0.956-2.869,0-4.781c-2.868-1.912-3.825,0.956-7.649,3.825
			C583.313,467.719,585.225,468.675,585.225,468.675L585.225,468.675z M131.963,527.963c0.956-3.825,0.956-0.957,2.868-2.869
			c-0.956-0.956,0-7.65-4.781-5.737c0.956-3.825-4.781-9.563-4.781-12.432c-3.825-3.825-3.825-7.649-5.737-11.475l-4.781,4.781
			c4.781,9.563,7.65,12.431,11.475,21.037c2.869,0,4.781-0.956,7.65,2.869l-3.825,1.912L131.963,527.963z M118.575,505.013
			l0.956-0.956c1.912,0,3.825,4.781,4.781,3.824C123.356,512.662,118.575,508.838,118.575,505.013L118.575,505.013z
			 M113.794,496.406c2.868,2.869,4.781,0,5.737,0C117.619,496.406,115.706,495.45,113.794,496.406L113.794,496.406z
			 M110.925,493.537l5.737-4.781c-3.824-4.781-0.956-8.605-7.649-9.563c3.825-4.781-0.956-12.431-3.825-18.168
			c0,0-0.956,3.824-2.869,2.868c0-2.868-0.957-4.781,0-5.737c2.869,2.869,0,2.869,0.956,4.781c2.869-2.869,2.869-7.65-0.956-12.432
			c-0.957,0.957-4.781,0.957-4.781,0.957c0.956,0.956,0.956,0.956,0,2.868l-2.869,2.869c3.825,0.956,5.737,8.606,4.781,12.431
			c0.956,0.957,2.869,0,2.869,0c-2.869,2.869,0.956,5.738,3.825,5.738c-4.781,0.956,4.781,4.781,5.737,9.563
			c-4.781,3.824-3.824,5.737-5.737,4.781C109.969,487.8,108.057,490.669,110.925,493.537L110.925,493.537z M100.406,457.2
			l-0.956-2.869c0,0,0.956-0.956,2.869,0C101.362,454.331,103.275,456.244,100.406,457.2L100.406,457.2z M463.781,154.068
			l0.956-0.956c-0.956-0.956-3.825-0.956-5.737,0c0.956,0.956,0.956,4.781,2.869,5.737c3.824,0,3.824,0,4.781-1.912L463.781,154.068
			z M397.8,667.575c-0.956-0.956-3.825-0.956-5.737,0C395.888,669.487,397.8,669.487,397.8,667.575L397.8,667.575z M401.625,668.531
			c0,0,0.956,2.869,5.737,2.869c-1.912-1.913-1.912-1.913-0.956-3.825C405.45,667.575,402.581,668.531,401.625,668.531
			L401.625,668.531z M51.638,494.494c0.956,0,1.912-0.957,3.825-0.957C55.462,490.669,54.506,493.537,51.638,494.494L51.638,494.494
			z M402.581,676.182c0-3.825-0.956-4.781-0.956-7.65c-2.869,0-4.781,0.956-5.737,0.956h-0.956c-0.957-0.956-2.869,0-4.781-0.956
			v3.825h-0.957c0,0,0-0.956-0.956-2.869c-1.912,0-5.737,4.781-8.606,0.956c0,0-0.956,0.957-0.956,2.869l-4.781,2.869
			c0-0.957,0-2.869,0.956-2.869c0-2.869-0.956,0.956-1.912,0v-2.869c0.956,0.957,1.912-2.868,3.825,0.957
			c0.956-0.957,1.912,0,4.781-0.957c-0.956-0.956,0.956-3.824,0-7.649c-1.913,2.868,0,2.868-0.956,3.825
			c-0.957-0.957-1.913,2.868-4.781,0.956c0,0,0.956-0.956,0-2.869c-18.169,3.825-35.382,8.606-53.551,5.737l-4.781,3.825
			l-4.781-0.956c-4.781,3.825-11.475-3.825-17.212,0.956l-1.913-2.868c-5.737,2.868-12.431,0.956-17.212,0.956
			c-5.737-3.825-13.388-3.825-19.125-7.65c-2.869,0-5.737,0-8.606-0.956c-1.912-2.869-4.781,0.956-8.606-3.825
			c-14.344,0.956-26.774-9.563-40.162-9.563c-22.95-15.3-44.944-22.95-65.981-43.987c-1.912,0,0,2.869-1.912,2.869
			c-4.781-5.738-9.563-12.432-17.213-19.125h-1.912c-0.957,0-2.869,0-0.957-0.957c0,0,0.957-0.956,2.869,0
			c-9.563-9.563-21.038-21.993-28.688-35.381c0,0-0.956,0.956-2.869,0c2.869-2.869,0-2.869,0.956-3.825
			c-7.65-4.781-7.65-12.431-12.431-15.3c0-2.869-3.825-14.344-9.563-11.475l1.913-2.869c-1.913-2.869-3.825-4.781-3.825-7.65
			c-0.956,0.957,0,2.869-0.956,3.825c0.956,0.956,0.956,4.781,0,5.737l-1.913-0.956l0.956-0.956c-2.869-2.869-2.869,0-3.825-0.956
			c2.869-2.869,2.869,0,4.781-0.956c-0.957-0.957,0-2.869,0.956-3.825c-3.825-7.65-4.781-12.432-7.65-18.169
			c0,0-0.956,0.956-2.869,0c1.913,4.781-1.913-0.956-2.869,4.781l-1.913-2.869c0.956-0.956,0.956-3.824,0.956-3.824
			c0,0.956,2.869,0.956,3.825,0.956l-1.913-0.956c0,0,0.956,0.956,1.913,0c-0.957-2.869-0.957-2.869,0-3.825
			c-1.913-2.869-1.913,0-3.825-0.956l2.869-2.869c-12.431-26.775-13.387-52.594-14.344-76.5c0.957,0,0-0.956,0-2.869
			c0,0-0.956,0.957,0,2.869c-0.956,0.956-4.781,0.956-3.825-0.956c0.956,0.956,2.869-2.869,3.825-0.956c0,0,0-0.957-0.956-0.957
			c-4.781,1.913-9.563,4.781-13.388,8.606c1.913,2.869,0,5.737,4.781,9.563l-0.956,0.956c3.825,21.038,5.737,40.163,11.475,59.288
			c0.956,0.956,4.781-0.956,3.825,0.956l-1.912-0.956c4.781,5.737,3.825,14.344,10.519,21.037c-0.956-0.956-0.956-0.956,0-2.868l0,0
			c0-2.869,0-3.825,2.869-4.781c0.957,0.956,0,2.868-0.956,5.737c3.825,0.956,5.737,3.825,8.606,4.781c-1.912,2.868-5.737,0-7.65,0
			c-3.825,0,0.957-0.956,0-3.825c-0.956,0.956-2.869,0-5.737,2.869c5.737,11.475,9.563,21.993,17.212,32.512
			c0.956-0.956,2.869-2.868,4.781-0.956c-4.781,0.956-0.956,3.825,0,7.65c0.956-0.956,1.913-2.869,5.737,0l-4.781,3.825
			c2.869,6.693,11.475,8.605,8.606,13.387c4.781,4.781,3.825,5.738,7.65,8.606c0,5.737,8.606,13.388,13.388,21.038
			c4.781-0.957,5.737,0,5.737-2.869c0,0,3.825,0.956,2.869,2.869c-0.956,0.956-2.869,0-4.781,0.956
			c5.738,11.475,13.388,12.431,21.038,21.993c0.956-0.956,1.912,0,4.781-0.956c2.868,5.737,13.387,12.432,21.037,14.344
			c1.912,2.869,0,2.869,0.956,4.781c4.781,3.825,12.432,8.606,17.213,12.432c0.956-0.956,0.956-3.825,1.912-2.869
			c-3.825,4.781,3.825,4.781,4.781,5.737c0,0,0.956-3.824,1.913-2.868c0.956,0.956-5.738,2.868-0.957,3.825
			c2.869,0,4.781-0.957,5.738,0c14.344,8.605,30.6,14.344,44.943,19.125c1.912,0,4.781,0.956,7.65,2.868l-0.957,0.956
			c0.957,0,3.825,0.957,4.781,2.869v-2.869h1.913v0.957c9.563,2.868,21.037,7.649,31.556,7.649v-0.956c1.913,0,5.738,0,8.606,0.956
			c0,0.956,0,2.869,0.956,3.825c4.781-0.956,7.65-0.956,9.563,0.956c0,0-0.956-0.956,0-2.868c0.957,0,2.869,0.956,3.825,4.781
			c5.737-2.869,12.432,0,19.125-0.957c-0.956-2.868-3.825-2.868-4.781-3.824v-0.957c0.956,0,0.956,0,2.869,0.957v-0.957
			c0-0.956,0.956-0.956,1.912-0.956v0.956l1.913-0.956c0,0.956,0.956,0.956,0.956,3.825c0,0,0-0.956-1.913-0.956
			c0.957,3.825,3.825,2.868,3.825,4.781c1.913-3.825,5.737,0,9.563-0.956c-0.956-2.869,0-3.825,0-4.781h0.956
			c0.957,0,0.957,0.956,1.913,3.824l3.825-0.956c-0.957,2.869,0,0.956,0.956,3.825c5.737-2.868,11.475-2.868,18.169-2.868v-6.694
			h3.824v0.956c0.957,0,1.913,0,1.913-0.956v2.869c0,0-4.781,3.824-1.913,3.824c5.738-2.868,7.65,0.957,9.563-0.956
			c0-0.956-0.956-3.825,0-5.737h-0.956h3.825c0.956,2.869,3.825,5.737,0.956,8.606c1.913,0.956,4.781,2.868,9.563,0
			c-0.956-3.825-1.912-0.956-3.825-2.869c1.913,0,5.738-0.956,8.606-2.868c-0.956,0.956-0.956,2.868,0,3.824
			c0.956-0.956,1.913-0.956,3.825-2.868v-0.956v0.956c4.781-2.869,9.563-3.825,9.563-7.65l0.956,3.825v-2.868h0.956
			c1.913-4.781,5.738-5.738,5.738-8.606C405.45,672.356,403.537,673.313,402.581,676.182L402.581,676.182z M38.25,459.112
			c0,0.956-0.956,3.825-1.913,3.825C32.513,461.025,36.337,461.025,38.25,459.112L38.25,459.112z M32.513,466.763
			c0.956-0.956,1.912-2.869,4.781-0.956C36.337,464.85,33.469,467.719,32.513,466.763L32.513,466.763z M37.294,474.412
			c-0.957-0.956,0-2.868,0.956-3.824l1.913,3.824C40.163,476.325,40.163,473.456,37.294,474.412L37.294,474.412z M46.856,487.8
			l0.956,1.913c-2.869,0,0,2.868-0.956,3.824C46.856,490.669,45.9,489.713,46.856,487.8L46.856,487.8z M99.45,582.469
			c0,0-2.869,0-2.869,2.869C94.669,582.469,99.45,579.6,99.45,582.469L99.45,582.469z M226.631,664.706
			c1.913-2.868,4.781-3.825,5.738-2.868C231.412,667.575,227.588,667.575,226.631,664.706L226.631,664.706z M305.044,680.006
			l-1.913-2.868C304.088,674.269,308.869,677.138,305.044,680.006L305.044,680.006z M342.338,684.787
			c1.912,0,3.824,0.957,3.824,0.957v2.868C343.294,690.525,342.338,687.656,342.338,684.787L342.338,684.787z M358.594,674.269
			c0-0.956,0.956-3.825,1.912-0.956C360.506,673.313,358.594,673.313,358.594,674.269L358.594,674.269z M358.594,677.138
			l1.912-2.869l0.957,2.869C361.463,677.138,360.506,678.094,358.594,677.138L358.594,677.138z M383.456,676.182
			c-0.956,0-1.912,0-1.912-0.957l0.956-1.912C383.456,674.269,384.412,676.182,383.456,676.182L383.456,676.182z M389.193,673.313
			c0-0.956,0.957-2.869,1.913-0.956C392.063,672.356,390.15,672.356,389.193,673.313L389.193,673.313z M403.537,666.619l2.869-0.957
			c0-0.956-0.956-2.868-2.869-2.868C406.406,664.706,402.581,664.706,403.537,666.619L403.537,666.619z M528.807,429.469v-7.65
			c0.956,0.957,1.912,0.957,3.824,3.825c4.781-7.649,1.913-12.431,4.781-17.212c-0.956,0.956-3.824-0.957-2.868-2.869
			c0,0,0.956,0.956,2.868,0l-2.868-3.825c-0.956,0.956-1.913,2.869-4.781,0c0-15.3,0-31.556-2.869-47.813
			c-3.825,0.956-1.912,4.781-7.649,4.781c0.956,9.563,2.868,19.125,2.868,28.688l-371.024,153l0.956,3.825l-7.65-7.65
			c-0.956,0.957-0.956,3.825-0.956,3.825s0-0.956-0.956-0.956l0.956-0.956l-0.956-2.869v2.869l-0.956,2.868
			c0.956,0.957,3.824,4.781,4.781,3.825c-0.957,3.825,7.649,9.563,9.563,12.432c0.956-0.956,1.912-2.869,4.781-0.956
			c2.868,2.868-4.781,0.956-0.957,3.824c0.957-0.956,1.913-2.868,5.738,0c0,5.738,7.649,12.432,12.431,15.301
			c1.913-2.869,0-2.869,0.956-3.825c2.869,2.868,2.869,0,3.825,0.956c-4.781,3.825,0.956,0.956,0,5.737c0,0,0.956-3.825,2.869-2.868
			l-2.869,2.868c5.737,11.476,14.344,8.606,21.994,17.213c0.956-0.956,1.912,0,4.781-0.956c3.825,2.868,7.649,3.824,9.563,5.737
			c-0.956,0-1.913,0.956-3.825,2.868c4.781,7.65,12.432,5.738,14.344,9.563c0.956,0,0.956-0.956,0.956-2.868
			c0,0.956,0,3.825,0.956,3.825c0-0.957,1.913-3.825,3.825-0.957c0,0-0.956,0-0.956,2.869l3.825-0.956v0.956
			c0,0,0.956-0.956,0.956-2.869l0,0V610.2h-0.956v-0.956h1.912l0.956-0.957c0.957,0,3.825,0.957,5.738,0.957
			c0.956,3.824,2.868,0.956,3.824,2.868c0,0,0.957,0,0.957-0.956c0,0,0,0.956,0.956,2.869c0.956,0,1.912,0.956,3.825,0
			c1.912,0.956,7.649,0.956,9.563,2.868c-0.957-3.825-1.913-0.956-3.825-2.868l3.825-0.957c0.956,3.825,3.824,2.869,3.824,4.781
			c0.957,0,0.957-0.956,0.957-0.956h0.956c0.956,0.956,3.825,2.869,5.737,2.869c1.912,2.868,7.65,0,9.563,2.868
			c0.956,0,1.912-2.868,3.825-3.824c-0.956,2.868,0,0.956,0.956,3.824c3.825-0.956,4.781,0,5.737,0v-0.956
			c0.956,0,0.956,0,0.956,0.956c0.957,0,0.957-0.956,1.913-0.956c0,0.956,0,2.869,0.956,2.869h9.563
			c3.825-0.956,0.956-2.869,1.912-3.825c0.957,3.825,2.869,0.956,3.825,2.869c13.388-3.825,28.688-2.869,43.987-5.738
			c2.869-0.956,5.738-0.956,9.563-2.868c0.957,0.956,1.913,0.956,3.825,0.956c0.956,0,0.956-0.956,0.956-2.869h2.869v0.957
			c3.825-0.957,9.563-3.825,13.388-3.825c7.649-2.869,15.3-8.606,27.731-13.388c2.868-3.825,11.475-4.781,11.475-9.563
			c0,0,0,0.956,2.869,0.956c11.475-9.563,25.818-17.212,32.512-27.731c3.825-0.956,9.563-5.737,11.476-11.475
			c0,0,0,0.956,2.868,0.956c4.781-8.606,14.344-17.212,18.169-26.774c0-0.957-3.825,0.956-2.868-0.957
			c4.781,0,4.781-3.824,3.824-5.737l0.957,3.825c0.956,0,0-5.737,5.737-7.65c0,0-2.869-0.956-0.956-3.824
			c4.781,2.868,0.956-7.65,8.605-7.65l-0.956-3.825c5.737-7.649,5.737-18.169,11.476-24.862c-2.869-7.65,2.868-9.563,0-15.3
			l3.825-0.956c-2.869-2.869,0-7.65-4.781-10.52C531.675,444.769,532.631,441.9,528.807,429.469L528.807,429.469z M529.763,404.606
			c0,0,0.956,0,0.956,0.956l-0.956,2.869V404.606z M529.763,416.081v2.869V416.081z M154.912,549v0.956h0.957l0.956,0.956
			c-0.956,2.869-1.913-0.956-5.737-1.912H154.912L154.912,549z M255.318,614.025c0.957-0.957,0.957-0.957,1.913-0.957
			L255.318,614.025z M257.231,610.2c0,0,0.956,0.956,0,2.868V610.2z M284.006,617.85c0-0.956,0-0.956,0.957-0.956L284.006,617.85z
			 M393.019,606.375l1.913-0.956C395.888,605.419,393.975,606.375,393.019,606.375L393.019,606.375z M420.75,592.987l0.956,3.825
			C421.706,595.856,419.794,593.943,420.75,592.987L420.75,592.987z M491.513,525.094c2.868-3.825,2.868,0.956,3.825,2.869
			C493.425,529.875,492.469,526.05,491.513,525.094L491.513,525.094z M503.943,506.925c1.913,0.956,0.957,0,3.825-0.956l0.956,3.825
			C508.725,506.925,503.943,507.881,503.943,506.925L503.943,506.925z M509.682,504.057c0.956,0,0-4.781,2.868-4.781l0.956,3.824
			L509.682,504.057z M516.375,453.375c-5.737,21.994-14.344,41.119-26.775,59.287v0.957c-5.737,0-8.605,7.649-9.563,12.431
			c-8.605,5.737-14.344,19.125-23.906,25.819c0,0.956,3.825,2.868,0.957,3.824c-1.913-0.956-9.563,5.738-9.563,9.563
			c-0.957,0,0-5.737-3.825-2.868c-2.869,3.825-9.563,5.737-12.432,12.431c-0.956-3.824-3.825,0.957-4.781,3.825
			c-9.563,0.956-19.125,12.432-32.513,15.3c0,0,0,0.957-0.956,2.869c0-0.956,0.956-2.869,0.956-2.869
			c-8.605,3.825-15.3,4.781-21.037,9.563l0,0l-0.956-2.868c-3.825,0.956-7.65,2.868-9.563,0.956
			c-0.956,0.956-2.869,3.825-2.869,4.781h-0.956v-3.825c-5.737,0-8.606,0.956-12.432,0c0,0.956,3.825,2.869,0.957,3.825
			c-3.825-0.956-7.65,0-12.432,0c0,0.956,1.912,2.869,0.956,3.825h-0.956v-0.956c-5.737,0-9.563,0.956-14.344,0.956v0.956h-8.606
			c-5.737,0-12.431,0-18.169-0.956v0.956h-4.781c-1.912-0.956-4.781-0.956-7.649,0c-3.825-4.781-9.563-2.869-15.3-5.737
			c-0.957,0.956-0.957,2.868-1.913,2.868H260.1c0,0,0.957,0,0.957-0.956c-21.038-5.737-40.163-9.563-59.288-25.818
			c-1.912,0-7.649-4.781-11.475-3.825c0.956-0.956,0.956-0.956,0-2.869c-8.606-3.824-15.3-15.3-23.906-17.212
			c-0.956-2.869-3.825-5.737-7.65-9.563l364.331-147.263c0,13.388-2.868,26.775-4.781,39.206c1.913,4.781,5.738,10.519,4.781,13.388
			C523.068,451.463,518.287,453.375,516.375,453.375L516.375,453.375z M415.013,666.619c0.956-0.957,0-2.869,0-5.738
			C415.013,660.881,413.1,664.706,415.013,666.619L415.013,666.619z M225.675,676.182v0.956h3.825
			C229.5,674.269,226.631,678.094,225.675,676.182L225.675,676.182z M537.412,578.644l-3.824,0.956l0.956,3.825l3.825-0.956
			C537.412,580.557,537.412,575.775,537.412,578.644L537.412,578.644z M415.969,657.057l1.912,2.868
			c1.913-1.912,2.869-2.868,0-4.781L415.969,657.057z M540.281,574.818c0.956,0,0.956-2.868,1.912-4.781
			c-1.912-0.956-0.956-3.824-4.781-2.868L540.281,574.818z M503.943,610.2c0.957,0.956,0,5.737,1.913,2.868
			C506.813,610.2,504.9,610.2,503.943,610.2L503.943,610.2z M518.287,596.813c0,0.956,3.825,2.869,4.781,2.869l-0.956-3.825
			L518.287,596.813z M532.631,402.693c0,0.957,0.957,0,1.913,0C534.544,402.693,534.544,401.737,532.631,402.693L532.631,402.693z
			 M493.425,618.807l3.825-0.957v0.957c0.956,0,2.869-3.825,2.869-4.781c-1.913,0-3.825-0.957-5.738,0
			C492.469,615.938,492.469,615.938,493.425,618.807L493.425,618.807z M421.706,660.881c4.781-0.956,0-5.737-0.956-4.781
			C421.706,658.013,420.75,658.969,421.706,660.881L421.706,660.881z M428.4,662.794h-0.957l0.957,3.825
			c0.956-2.869,0,0.956,0.956,0C427.443,664.706,428.4,663.75,428.4,662.794L428.4,662.794z M416.925,668.531
			c0,0.956,0.956,3.825,3.825,2.869c-0.956-3.825,2.869-4.781,3.825-8.606c-3.825,4.781-0.956-2.869-5.737-1.913
			C417.881,662.794,419.794,664.706,416.925,668.531L416.925,668.531z M460.912,640.8c-0.956,0,0-0.956-4.781,0
			c3.825,2.869,0,4.781,0.957,8.606l3.824-0.956C459.956,645.581,459.956,642.713,460.912,640.8L460.912,640.8z M294.525,124.425
			c0.956,0,0-0.956,0-2.868V124.425z M294.525,121.557v1.912V121.557z M568.013,268.818c0.956-0.956,3.825-0.956,0.956-2.868
			C568.013,267.862,568.013,267.862,568.013,268.818L568.013,268.818z M382.5,133.987c0,0.956,0.956,0.956,1.912,0.956
			C384.412,133.987,383.456,132.075,382.5,133.987L382.5,133.987z M389.193,121.557l-2.868,1.912l0.956,0.956
			C392.063,123.469,393.019,123.469,389.193,121.557L389.193,121.557z M29.644,380.7c0-0.956-3.825-2.869-3.825-3.825v5.737
			c0.956,0,3.825,2.869,2.869,5.737c-0.956,0-0.956-0.956-3.825-0.956c-0.956,0,0.957,3.825,4.781,1.913
			C31.556,388.35,27.731,383.568,29.644,380.7L29.644,380.7z M547.932,551.869c0,4.781,0,5.737,3.824,2.868l-0.956-3.825
			C548.888,550.912,547.932,551.869,547.932,551.869L547.932,551.869z M28.688,404.606c0.956,0,1.913-3.825,1.913-4.781
			C26.775,400.781,24.862,402.693,28.688,404.606L28.688,404.606z M29.644,352.969c0,0.956,0,4.781,0.957,8.606
			c0,0,5.737,3.825,1.913,5.737c0.956-3.825-0.957-4.781-0.957-5.737l-5.737,2.868v0.957c0.956,0,1.913,0.956,0.956,3.824
			c3.825-0.956,0-4.781,1.913-4.781l0.956,3.825l-3.825,0.956l-0.957-3.824v11.475v-0.956c0.957,0.956,4.781,0,3.825,2.868
			c1.913,0.957,0-0.956,0.956-2.868l1.913,2.868c-0.956,0,0.957,3.825-1.913,3.825c0,0.956-0.956,2.869,0,4.781
			c0.957,0,3.825,2.869,7.65,0.956c-0.957-4.781-1.913-1.912-2.869-2.868c0.957,0-0.956-3.825,0-4.781c0,0,0,0.956,1.913,0.956
			c0.957-18.169,1.913-35.381,9.563-52.594l-1.913-5.737l3.825-1.913c-2.869-5.737,7.65-9.563,3.825-17.212l3.825-0.956
			c0-5.738,0.957-12.432,3.825-17.213c3.825-5.737,5.737-13.388,9.563-17.213c0.956-2.868,1.913-4.781,3.825-8.605
			c3.825-0.957,0-4.781,5.738-7.65c0-2.869,0.956-4.781,2.869-7.65c-3.825-2.868-2.869-4.781,0-5.737
			c0.956,2.869,0.956,3.825,0.956,4.781c4.781-9.563,14.344-17.212,18.169-26.774c21.994-17.213,35.381-36.338,61.2-51.638
			c0.956-2.869-2.869-0.956-0.956-3.825c7.649-2.869,14.344-5.737,22.949-9.563c0-2.869,0-4.781,0.957-3.825v2.869
			c12.431-7.65,25.818-13.388,42.074-18.169c0,0,0-0.956,0.957-2.869c0.956,3.825,1.912,0.957,3.824,2.869
			c7.65-4.781,13.388-3.825,17.213-7.65c1.912,0.957,14.344,0,12.432-4.781l1.912,3.825c0.956,0,1.912-0.956,3.825-0.956
			c-0.956,0-1.913-0.956-1.913-2.869l3.825-0.956l1.913,4.781h2.868c0-0.956-2.868-0.956-3.825-2.868
			c3.825-0.957,0.957-2.869,1.913-3.825c0.956,3.825-0.956,2.868,0,4.781c0.956,0,1.912,0.956,3.825,2.868
			c8.605-0.956,12.431,0,19.125-0.956c0,0,0-0.956,0.956-2.868c-4.781,0,0.956-2.869-3.825-4.781l3.825-0.957l0.956,0.957
			l0.956,1.912c-0.956,0-0.956,0.956-0.956,2.869h1.912c0,0-0.956,0-0.956,2.868c0.956,0,0.956,0,1.913,0.956
			c3.824-0.956,0.956-2.868,1.912-3.824l1.912,3.824c28.688-2.868,53.551,2.869,77.457,8.606c0-0.956,0-4.781,1.912-3.825
			c-0.956,0,0.956,3.825,0,4.781h0.956c0-4.781-0.956-9.563-3.825-15.3c-3.824,0.956-4.781-2.868-9.563,0.956l-1.912-3.824
			c-19.125-3.825-38.25-7.65-57.375-7.65c-0.956,0,0,4.781-1.912,3.825l-3.825-3.825c-7.65,2.869-15.3,0-21.994,4.781
			c1.913,0,1.913,0,1.913,0.956h-0.957c3.825,0,3.825,0,4.781,3.825c-0.956,0-1.912-0.956-5.737-3.825h0.956h-0.956
			c-1.912,2.869-5.737,3.825-5.737,6.694v-4.781c0,0,0.956-0.957,1.912-0.957h0.957c0-0.956,0.956-2.868,0-5.737
			c-12.432,2.869-22.95,2.869-36.338,5.737c0.956,0.957,0.956,3.825,0,3.825c0-4.781-3.825-2.868-7.65-0.956
			c0,0.956,0.957,3.825-2.868,4.781l-1.913-5.737c-8.605,0.956-12.431,9.563-15.3,3.825c-4.781,3.824-5.737,2.868-8.606,5.737
			c-4.781-2.869-15.3,2.868-22.949,6.693c0,4.781-2.869,4.781,0,5.737c0,0-2.869,3.825-3.825,0.957c0-0.957,0.956-2.869,0-4.781
			c-12.432,2.868-15.3,8.605-27.731,13.387c0,0.957-0.956,2.869,0,4.781c-5.737,0-15.3,8.606-21.037,14.344
			c-3.825,4.781-1.913,2.869-3.825,2.869c-5.737,4.781-12.432,9.563-17.213,13.388c0,0.956,3.825,2.868,0.956,3.825
			c-3.824-4.781-4.781,2.868-7.649,3.824c0,0,3.825,2.869,0.956,3.825c-0.956,0.956,0-5.737-2.869-2.868
			c-0.957,2.868,0,4.781-2.869,4.781c-33.469,32.512-52.594,71.719-67.894,112.837c0,0.956,4.781,0,4.781,2.869
			c-3.825,0.956,0,2.868-1.913,3.825c0-0.957-0.956-3.825-2.869-2.869c0.957,0.956,2.869,3.825,0.957,3.825h1.912v2.868
			c0,0.957-1.912,3.825-1.912,4.781l0.956,3.825c0,0-3.825,0.956-2.869,3.825c0,0,0.956,3.825,0,5.737
			c-1.913,4.781-0.957,2.869-1.913,5.737c-1.913,1.913-2.869,2.869-2.869,2.869c-0.957,2.869,1.913,3.825,0,5.737
			C31.556,353.925,24.862,350.1,29.644,352.969L29.644,352.969z M331.818,118.688l-3.824-3.825
			C330.862,111.994,329.906,117.731,331.818,118.688L331.818,118.688z M326.081,116.775v-4.781
			C326.081,112.95,327.037,114.862,326.081,116.775L326.081,116.775z M317.475,112.95c0.957,0,1.913,0.956,3.825,2.868l-3.825,0.957
			C316.519,116.775,318.432,117.731,317.475,112.95L317.475,112.95z M300.263,118.688h-0.956c0.956,0,0,0-0.957-0.956
			C299.307,117.731,300.263,117.731,300.263,118.688L300.263,118.688z M196.031,141.638c0,0,0.956-2.869-0.956-3.825
			C198.9,136.856,199.856,143.55,196.031,141.638L196.031,141.638z M47.813,309.938c0,0.956-2.869,4.781-3.825,0.956L47.813,309.938
			z M358.594,683.831c0,0.956,0,3.825,1.912,0.956C360.506,684.787,358.594,684.787,358.594,683.831L358.594,683.831z
			 M565.144,243.956c-2.868,2.869,0,2.869-0.956,3.825c0-2.869-3.825-4.781-4.781-7.65h3.825c-0.956,0-2.869-0.956-3.825-2.868
			l-0.956,0.956c0,0,0-0.956,0.956-0.956c-3.825-3.825-5.737-8.606-9.563-7.65l2.869-2.868h-2.869l-0.956-0.957
			c-2.869,0.957-3.825,0-4.781,0c0,0.957,0.956,2.869,3.825,2.869c-0.957,0.956-1.913,2.869-4.781,3.825
			c0.956,2.868,2.868,3.825,3.824,5.737v5.737c0.957-0.956,2.869,0,3.825,0v7.65c0.956-0.956,0.956-3.825,2.869-2.869
			c0.956,0,0,2.869-0.956,3.825l4.781,5.737c2.868-2.868,5.737-9.563,10.519-7.649C566.1,250.65,566.1,246.825,565.144,243.956
			L565.144,243.956z M546.975,241.088c0.957,0,0.957,0.956,1.913,2.868C546.975,242.044,546.975,242.044,546.975,241.088
			L546.975,241.088z M569.925,264.037c-3.825-4.781,0-7.649-4.781-9.563c-0.956,0.957-2.868,2.869-5.737,2.869
			c0.956,0.956,0.956,4.781,2.869,5.737c-4.781,0.956-8.606-7.649-2.869,2.869c0.956-0.956,4.781-0.956,7.65-3.825
			C566.1,263.081,570.881,266.906,569.925,264.037L569.925,264.037z"/>
	</g>
</g>
<g>
	<path fill="#E71F21" d="M220.894,417.994l-10.519-26.775L153,415.125c-1.912,0.956-3.825,1.912-3.825,2.869l-3.825-3.825
		c1.913,0,3.825-0.956,5.738-1.913l57.375-22.949l0.956-4.781c0-1.913,0.956-1.913,1.912-2.869c0.956,0,1.913,0,4.781,0l6.694,1.912
		c1.912,0,2.868,0.957,3.824,1.913c0,0.956-0.956,2.868-2.868,4.781l9.563,23.906c0.956,1.912,1.912,3.825,1.912,4.781l0.956,2.868
		c0,0.957,0,1.913,0,2.869c-0.956,0.956-1.912,1.912-3.824,3.825c-1.913,1.912-2.869,2.868-3.825,2.868c0,0-0.956,0-0.956-0.956
		l-2.869-6.693L172.125,441.9l14.344,35.381c0.956,1.912,1.912,3.825,2.869,3.825c0.956,0,4.781-0.956,11.475-2.869
		c6.693-1.912,12.432-4.781,18.169-6.693c5.737-1.913,11.475-4.781,18.169-7.65c5.737-2.868,9.563-4.781,10.519-4.781
		c0.956-0.956,1.912-1.912,1.912-2.868c0-0.957,0-2.869,0-4.781c0-1.913-0.956-4.781-1.912-8.606
		c-0.956-2.869-1.913-7.65-3.825-13.388l2.869-0.956c2.868,6.693,4.781,12.431,7.649,15.3c1.913,3.825,4.781,5.737,7.65,5.737
		c1.912,0,2.868,0,2.868,0.956c0,0.957,0,2.869-0.956,5.738c-0.956,2.868-1.912,5.737-3.825,7.649
		c-1.912,1.913-7.649,4.781-15.3,7.65c-8.606,3.825-18.169,7.649-28.688,11.475c-10.519,4.781-18.169,6.694-21.993,7.65
		c-3.825,0.956-6.694,0.956-9.563,0.956c-2.869-0.956-4.781-2.869-6.694-7.65l-18.169-44.943c-1.912-4.781-3.824-8.606-4.781-12.432
		c5.738-0.956,9.563-1.912,12.432-1.912s3.825,0,3.825,0c0,0.956-0.956,1.912-2.869,4.781l3.825,8.606L220.894,417.994z"/>
	<path fill="#E71F21" d="M268.706,384.525l-14.344,5.737c-1.912,0.956-2.868,1.912-4.781,2.868l-3.825-3.824
		c1.913,0,3.825-0.957,5.738-1.913l15.3-5.737l-4.781-14.344c-1.913-3.825-3.825-7.65-4.781-11.475c3.825,0,6.693-0.957,9.563-0.957
		c2.868,0,4.781,0,4.781,0c0.956,0,0.956,0,0.956,0.957c0,0.956-0.956,1.912-2.869,4.781l7.65,16.256l3.825-1.912l0.956-6.694
		c0-0.956,0.956-1.912,1.912-1.912c0.957,0,2.869,0,7.65,1.912c3.825,0.956,6.693,2.869,6.693,2.869c0,0.956,0,0.956-1.912,1.912
		l-17.213,6.694l5.738,14.344l15.3-13.388l1.912,1.912l-15.3,18.169l15.3,38.25c0.956,2.869,0.956,6.693-1.912,10.519
		c-2.869,3.825-3.825,5.737-4.781,5.737s-1.913,0-2.869-1.912c-0.956-0.956-1.912-2.869-2.868-2.869
		c-0.957-0.956-2.869-0.956-4.781-0.956c-1.913,0-4.781,0-9.563,0v-1.912c6.693-1.913,11.475-2.869,13.387-3.825
		c1.913-0.956,2.869-1.912,2.869-1.912c0-0.957,0-1.913,0-2.869l-12.432-29.644c-5.737,7.649-8.605,11.475-9.563,12.431
		c0,0.957-0.956,1.913-0.956,1.913s-0.956,0-1.912-0.956c-0.956-0.957-3.825-3.825-7.65-7.65c2.869-1.912,8.606-6.693,17.213-14.344
		L268.706,384.525z M323.213,348.188L351.9,418.95c0.956,1.912,0.956,4.781,0,6.693c-0.957,1.913-2.869,3.825-4.781,6.694
		c-1.913,1.912-3.825,2.868-4.781,3.824c-0.957,0-1.913,0-1.913-0.956c-0.956-1.912-2.868-3.825-5.737-4.781
		c-1.912-0.956-6.693-0.956-12.432,0v-1.912c7.65-0.956,12.432-2.869,14.344-2.869c1.913-0.956,2.869-1.912,3.825-1.912
		c0-0.956,0-1.913,0-2.869l-26.774-65.981l-19.125,7.65c-1.913,0.956-3.825,1.912-3.825,2.869l-3.825-3.825
		c1.912,0,3.825-0.956,5.737-1.913l36.338-14.344l1.912-8.605c0-0.957,0.956-1.913,0.956-1.913c0.957,0,1.913,0,4.781,0.956
		l6.694,1.913c1.912,0.956,2.868,0.956,3.825,1.912c0,0.956,0,1.913-1.913,1.913L323.213,348.188z"/>
	<path fill="#E71F21" d="M372.938,330.019l9.563,23.906l14.344-5.737l1.912-7.65c0-0.956,0.957-1.912,0.957-1.912
		s1.912,0,3.824,0.956c1.913,0.956,3.825,1.913,5.738,2.869c1.912,0.956,2.868,1.912,2.868,1.912c0,0.956,0,0.956-0.956,1.913
		l-27.731,11.475l12.432,29.644l27.731-20.081l1.912,1.912c-19.125,19.125-28.688,30.601-31.557,35.382
		c0,0.956-0.956,1.912-0.956,1.912h-0.956c-0.956,0-1.912-0.956-3.825-2.868c-1.912-1.913-3.825-3.825-4.781-5.738
		c0.956-1.912,1.913-3.824,1.913-4.781c0-1.912,0-3.824-0.957-6.693l-19.125-47.813c-1.912-3.825-2.868-6.693-4.781-9.563
		c4.781,0,8.606-0.956,11.476,0c5.737-7.65,11.475-16.256,15.3-25.818c7.65,3.824,11.475,5.737,12.432,6.693
		c0,0,0,0.956-1.913,0.956c-1.912,0.956-2.868,1.913-4.781,3.825C387.281,317.588,380.588,323.325,372.938,330.019z
		 M414.057,302.287l20.081-8.605l1.912-5.738c0-0.956,0.956-1.912,0.956-1.912c0.957,0,2.869,0,6.694,0.956s6.693,1.913,6.693,2.869
		s-0.956,1.912-2.868,4.781l21.993,54.506c1.913,3.825,1.913,6.694,1.913,8.606s-0.957,3.825-3.825,6.693
		c-1.913,2.869-3.825,3.825-3.825,4.781c-0.956,0-1.912,0-2.869-1.912c-0.956-1.912-2.868-2.869-4.781-3.825
		c-1.912-0.956-5.737-0.956-11.475-0.956v-2.869c5.737-0.956,9.563-1.912,11.475-2.868c1.913-0.956,2.869-0.956,2.869-1.913
		c0.956-0.956,0-1.912,0-3.824l-21.994-53.551l-21.993,8.606l34.425,84.15c0,0.956,0,1.912,0,1.912c0,0.956-1.912,1.913-2.869,2.869
		c-1.912,1.912-2.868,2.868-3.824,2.868c-0.957,0-0.957,0-0.957-0.956l-1.912-3.825c-0.956-2.868-1.912-6.693-3.825-10.519
		l-27.731-68.85c-1.912-4.781-3.824-7.65-4.781-11.476C407.362,302.287,411.188,302.287,414.057,302.287z"/>
</g>
</svg>
