<?xml version="1.0" encoding="utf-8"?>
<!-- Generator: Adobe Illustrator 15.0.0, SVG Export Plug-In . SVG Version: 6.00 Build 0)  -->
<!DOCTYPE svg PUBLIC "-//W3C//DTD SVG 1.1//EN" "http://www.w3.org/Graphics/SVG/1.1/DTD/svg11.dtd">
<svg version="1.1" id="图层_1" xmlns="http://www.w3.org/2000/svg" xmlns:xlink="http://www.w3.org/1999/xlink" x="0px" y="0px"
	 width="612px" height="792px" viewBox="0 0 612 792" enable-background="new 0 0 612 792" xml:space="preserve">
<g>
	<g>
		<path fill="#FFFFFF" d="M521.156,555.693c8.606,8.606,10.519,23.906,1.912,32.513l-21.993,24.862
			c-8.606,8.606-24.862,7.65-33.469-0.956l-88.932-90.844c-0.956-0.956-0.956-1.912-1.912-1.912
			c-30.601,20.081-65.981,32.513-105.188,32.513c-104.231,0-189.338-85.106-189.338-189.338s85.106-189.338,189.338-189.338
			S460.912,258.3,460.912,362.531c0,38.25-11.475,73.631-30.6,103.275c0,0,0.956,0,0.956,0.956L521.156,555.693z M272.531,217.182
			c-80.325,0-144.394,65.024-144.394,144.394c0,80.325,65.024,144.394,144.394,144.394c80.325,0,144.394-65.025,144.394-144.394
			C416.925,282.206,351.9,217.182,272.531,217.182L272.531,217.182z M349.987,300.375c-4.781,3.825-10.519,2.869-14.344-0.956
			c-16.256-16.257-38.25-25.819-63.112-25.819c-26.775,0-50.682,11.476-66.938,30.601c-3.825,3.825-9.563,4.781-14.344,1.912l0,0
			c-5.737-3.825-6.693-11.475-1.912-16.256c20.081-22.95,49.725-37.294,83.193-37.294c30.6,0,58.331,12.432,78.412,32.513
			C355.725,287.943,354.769,295.594,349.987,300.375L349.987,300.375z"/>
	</g>
</g>
</svg>
