<?xml version="1.0" encoding="utf-8"?>
<!-- Generator: Adobe Illustrator 15.0.0, SVG Export Plug-In . SVG Version: 6.00 Build 0)  -->
<!DOCTYPE svg PUBLIC "-//W3C//DTD SVG 1.1//EN" "http://www.w3.org/Graphics/SVG/1.1/DTD/svg11.dtd">
<svg version="1.1" id="图层_1" xmlns="http://www.w3.org/2000/svg" xmlns:xlink="http://www.w3.org/1999/xlink" x="0px" y="0px"
	 width="612px" height="792px" viewBox="0 0 612 792" enable-background="new 0 0 612 792" xml:space="preserve">
<g>
	<path fill="#FFFFFF" d="M57.375,208.575v374.85c0,21.994,18.169,40.163,40.163,40.163h415.968
		c21.994,0,40.163-18.169,40.163-40.163v-374.85c0-21.994-18.169-40.163-40.163-40.163H97.538
		C75.544,168.412,57.375,186.581,57.375,208.575z M512.55,582.469H99.45v-298.35h414.056v298.35H512.55z M348.075,433.294h41.118
		c2.869,0,4.781-1.913,4.781-4.781v-28.688h62.156c2.869,0,4.781-1.913,4.781-4.781v-20.081c0-2.869-1.912-4.781-4.781-4.781
		h-62.156v-28.688c0-2.869-1.912-4.781-4.781-4.781h-41.118c-2.869,0-4.781,1.912-4.781,4.781v28.688H157.781
		c-2.869,0-4.781,1.912-4.781,4.781V396c0,2.869,1.912,4.781,4.781,4.781h185.513v28.688
		C343.294,431.381,345.206,433.294,348.075,433.294z M251.494,445.725h-41.119c-2.869,0-4.781,1.913-4.781,4.781v28.688h-49.725
		c-2.869,0-4.781,1.913-4.781,4.781v20.082c0,2.868,1.912,4.781,4.781,4.781h49.725v32.512c0,2.869,1.912,4.781,4.781,4.781h41.119
		c2.868,0,4.781-1.912,4.781-4.781v-28.688H459c2.869,0,4.781-1.912,4.781-4.781V487.8c0-2.868-1.912-4.781-4.781-4.781H256.275
		v-32.513C256.275,447.638,254.362,445.725,251.494,445.725z"/>
</g>
</svg>
