<?xml version="1.0" encoding="utf-8"?>
<!-- Generator: Adobe Illustrator 15.0.0, SVG Export Plug-In . SVG Version: 6.00 Build 0)  -->
<!DOCTYPE svg PUBLIC "-//W3C//DTD SVG 1.1//EN" "http://www.w3.org/Graphics/SVG/1.1/DTD/svg11.dtd">
<svg version="1.1" id="图层_1" xmlns="http://www.w3.org/2000/svg" xmlns:xlink="http://www.w3.org/1999/xlink" x="0px" y="0px"
	 width="612px" height="792px" viewBox="0 0 612 792" enable-background="new 0 0 612 792" xml:space="preserve">
<g>
	<g>
		<path fill="#FFFFFF" d="M79.369,550.912c-0.956,3.825,0.957,6.694,4.781,5.738l86.063-23.906c3.824-0.957,4.781-4.781,1.912-7.65
			l-56.419-59.287c-2.868-2.869-6.693-2.869-7.649,1.912L79.369,550.912z"/>
		<path fill="#FFFFFF" d="M143.438,429.469c-2.869,2.869-2.869,7.65,0,11.475l58.331,59.288c2.869,2.868,8.606,2.868,11.476,0
			l204.637-195.075c2.869-2.869,2.869-7.65,0-11.475l-56.418-59.288c-2.869-2.868-7.65-2.868-11.476,0L143.438,429.469z"/>
		<path fill="#FFFFFF" d="M434.138,165.544c-2.869-2.869-7.65-3.825-11.476,0l-37.293,33.469c-2.869,2.868-3.825,7.649,0,10.519
			l59.287,59.287c2.869,2.869,8.606,2.869,11.475,0l34.426-32.512c2.868-2.869,2.868-7.65,0-11.476L434.138,165.544z"/>
		<path fill="#FFFFFF" d="M96.581,592.031h418.838c10.519,0,18.169,8.606,18.169,18.169l0,0c0,10.519-8.606,18.169-18.169,18.169
			H96.581c-10.519,0-18.168-8.606-18.168-18.169l0,0C78.413,600.638,87.019,592.031,96.581,592.031z"/>
	</g>
</g>
</svg>
